<svg id="Capa_1" data-name="Capa 1" xmlns="http://www.w3.org/2000/svg" viewBox="0 0 61 61"><path class="cls-1" d="M30.5,0A30.5,30.5,0,1,0,61,30.5,30.51,30.51,0,0,0,30.5,0Z"/><circle id="Ojo" class="cls-1" cx="40.24" cy="32.17" r="1.5"/><path class="cls-2" d="M22.65,35.67c-.26.19-.55.57-.93.69-2.92.91-5.86,1.8-8.81,2.61-.36.09-.86-.33-1.29-.51.24-.36.4-1,.72-1.06,3-1,5.93-1.84,8.91-2.72C21.93,34.48,22.51,34.61,22.65,35.67Z"/><path class="cls-2" d="M22.89,39.33c.15.13.61.36.61.57A1.44,1.44,0,0,1,23,41a8.82,8.82,0,0,1-1.88.62c-2.42.71-4.83,1.46-7.27,2.1-.38.1-.88-.28-1.33-.44.22-.39.36-1,.67-1.12,3-1,6.1-1.84,9.16-2.74A4.61,4.61,0,0,1,22.89,39.33Z"/><path class="cls-2" d="M28.52,20.64a2.29,2.29,0,1,0,.08,4.57,2.29,2.29,0,1,0-.08-4.57Zm.11,2.69a.5.5,0,0,1-.5-.5.5.5,0,0,1,.5-.5.5.5,0,0,1,.5.5A.51.51,0,0,1,28.63,23.33Z"/><path class="cls-2" d="M32.94,25.6A2.33,2.33,0,0,0,30.69,28,2.22,2.22,0,0,0,33,30.21,2.35,2.35,0,0,0,35.34,28,2.44,2.44,0,0,0,32.94,25.6Zm0,3.1a.75.75,0,0,1-.74-.75.74.74,0,0,1,.74-.74.75.75,0,0,1,.75.74A.76.76,0,0,1,32.92,28.7Z"/><path class="cls-2" d="M37.74,40.56a2.38,2.38,0,1,0-.09,4.76A2.44,2.44,0,0,0,40.12,43,2.42,2.42,0,0,0,37.74,40.56Zm-.24,3.13a.72.72,0,0,1,0-1.44.72.72,0,0,1,0,1.44Z"/><path class="cls-2" d="M52.35,45.59Q49.62,35.28,46.93,25a2.57,2.57,0,0,0-1.82-2.15,2.54,2.54,0,0,0-2.69.93l-2,2.21c-1.36-5.17-2.65-9.95-3.87-14.74A2.58,2.58,0,0,0,31.8,10q-7.49,7.44-15,14.85c-1.64,1.61-1.74,2.24-.54,4.36-3.06,3-6.17,5.95-9.25,9A18.16,18.16,0,0,0,5.59,39.9v1.23a3.59,3.59,0,0,0,2.7,1.95c6.88,1.68,13.75,3.45,20.63,5.18a2.43,2.43,0,0,0,3.17-2.93c0-.26-.11-.52-.2-.93l6,1.53,10.84,2.81c1.95.5,2.86.1,3.83-1.65v-1A2.82,2.82,0,0,1,52.35,45.59Zm-3.87-7.77a.65.65,0,1,1-.64-.64A.64.64,0,0,1,48.48,37.82Zm-31-11.59L24,19.83,33,11c1.08-1.07,1.75-.9,2.13.57q2.69,10.22,5.34,20.42c.33,1.26-.19,1.8-1.43,1.48-3.33-.84-6.64-1.71-10-2.52a1.12,1.12,0,0,1-1-1c-.43-1.76-.94-3.5-1.38-5.25a2.8,2.8,0,0,0-1.89-2.37A2.76,2.76,0,0,0,22,23.35c-1.51,1.51-3.06,3-4.65,4.51C16.66,27.16,17,26.7,17.5,26.23Zm15.08,7.08L29.64,36c-.27-1.06-.58-2.23-.94-3.62ZM29.06,46.79l-7.85-2L8.33,41.56c-1.45-.37-1.64-1-.61-2L23.07,24.32c1-1,1.73-.85,2.09.53q2.7,10.2,5.39,20.4c.05.2.08.41.11.55C30.68,46.75,30.15,47.06,29.06,46.79Zm20.22.61-7.63-2c-3.12-.81-6.23-1.64-9.35-2.43-.6-.15-.95-.35-1.09-1-.26-1.34-1.15-2.78-.84-3.94s1.85-1.95,2.69-3a2.42,2.42,0,0,1,3.12-.84,19.28,19.28,0,0,0,2.71.71,2.44,2.44,0,0,0,3-3.11c-.32-1.25-.69-2.5-1-3.77a1.25,1.25,0,0,1,.26-1c.79-.87,1.63-1.69,2.49-2.49s1.44-.47,1.7.49c.91,3.39,1.8,6.8,2.7,10.2-2.13.55-3,1.56-2.57,3s1.67,2,3.73,1.39c.59,2.23,1.22,4.45,1.74,6.69C51.23,47.21,50.38,47.68,49.28,47.4Z"/></svg>