<svg viewBox="0 0 1000 1000" xmlns="http://www.w3.org/2000/svg"><circle cx="497.59" cy="500" fill="#c6c6c6" r="488.85"/><g fill="#fff"><path d="m495.61 135c-.59 2.51-1.19 5-1.78 7.53q-4.11 17.53-8.21 35.07c-.22.93-.29 1.86-.47 3.12 9.49-3.64 18.54-7.13 27.6-10.59 4.79-1.83 6-1.22 4.81 2.53-6.25 20.39-12.49 40.77-18.88 61.16-.39 1.23-2 2.44-3 3.67-.67-1.08-1.93-2.06-1.89-3.24.28-7.79.85-15.62 1.3-23.44.37-6.53.7-13 1.07-19.91-11 4.22-21.47 8.28-32 12.24a28.47 28.47 0 0 1 -4.64.94c.07-1.28-.27-2.61.27-3.85q14.21-32.69 28.61-65.34c-136.34.17-246.82 110.75-246.82 247.11s110.65 247.15 247.13 247.15 247.14-110.64 247.14-247.15c0-134.16-106.94-243.36-240.24-247zm46 258.79q33 33 66 66c3.48 3.48 7.21 6.75 9.47 11.32a25.84 25.84 0 0 1 -4.51 29.4c-4.14 4.24-8.13 8.72-12.77 12.37-10.48 8.26-24.73 7.09-34.24-2.41q-28.95-28.89-57.85-57.85-6.22-6.24-12.46-12.46c-4.13-4.1-8.92-4.09-13.06.06q-35 35-70 70.06c-10.63 10.65-26.7 10.76-37.35.16-3.29-3.27-6.59-6.52-9.82-9.85a25.72 25.72 0 0 1 .13-36c12.49-12.61 25.08-25.12 37.63-37.67q16.45-16.45 32.92-32.92c4.51-4.52 4.41-9.05-.1-13.55q-35.1-35.08-70.17-70.2a25.63 25.63 0 0 1 0-36.64c4.25-4.31 8.51-8.64 13.14-12.51 4.19-3.52 9.4-4.81 15.58-4.83a25.16 25.16 0 0 1 17.69 7.73q18 18 36.07 36.07 17.19 17.19 34.37 34.38c4 4 8.88 4 12.92 0q35-34.95 69.91-69.93c10.86-10.9 26.88-11.05 37.74-.2 3.2 3.19 6.42 6.35 9.56 9.58a25.72 25.72 0 0 1 -.09 36.13c-13.45 13.57-27 27.05-40.51 40.56l-30.18 30.17c-4.1 4.06-4.13 8.9-.02 13.01z"/><path d="m141.1 703.16v-46.66h29.42v6.61h-21.86v13.22h17.77v6.53h-17.77v13.62h21.86v6.68z"/><path d="m178.29 703.16v-48.22h7.42v48.22z"/><path d="m210.09 663.32v-7.84h7.43v7.84zm0 39.84v-34h7.43v34z"/><path d="m239.25 668.35a45.2 45.2 0 0 1 8.51 1l1.7.34-.27 5.86c-3.59-.37-6.24-.55-8-.55-3.45 0-5.77.78-6.95 2.32s-1.77 4.45-1.77 8.72.57 7.22 1.71 8.85 3.49 2.45 7.08 2.45l8-.54.2 5.92a64.36 64.36 0 0 1 -10.35 1.23q-7.77 0-10.93-4.19t-3.18-13.76q0-9.54 3.34-13.59t10.91-4.06z"/><path d="m258.15 672.78q3.5-4.42 11.68-4.43t11.68 4.43q3.51 4.44 3.51 13.28t-3.41 13.35q-3.41 4.5-11.78 4.5t-11.78-4.5q-3.42-4.49-3.41-13.35t3.51-13.28zm5.55 22.14c1 1.81 3.09 2.72 6.13 2.72s5.08-.91 6.13-2.72 1.56-4.79 1.56-8.92-.55-7.06-1.66-8.79-3.13-2.59-6-2.59-4.92.87-6 2.59-1.67 4.65-1.67 8.79.46 7.1 1.51 8.92z"/><path d="m299.8 703.16h-7.43v-34h7.36v2.11a19 19 0 0 1 9.4-2.87q6.81 0 9.3 3.85t2.49 12.7v18.26h-7.36v-18q0-5.52-1.19-7.83c-.8-1.54-2.42-2.32-4.87-2.32a16.85 16.85 0 0 0 -6.68 1.37l-1 .4z"/><path d="m331.44 672.78q3.51-4.42 11.68-4.43t11.68 4.43q3.51 4.44 3.51 13.28t-3.41 13.35q-3.4 4.5-11.78 4.5t-11.78-4.5q-3.42-4.49-3.41-13.35t3.51-13.28zm5.56 22.14c1 1.81 3.09 2.72 6.13 2.72s5.08-.91 6.13-2.72 1.57-4.79 1.57-8.92-.56-7.06-1.67-8.79-3.12-2.59-6-2.59-4.92.87-6 2.59-1.67 4.65-1.67 8.79.45 7.1 1.51 8.92z"/><path d="m388.07 703.16h-7.42v-34h7.35v2.11a19 19 0 0 1 9.4-2.87q6.81 0 9.3 3.85t2.49 12.7v18.26h-7.36v-18q0-5.52-1.19-7.83c-.8-1.54-2.42-2.32-4.87-2.32a16.88 16.88 0 0 0 -6.68 1.37l-1 .4z"/><path d="m419.71 672.78q3.51-4.42 11.68-4.43t11.68 4.43q3.51 4.44 3.51 13.28t-3.4 13.35q-3.4 4.5-11.79 4.5t-11.78-4.5q-3.41-4.49-3.41-13.35t3.51-13.28zm5.55 22.14q1.58 2.72 6.13 2.72c3 0 5.09-.91 6.13-2.72s1.57-4.79 1.57-8.92-.56-7.06-1.67-8.79-3.12-2.59-6-2.59-4.91.87-6 2.59-1.66 4.65-1.66 8.79.46 7.1 1.5 8.92z"/><path d="m492.56 676.12a97.31 97.31 0 0 0 -11.65-1.12c-2.41 0-4.08.29-5 .85a2.91 2.91 0 0 0 -1.39 2.69 2.65 2.65 0 0 0 1.53 2.59 34.53 34.53 0 0 0 7.22 1.74c3.79.65 6.48 1.69 8.07 3.1s2.39 3.9 2.39 7.49-1.15 6.22-3.44 7.9-5.65 2.52-10 2.52a60.67 60.67 0 0 1 -10.49-1.16l-2.11-.34.27-6.2a100.67 100.67 0 0 0 11.78 1.09 11 11 0 0 0 5.15-.88 3.12 3.12 0 0 0 1.53-2.93 2.93 2.93 0 0 0 -1.47-2.83q-1.45-.78-7-1.7c-3.7-.61-6.42-1.58-8.14-2.9s-2.59-3.72-2.59-7.22 1.19-6.1 3.58-7.83a15.21 15.21 0 0 1 9.16-2.59 65.58 65.58 0 0 1 10.69 1.09l2.11.41z"/><path d="m525.12 697 1.9-.2.14 5.51a70.13 70.13 0 0 1 -13.76 1.57q-7.56 0-10.86-4.15c-2.21-2.78-3.31-7.2-3.31-13.29q0-18.12 14.78-18.12 14.31 0 14.31 15.6l-.48 5.31h-21.11q.06 4.23 1.83 6.2t6.61 2c3.23.01 6.54-.13 9.95-.43zm-4.12-13.46q0-5-1.6-7c-1.07-1.35-2.87-2-5.42-2s-4.39.71-5.55 2.12-1.76 3.72-1.8 6.94z"/><path d="m557.88 703.16h-7.43v-48.22h7.43v15.94a20.94 20.94 0 0 1 9.33-2.53q6.81 0 9.3 3.85t2.49 12.7v18.26h-7.42v-18q0-5.52-1.16-7.83c-.77-1.54-2.41-2.32-4.9-2.32a20.48 20.48 0 0 0 -6.54 1.09l-1.09.41z"/><path d="m612.84 679.59v15.53a3.27 3.27 0 0 0 .79 2.22 3.84 3.84 0 0 0 2.21.92l-.2 5.65q-5.86 0-9.06-2.52a26 26 0 0 1 -11 2.52q-10.14 0-10.15-10.83 0-5.18 2.76-7.49t8.48-2.8l8.79-.75v-2.45c0-1.81-.4-3.09-1.19-3.81a5 5 0 0 0 -3.51-1.09q-4.37 0-10.9.54l-2.18.14-.27-5.25a59.23 59.23 0 0 1 13.66-1.77q6.23 0 9 2.7c1.86 1.79 2.77 4.64 2.77 8.54zm-15.25 8.41c-3.14.27-4.7 2-4.7 5.11s1.38 4.7 4.15 4.7a26.17 26.17 0 0 0 7.22-1.09l1.23-.41v-9.06z"/><path d="m649.9 668.35a45.2 45.2 0 0 1 8.51 1l1.7.34-.27 5.86c-3.59-.37-6.24-.55-8-.55-3.45 0-5.77.78-7 2.32s-1.77 4.45-1.77 8.72.57 7.22 1.71 8.85 3.49 2.45 7.08 2.45l8-.54.2 5.92a64.36 64.36 0 0 1 -10.35 1.23q-7.77 0-10.93-4.19t-3.12-13.76q0-9.54 3.34-13.59t10.9-4.06z"/><path d="m692.47 679.59v15.53a3.22 3.22 0 0 0 .78 2.22 3.84 3.84 0 0 0 2.21.92l-.2 5.65q-5.87 0-9.06-2.52a25.91 25.91 0 0 1 -11 2.52q-10.14 0-10.15-10.83 0-5.18 2.76-7.49t8.48-2.8l8.79-.75v-2.45c0-1.81-.4-3.09-1.19-3.81a5 5 0 0 0 -3.51-1.09q-4.36 0-10.9.54l-2.18.14-.27-5.25a59.23 59.23 0 0 1 13.66-1.77q6.22 0 9 2.7t2.78 8.54zm-15.26 8.41q-4.69.4-4.7 5.11t4.15 4.7a26.11 26.11 0 0 0 7.22-1.09l1.23-.41v-9.06z"/><path d="m701.8 703.16v-34h7.35v4.08a32.41 32.41 0 0 1 11.58-4.84v7.43a47.5 47.5 0 0 0 -10 3l-1.5.61v23.77z"/><path d="m756 707.79q0 11.21-16.2 11.21-7.75 0-11.51-2.11c-2.49-1.41-3.74-4-3.74-7.7a7.54 7.54 0 0 1 1.22-4.32 18.69 18.69 0 0 1 4-3.92c-1.5-1-2.24-2.65-2.24-5 0-.91.61-2.38 1.84-4.43l.61-1q-4.9-2.93-4.91-10.22 0-6.12 3.68-9t9.95-2.86a25.74 25.74 0 0 1 5.92.69l1 .2 10.56-.28v6l-5.65-.34a8.91 8.91 0 0 1 1.84 5.58c0 4.46-1.13 7.53-3.37 9.24s-5.76 2.55-10.53 2.55a14.07 14.07 0 0 1 -3-.27 10.22 10.22 0 0 0 -1 3.57 1.75 1.75 0 0 0 1.26 1.74 23.51 23.51 0 0 0 6.1.54q8.1.08 11.1 2.18t3.07 7.95zm-24.12.68a3.57 3.57 0 0 0 1.91 3.41q1.9 1 6.54 1 8.24 0 8.24-4.7c0-1.77-.49-2.9-1.46-3.37s-2.92-.74-5.83-.78l-6.67-.41a9.09 9.09 0 0 0 -2.11 2.28 5 5 0 0 0 -.67 2.57zm2-23.6q1.5 1.47 4.83 1.47t4.81-1.47a6.3 6.3 0 0 0 1.46-4.6 6.17 6.17 0 0 0 -1.5-4.59q-1.5-1.47-4.83-1.47-6.27 0-6.27 6.06a6.18 6.18 0 0 0 1.5 4.6z"/><path d="m787.14 679.59v15.53a3.27 3.27 0 0 0 .79 2.22 3.81 3.81 0 0 0 2.21.92l-.2 5.65q-5.87 0-9.06-2.52a26 26 0 0 1 -11 2.52q-10.15 0-10.15-10.83 0-5.18 2.76-7.49c1.84-1.55 4.66-2.48 8.48-2.8l8.79-.75v-2.45c0-1.81-.4-3.09-1.2-3.81a5 5 0 0 0 -3.5-1.09q-4.37 0-10.9.54l-2.18.14-.27-5.25a59.21 59.21 0 0 1 13.65-1.77q6.24 0 9 2.7t2.78 8.54zm-15.25 8.41q-4.71.4-4.71 5.11t4.16 4.7a26.17 26.17 0 0 0 7.22-1.09l1.23-.41v-9.06z"/><path d="m824.26 654.94v48.22h-7.35v-1.77a20.46 20.46 0 0 1 -9.13 2.52q-6.67 0-9.77-4t-3.1-13.49q0-9.46 3.44-13.75t10.73-4.3a53.29 53.29 0 0 1 7.76.89v-14.3zm-8.58 41.14 1.16-.48v-20.16a45.65 45.65 0 0 0 -7.56-.68q-6.88 0-6.88 11.44 0 6.27 1.6 8.68a5.64 5.64 0 0 0 5.08 2.42 17.9 17.9 0 0 0 6.6-1.22z"/><path d="m835.13 672.78q3.51-4.42 11.68-4.43t11.68 4.43q3.51 4.44 3.51 13.28t-3.41 13.35q-3.4 4.5-11.78 4.5t-11.81-4.5q-3.42-4.49-3.41-13.35t3.54-13.28zm5.55 22.14c1 1.81 3.09 2.72 6.13 2.72s5.09-.91 6.13-2.72 1.57-4.79 1.57-8.92-.56-7.06-1.67-8.79-3.12-2.59-6-2.59-4.91.87-6 2.59-1.67 4.65-1.67 8.79.47 7.1 1.51 8.92z"/><path d="m165.37 732.74a77.94 77.94 0 0 1 14.63 1.64l2.92.58-.47 10q-9.22-.93-13.66-.93-8.88 0-11.91 4t-3 15q0 11 2.92 15.18t12.15 4.2l13.66-.93.35 10.16a111 111 0 0 1 -17.75 2.1q-13.31 0-18.74-7.18t-5.47-23.56q0-16.35 5.72-23.3t18.65-6.96z"/><path d="m197.77 740.33q6-7.59 20-7.59t20 7.59q6 7.6 6 22.77t-5.77 22.9q-5.85 7.71-20.2 7.71t-20.21-7.71q-5.84-7.71-5.83-22.89t6.01-22.78zm9.52 37.95q2.71 4.72 10.51 4.72t10.5-4.67q2.7-4.71 2.7-15.33t-2.86-15.07q-2.87-4.42-10.33-4.43t-10.34 4.43q-2.86 4.44-2.86 15.07t2.68 15.28z"/><path d="m256.44 792.41v-58.41h12.62v7a55.53 55.53 0 0 1 19.85-8.29v12.73a82.42 82.42 0 0 0 -17.17 5.14l-2.57 1v40.75z"/><path d="m298.6 792.41v-58.41h12.61v7a55.53 55.53 0 0 1 19.85-8.29v12.73a82.42 82.42 0 0 0 -17.17 5.14l-2.56 1v40.75z"/><path d="m381.85 781.9 3.27-.35.24 9.46a121 121 0 0 1 -23.59 2.69q-13 0-18.63-7.13t-5.66-22.77q0-31 25.34-31.06 24.53 0 24.52 26.74l-.82 9.11h-36.19q.1 7.24 3.15 10.63t11.32 3.38q8.3 0 17.05-.7zm-7-23.12q0-8.64-2.75-12.08t-9.28-3.45q-6.54 0-9.52 3.62c-2 2.42-3 6.39-3.09 11.91z"/><path d="m421.44 732.74a77.94 77.94 0 0 1 14.56 1.64l3 .62-.46 10q-9.24-.93-13.67-.93-8.86 0-11.91 4t-3 15q0 11 2.92 15.18t12.14 4.2l13.66-.93.32 10.08a111 111 0 0 1 -17.75 2.1q-13.31 0-18.74-7.18t-5.51-23.52q0-16.35 5.72-23.3t18.72-6.96z"/><path d="m482.62 744.89h-16.11v25.69c0 4.74.35 7.9 1.05 9.45s2.49 2.34 5.37 2.34l9.58-.35.58 10.16a68.39 68.39 0 0 1 -11.91 1.52q-9.93 0-13.6-4.56t-3.68-17.14v-27.11h-7.48v-10.89h7.48v-16.9h12.61v16.9h16.11z"/><path d="m536.22 752v26.62a5.55 5.55 0 0 0 1.34 3.8 6.5 6.5 0 0 0 3.8 1.57l-.35 9.7q-10.05 0-15.53-4.32a44.45 44.45 0 0 1 -18.8 4.32q-17.4 0-17.4-18.57 0-8.88 4.73-12.84t14.54-4.79l15.06-1.28v-4.21q0-4.66-2.05-6.54c-1.36-1.24-3.36-1.87-6-1.87q-7.47 0-18.68.94l-3.74.23-.47-9a101.77 101.77 0 0 1 23.42-3q10.68 0 15.41 4.62t4.72 14.62zm-26.16 14.48q-8.06.71-8.05 8.76t7.12 8.06a45.36 45.36 0 0 0 12.38-1.87l2.1-.7v-15.53z"/><path d="m564.94 792.41h-12.72v-58.41h12.61v3.62q8.28-4.9 15.18-4.91 10.15 0 14.83 5.72a44.31 44.31 0 0 1 21.16-5.69q10.51 0 14.83 6.48t4.32 21.9v31.29h-12.64v-30.94q0-9.47-1.93-13.43c-1.28-2.64-4-4-8-4a31.57 31.57 0 0 0 -11.32 2.34l-2 .81q.93 2.34.94 14.95v30.24h-12.6v-30q0-10.39-1.87-14.36t-8.18-4a25.41 25.41 0 0 0 -10.86 2.34l-1.75.7z"/><path d="m691.64 781.9 3.27-.35.23 9.46a121 121 0 0 1 -23.59 2.69q-13 0-18.62-7.13t-5.67-22.77q0-31 25.34-31.06 24.52 0 24.52 26.74l-.81 9.11h-36.2q.12 7.24 3.15 10.63t11.33 3.38q8.28 0 17.05-.7zm-7-23.12q0-8.64-2.74-12.08t-9.29-3.45q-6.54 0-9.51 3.62t-3.1 11.91z"/><path d="m722.11 792.41h-12.73v-58.41h12.62v3.62q8.52-4.9 16.11-4.91 11.67 0 15.94 6.6t4.26 21.78v31.29h-12.61v-30.91q0-9.47-2-13.43t-8.35-4a28.92 28.92 0 0 0 -11.45 2.34l-1.75.7z"/><path d="m804.55 744.89h-16.11v25.69c0 4.74.35 7.9 1 9.45s2.49 2.34 5.37 2.34l9.57-.35.59 10.16a68.39 68.39 0 0 1 -11.91 1.52q-9.93 0-13.61-4.56t-3.62-17.14v-27.11h-7.48v-10.89h7.48v-16.9h12.61v16.9h16.11z"/><path d="m856.51 781.9 3.27-.35.22 9.45a120.87 120.87 0 0 1 -23.58 2.69q-13 0-18.63-7.13t-5.66-22.77q0-31 25.34-31.06 24.53 0 24.52 26.74l-.82 9.11h-36.17q.12 7.24 3.16 10.63t11.32 3.38q8.28.01 17.03-.69zm-7-23.12q0-8.64-2.75-12.08t-9.28-3.45q-6.54 0-9.52 3.62c-2 2.42-3 6.39-3.09 11.91z"/></g></svg>