<svg xmlns="http://www.w3.org/2000/svg" viewBox="0 0 1086.47 963.52"><title>Recurso 53</title><g id="Capa_2" data-name="Capa 2"><g id="Capa_1-2" data-name="Capa 1"><path d="M459.34,164a10,10,0,0,0-.47,3.63c-2.53,31.23-13.32,59.3-32.74,83.85-23.45,29.65-53.81,48.44-90.83,56.31a154,154,0,0,1-45.23,2.62C226,304.9,171.09,259.17,154,197A155.61,155.61,0,0,1,263.81,5.2a153.18,153.18,0,0,1,31.41-5c.33,0,.73.16,1-.24h15.62c.13.35.43.23.68.25,2.19.17,4.38.31,6.57.51a152.78,152.78,0,0,1,46.63,12,155.59,155.59,0,0,1,93.19,130.57,13.14,13.14,0,0,0,.46,4.18Zm-12-8.54a143.44,143.44,0,1,0-143.41,143.5A143.37,143.37,0,0,0,447.3,155.41Z" fill="#fe0101"/><path d="M1070.21,515.15H828.32c-9,0-16.26,8-16.26,17.83s7.28,17.82,16.26,17.82h241.89c9,0,16.26-8,16.26-17.82S1079.2,515.15,1070.21,515.15Z" fill="#ff3c35"/><path d="M917.74,595.94h-232c-9,0-16.26,8-16.26,17.82s7.27,17.83,16.26,17.83h232c9,0,16.26-8,16.26-17.83S926.72,595.94,917.74,595.94Z" fill="#ff3c35"/><path d="M655.45,701.49H608.79l21.86-157.71H713c9,0,16.25-8,16.25-17.83S722,508.13,713,508.13H635.6l9.25-66.74H917.74c9,0,16.26-8,16.26-17.83s-7.28-17.82-16.26-17.82H649.8l31.47-227c.25-.73,2.39-3.81,2.82-3.91l141.82-32.52c7.55-1.73,13.69-7.69,16.18-15.69l7.85-25.24a25.81,25.81,0,0,0-2.81-21.5A21.33,21.33,0,0,0,829.6,69.73c-3.1,0-6.19,0-9.21,0-156.21,1-180.54,93.47-181.5,97.41a25,25,0,0,0-.49,2.58L614.46,342.36H21.81a21.34,21.34,0,0,0-18,10.45A25.89,25.89,0,0,0,1.52,375L148.94,785.17c3.28,9.14,11.33,15.15,20.29,15.15H554.39c6.31,3.38,20.35,12.73,20.35,29.12,0,14.63-14.81,18.78-19.69,19.75H207.49c-12.05,0-21.81,10.71-21.81,23.91S195.44,897,207.49,897h24.93a45,45,0,0,0-6.89,24.12c0,23.4,17.3,42.38,38.65,42.38s38.67-19,38.67-42.38A45,45,0,0,0,296,897H469.53a45,45,0,0,0-6.89,24.12c0,23.4,17.29,42.38,38.66,42.38s38.65-19,38.65-42.38A45,45,0,0,0,533.06,897h23.66a21.51,21.51,0,0,0,2.67-.18c20.4-2.77,59-20.4,59-67.4a77.73,77.73,0,0,0-20-52.6L604,736.41a14.62,14.62,0,0,0,4.34.73h47.16c9,0,16.26-8,16.26-17.83S664.43,701.49,655.45,701.49ZM53.85,390.18H168.37l-70,123.9ZM154.37,669.83l-36-100.24L219.68,390.18h92.68Zm29.71,82.66-9.76-27.15L363.67,390.18h92.67L251.67,752.49Zm118.9,0L507.66,390.18h92.68L395.66,752.49Zm254.61,0H447L593.57,493Z" fill="#ff3c35"/><path d="M730.6,701.49H721c-9,0-16.25,8-16.25,17.82S712,737.14,721,737.14h9.61c9,0,16.26-8,16.26-17.83S739.59,701.49,730.6,701.49Z" fill="#ff3c35"/><path d="M447.3,155.41A143.44,143.44,0,1,1,303.91,12,143.38,143.38,0,0,1,447.3,155.41Zm-3.56.13A139.88,139.88,0,1,0,303.83,295.35,139.84,139.84,0,0,0,443.74,155.54Z" fill="#fef9f9"/><path d="M443.74,155.54A139.88,139.88,0,1,1,304.1,15.59,139.82,139.82,0,0,1,443.74,155.54Zm-2.68,0A137.2,137.2,0,1,0,303.85,292.67,137.14,137.14,0,0,0,441.06,155.49Z" fill="#fe0606"/><path d="M383.39,155.48A79.53,79.53,0,1,1,304,76,79.49,79.49,0,0,1,383.39,155.48ZM250.11,195.76l-.14.11c.08.28.13.56.23.82.25.62.48,1.26.77,1.87a45.16,45.16,0,0,0,17.53,19.27c9.32,5.72,19.58,8.29,30.4,8.85a81.32,81.32,0,0,0,23.52-2.15A50.31,50.31,0,0,0,335.05,220a13.42,13.42,0,0,0,4-3.19c3.12-3.81,2.23-8.35-2.1-10.68a10.09,10.09,0,0,0-1.42-.64,18.43,18.43,0,0,0-8.69-.69,79.61,79.61,0,0,0-10.8,2.34c-7.77,2.11-15.55,4.18-23.66,4.53a56.2,56.2,0,0,1-22.6-3.16,54.47,54.47,0,0,1-17.48-10.89C251.59,197,250.84,196.37,250.11,195.76Zm15.62,6.33c.07.42.38.54.62.71a13.67,13.67,0,0,0,2.76,1.44,49.35,49.35,0,0,0,17.3,3.51,78.27,78.27,0,0,0,29-4.7,48.31,48.31,0,0,0,8.44-3.77,5.59,5.59,0,0,0,1.89-1.6c1.08-1.6.63-3-1.19-3.6a8.43,8.43,0,0,0-3.93-.21,81.62,81.62,0,0,0-12.76,2.82c-9.16,2.61-18.33,5.18-27.89,5.91a51.83,51.83,0,0,1-10.27,0C268.41,202.41,267.1,202.12,265.73,202.09ZM283.34,163l.27-.05c.12.24.25.48.37.73.22.49.31,1.18.69,1.44s.95-.29,1.44-.46.55-.07.56.38c0,1,.08,2,.1,3,0,.34.08.51.48.51,1.69,0,3.38,0,5.06,0,.51,0,.68-.21.68-.7,0-1.07.08-2.13.1-3.2.11-4.54.43-9.08.71-13.62.05-.74-.07-1-.92-1-1.95.08-3.9,0-5.85,0-1.06,0-1.06,0-1,1.1.15,2.73.32,5.45.43,8.18,0,.67.47,1.57-.06,2s-1.4.15-2.13.16c-.58,0-.72-.16-.68-.77.2-3.32.33-6.64.52-10,0-.55-.11-.71-.67-.7-2.34,0-4.68,0-7,0-.64,0-.76.19-.73.79.3,5.71.72,11.41.81,17.13,0,.53.3.58.7.58,1.82,0,3.63,0,5.45,0,.54,0,.72-.15.7-.7C283.32,166.18,283.34,164.57,283.34,163Zm75.58,14.23a2,2,0,0,0-.67.9l-2.66,4.75a22.7,22.7,0,0,1-9.91,9.29c-3.26,1.64-6.39,1.73-9.47-.44a10.71,10.71,0,0,0-4.48-1.9,11.69,11.69,0,0,0-4.49-.09c-.2.05-.46.09-.52.29s.21.39.4.51c.61.39,1.24.74,1.86,1.13a5,5,0,0,1,1.64,7.05c-.39.61-.74,1.25-1.11,1.87-.24.41-.17.59.35.57a24.06,24.06,0,0,1,3.5.15,15.82,15.82,0,0,1,7.42,2.38,9,9,0,0,1,4.23,9.13,12.25,12.25,0,0,0-.32,2.89,3.87,3.87,0,0,0,1.52-1.51,12.26,12.26,0,0,0,1.66-7.32,26.4,26.4,0,0,0-1.25-5.77,6,6,0,0,1,1.21-5.75,29.91,29.91,0,0,1,3.54-3.4,22.62,22.62,0,0,0,7.43-12.49A4.68,4.68,0,0,0,358.92,177.19Zm-22-27.53c-1.2.09-2.65.21-4.1.3-.53,0-.64.24-.6.73.11,1.3.15,2.6.25,3.9.35,4.4.41,8.82.59,13.24,0,.47.12.67.64.73a30.14,30.14,0,0,0,6.3.11c5.31-.46,8.59-4,8.61-9.3,0-3.75-1.33-6.73-4.83-8.48A15.3,15.3,0,0,0,337,149.66Zm-81.11,4.52c-.48-.42-.81-.7-1.13-1-1-.94-2-1.89-3-2.84a1.09,1.09,0,0,0-.82-.37c-1.68,0-3.37,0-5.06,0-.44,0-.5.16-.48.56.33,5.81.82,11.61,1,17.43,0,.44.2.51.57.5.81,0,1.61,0,2.42,0s1-.18.95-1c-.06-1.74,0-3.5,0-5.24l.25-.05,8.91,6.51v-2.61c0-3.2.11-6.39.32-9.58.13-2,.21-3.95.33-5.92,0-.47-.05-.7-.61-.68-1.09.05-2.18,0-3.27,0-.45,0-.58.12-.54.58C255.75,151.69,255.78,152.83,255.84,154.18ZM238,150c-1.85,0-3.7,0-5.54,0-.66,0-.83.16-.79.81.39,5.68.63,11.37.79,17.06,0,.6.32.61.73.61,3.14,0,6.29,0,9.43,0,.43,0,.67-.12.76-.57.17-.83.37-1.67.6-2.49.13-.48,0-.59-.47-.52a22.2,22.2,0,0,1-3.64.34c-.37,0-.59-.05-.54-.51a14.79,14.79,0,0,0,.05-1.63c0-.4.14-.56.55-.53.88.08,1.77.11,2.65.19.33,0,.51,0,.58-.39.14-.82.35-1.62.54-2.43.08-.36,0-.52-.41-.49-.7,0-1.4,0-2.1,0-1.73,0-1.71,0-1.56-1.72,0-.42.17-.54.56-.49,1,.1,2,.16,2.94.29.53.07.72-.06.75-.62.1-2.11.25-4.21.42-6.3,0-.53-.09-.67-.61-.67C241.78,150,239.88,150,238,150Zm82.61,16.31c.36.75.7,1.42,1,2.09.15.32.3.37.58.13a9.76,9.76,0,0,1,1.72-1.19c.83-.44.88-.46,1.09.48.14.57.42.7,1,.68,1.43,0,2.86,0,4.29,0,1.6,0,1.61,0,1.21-1.61-1.34-5.41-2.66-10.83-3.66-16.32-.08-.46-.32-.57-.75-.56-1.87,0-3.74,0-5.61,0-.74,0-1.18.09-1.15,1a5.84,5.84,0,0,1-.2,1.23c-.86,5.07-2.11,10.05-3.37,15-.32,1.27-.3,1.28,1,1.27.7,0,1.53.22,2.06-.08S320.23,167.07,320.6,166.29Zm32.44,0c.37.76.69,1.41,1,2.07.16.36.33.38.64.14a13.26,13.26,0,0,1,1.84-1.3c.48-.26.75-.24.82.36s.48,1,1.22.94c1.66-.06,3.32-.05,5,0,.65,0,.7-.19.57-.76-1.38-5.72-2.86-11.42-3.9-17.21-.08-.41-.23-.54-.65-.54-2,0-4.05,0-6.08,0-.51,0-.69.15-.7.65a10.86,10.86,0,0,1-.22,1.39c-.85,5.09-2.13,10.09-3.39,15.09-.34,1.36-.33,1.36,1.08,1.36a4.94,4.94,0,0,0,1.93-.07c.61-.29.43-1.19.71-1.79Zm-78.47-1.41c-.45.13-.84.26-1.23.36a3.68,3.68,0,0,1-4.72-2.54,4,4,0,0,1,2.76-5.1,7.74,7.74,0,0,1,3.18-.05,2.09,2.09,0,0,0,.05-.32q-.17-3.37-.32-6.77c0-.38-.21-.48-.53-.54a15.44,15.44,0,0,0-4-.09,9.09,9.09,0,0,0-6.07,2.46,9.36,9.36,0,0,0-2.7,8.05c.71,7,6.94,9.69,12.37,8.29a.66.66,0,0,0,.57-.54C274.15,167,274.36,166,274.57,164.87Zm91.84,0c.22,1,.46,1.9.63,2.82a1,1,0,0,0,1,.93,12.88,12.88,0,0,0,3,0,4.57,4.57,0,0,0,4.07-3.82,5,5,0,0,0-.77-3.27,14,14,0,0,1-1.08-2,1.49,1.49,0,0,1,1.51-2.15,2.05,2.05,0,0,1,.7.05c.51.16.54-.09.52-.5-.11-2.13-.22-4.26-.3-6.39,0-.46-.19-.62-.62-.7a14.55,14.55,0,0,0-5.42-.22c-2.36.43-4.31,1.46-5,4a5.83,5.83,0,0,0,1.1,5.22,19,19,0,0,0,2.57,2.5,5.39,5.39,0,0,1,1.28,1.45c.68,1.28.06,2.34-1.37,2.32A17.29,17.29,0,0,1,366.41,164.92Zm-49.88-.07c-1.42.1-2.72.37-4,.42-.6,0-.73-.13-.7-.72.23-4.65.41-9.29.63-13.94,0-.56-.15-.64-.64-.64-2.31,0-4.62,0-6.94,0-.63,0-.78.17-.73.78.18,2.3.35,4.61.45,6.92.15,3.35.24,6.7.35,10.05,0,.35-.07.72.52.72,3.33,0,6.65,0,10,0,.27,0,.43-.06.48-.36C316.09,167.05,316.31,166,316.53,164.85Zm-13.8-5.63c.12-2.86.23-5.72.37-8.57,0-.52-.1-.67-.62-.67-2.34,0-4.68,0-7,0-.54,0-.7.13-.67.69.12,1.9.18,3.79.27,5.69.16,3.82.33,7.63.48,11.45,0,.51.18.66.69.65,1.84,0,3.69,0,5.53,0,.48,0,.61-.14.63-.61C302.48,165,302.61,162.1,302.73,159.22Zm6.16-40.56c.16.3.26.5.36.71.51,1.08.51,1.08,1.48.42.21-.15.45-.26.65-.42.44-.32.73-.21.82.31s.34.59.81.58c1.24,0,2.49,0,3.74,0,.52,0,.65-.09.52-.65-1-4.32-2.12-8.61-2.92-13-.06-.31-.15-.5-.54-.49-1.53,0-3.07,0-4.6,0-.39,0-.53.14-.59.53-.34,2.31-.81,4.6-1.36,6.87-.48,2-1,4.09-1.47,6.13,0,.21-.28.55.21.56a7.59,7.59,0,0,0,2.24-.07c.45-.13.28-.94.56-1.38Zm-25.55,1.8,1.61-1.08c.37-.26.66-.27.76.26s.43.65,1,.64c1.19,0,2.39-.06,3.58,0,.65,0,.73-.18.59-.74q-1.59-6.37-2.89-12.81c-.09-.46-.28-.58-.72-.57-1.45,0-2.91,0-4.36,0-.39,0-.58,0-.64.52a108.75,108.75,0,0,1-2.56,11.69c-.5,1.9-.51,1.87,1.43,1.91.63,0,.94-.14,1-.78.05-.26,0-.62.37-.82Zm46.47-1.76a1.7,1.7,0,0,1,.48.78c.45,1,.44,1,1.3.39.23-.17.47-.32.71-.48.42-.28.76-.34.85.31.07.47.34.6.81.58,1.2,0,2.39,0,3.58,0,.69,0,.82-.16.66-.82q-1.47-6.33-2.86-12.67c-.11-.51-.33-.6-.78-.59-1.4,0-2.8,0-4.21,0-.52,0-.73.16-.81.66a118,118,0,0,1-2.73,12.61c-.18.71,0,.88.7.85C329.23,120.23,329.23,120.27,329.81,118.7Zm-24.43-1.21-.92.29a2.81,2.81,0,0,1-3.64-2A3,3,0,0,1,302.9,112a4.25,4.25,0,0,1,1.77-.13c.56.07.77,0,.72-.67-.11-1.47-.16-3-.2-4.43,0-.52-.26-.65-.72-.71a13.5,13.5,0,0,0-3.42.06c-2.17.34-4.09,1.19-5.13,3.24a7.63,7.63,0,0,0,.31,8.13,7.08,7.08,0,0,0,7.18,3.1c1.38-.15,1.38-.16,1.65-1.53C305.15,118.57,305.26,118.09,305.38,117.49Zm13.68.06c.07.29.11.49.16.68.52,2.33.53,2.34,2.94,2.22a3.47,3.47,0,0,0,3.07-5.35c-.3-.57-.64-1.13-.89-1.73a1.06,1.06,0,0,1,.69-1.48,2.42,2.42,0,0,1,.93,0c.37,0,.5-.05.48-.45-.09-1.61-.15-3.22-.21-4.83,0-.26-.09-.45-.38-.49a13.28,13.28,0,0,0-4.49-.18,4.25,4.25,0,0,0-3.65,3.37,4.68,4.68,0,0,0,1.66,4.47c.67.57,1.32,1.17,1.95,1.79a1.37,1.37,0,0,1,.29,1.65c-.25.55-.78.53-1.28.49S319.56,117.61,319.06,117.55ZM275.94,112h.23c0-1.74,0-3.48,0-5.22,0-.44,0-.65-.57-.64-1.74,0-3.48,0-5.22,0-.53,0-.58.19-.54.65.11,1.29.16,2.59.24,3.89.17,2.93.33,5.86.32,8.8,0,.59.19.8.81.78,1.77,0,3.54,0,5.3,0,.75,0,1.72.32,2.18-.14s.35-1.42.53-2.14c.13-.49-.05-.51-.46-.44-.79.12-1.6.15-2.39.26-.55.08-.72-.08-.69-.65C275.81,115.44,275.86,113.72,275.94,112Zm7.05,23.1c.09,1.91.2,3.44.22,5,0,.61.2.88.81.92a14.82,14.82,0,0,0,3.88-.13,4.89,4.89,0,0,0,4.17-5.14,5,5,0,0,0-4.11-5.28,15.52,15.52,0,0,0-4.81-.06c-.45,0-.4.28-.39.58C282.85,132.47,282.93,134,283,135.11Zm16.53,3.75c-.63,0-1.27.07-1.91.16s-.72-.15-.7-.71.11-.84.73-.72a5.75,5.75,0,0,0,.93,0c.2,0,.46.09.51-.21a6.12,6.12,0,0,0,.24-1.59s-.24,0-.37,0l-1.48,0c-.17,0-.34,0-.41-.22-.19-.7.07-1,.79-1,.33,0,.68,0,1,.06s.6,0,.62-.5c0-1,.12-2.08.23-3.11.06-.53-.1-.65-.61-.65-2,0-3.9,0-5.85,0-.63,0-.71.19-.68.75q.26,4.59.43,9.19c0,.46.18.55.6.54,1.22,0,2.44,0,3.66,0,1.92,0,1.92,0,2.29-1.91C299.56,139,299.54,138.93,299.52,138.86Zm12.94,1c.68,1.12.69,1.13,1.64.53.4-.26.76-.44.87.25.06.33.31.28.54.28.88,0,1.77,0,2.65,0,.55,0,.63-.13.51-.66-.75-3.12-1.62-6.22-2.12-9.39-.06-.38-.26-.44-.59-.43-1,0-2,0-3,0-.54,0-.71.2-.79.69-.43,2.79-1.09,5.54-1.78,8.28-.47,1.86-.58,1.44,1.2,1.51C312.44,140.91,312.06,140.11,312.46,139.82Zm-55.18,35.1h4.61l20.05,0c.49,0,.83,0,.79-.67s-.45-.45-.76-.45H257l-24.26,0c-.49,0-.83,0-.79.67s.46.44.76.44Zm93.33,0v0q12.28,0,24.56,0c.61,0,.84-.14.77-.77s-.55-.36-.83-.36l-45.39,0c-1.28,0-2.55,0-3.83,0-.36,0-.47.11-.5.48-.06.62.24.65.73.65Zm-30.53-36c.29,2.21.68,2.48,2.83,2a4,4,0,0,0,.52-.15,2.33,2.33,0,0,0,1.46-3,9.43,9.43,0,0,0-.75-1.53c-.53-1-.22-1.54.89-1.55.39,0,.5-.09.48-.47-.07-1.09-.11-2.18-.15-3.27a.59.59,0,0,0-.55-.63,7.42,7.42,0,0,0-3.77.18,2.92,2.92,0,0,0-2,3.42,4,4,0,0,0,1.54,2.45,5.38,5.38,0,0,1,1.26,1.26A.83.83,0,0,1,321,139C320.69,139,320.39,138.8,320.08,138.9Zm-16.69-3.34h.16c0,1.48,0,3,0,4.44,0,.66.16.94.91.89,1.26-.07,2.54,0,3.81,0,1.63,0,1.61,0,1.8-1.62,0-.37-.06-.45-.4-.4s-.93.09-1.38.17c-.67.13-.86-.13-.82-.78.13-2.26.2-4.52.32-6.77.06-1.07.09-1.07-1-1.07s-2.08,0-3.12,0c-.44,0-.57.1-.54.57C303.23,132.49,303.3,134,303.39,135.56Zm-5.87,38.8h0c0,.36,0,.72,0,1.09,0,2.13,0,2.13,2.22,2a2.78,2.78,0,0,0,2.73-2.67,2.82,2.82,0,0,0-2.27-3.16,9.5,9.5,0,0,0-2.32-.09c-.45,0-.57.2-.53.63C297.45,172.85,297.47,173.61,297.52,174.36Zm-13.62,0H284c0,.36,0,.72,0,1.08.05,2.09.05,2.09,2.14,1.94a2.74,2.74,0,0,0,2.77-2.61,2.78,2.78,0,0,0-2.26-3.22,8.77,8.77,0,0,0-2.4-.08c-.39,0-.46.21-.43.56C283.83,172.82,283.86,173.6,283.9,174.38Zm9.09,1.88c-.33,0-.61,0-.9,0s-.51.1-.51-.35.17-.47.52-.45.56.19.71-.23c.27-.76-.11-.82-.7-.74-.22,0-.48.07-.48-.31s.22-.47.5-.39c.83.25,1-.17.91-.86a4.23,4.23,0,0,1,.08-.93c.05-.36,0-.52-.44-.51-1,0-2,0-3,0-.39,0-.47.14-.45.51.09,1.58.17,3.16.22,4.74,0,.42.1.61.56.58a11.68,11.68,0,0,1,1.87,0C292.66,177.45,293.05,177.16,293,176.26Zm13.59.05c-.35,0-.71,0-1.07,0s-.34-.14-.32-.38,0-.44.3-.42a1.7,1.7,0,0,1,.39,0c.65.14.57-.39.61-.73s-.34-.21-.54-.26a1.1,1.1,0,0,0-.31,0c-.23,0-.41,0-.39-.35s.11-.44.38-.36c1.06.33,1-.36,1-1.06a4.15,4.15,0,0,1,.07-.7c.07-.4-.07-.56-.49-.54q-1.49,0-3,0c-.39,0-.48.12-.46.5.08,1.61.15,3.22.19,4.83,0,.36.12.51.5.5a13.62,13.62,0,0,1,2,0C306.38,177.46,306.63,177.07,306.58,176.31Zm9.84-1.94a3.81,3.81,0,0,0-.4-1.85,2,2,0,0,0-3.43-.07,4.22,4.22,0,0,0,.43,4.39,1.61,1.61,0,0,0,2.51,0A3.76,3.76,0,0,0,316.42,174.37ZM297,172.83c-.11-1.46-.24-1.56-1.69-1.42l-.15,0a1.74,1.74,0,0,0-1.63,1.13,1.9,1.9,0,0,0,.55,2.06c.27.24.55.48.81.73a.63.63,0,0,1,.15.72c-.09.22-.32.22-.53.23s-.48-.16-.41.23,0,.76.39.83a1.92,1.92,0,0,0,1.94-.47,1.4,1.4,0,0,0,0-1.8,5.77,5.77,0,0,1-.29-.55c-.1-.24,0-.57.2-.58C297.34,173.92,297,173.27,297,172.83Zm22.71,3.59c.52,0,.91,0,1.3,0s.85,0,.76.61c0,.28.18.36.4.32.5-.07,1.31.37,1.21-.72,0-.2.21-.17.35-.21.31-.1.27-.41.34-.65s0-.26-.19-.24c-.63.09-.48-.34-.47-.69a20.65,20.65,0,0,1,.08-2.49c.16-1.06-.54-.75-1.08-.81s-.91.14-.77.8c.09.44,0,.79-.57.69-.21,0-.43,0-.41.3A6.7,6.7,0,0,1,319.71,176.42Zm-9.48-.13c.33-.46.58-.79.81-1.12a4.59,4.59,0,0,0,.79-1.67,1.64,1.64,0,0,0-1.33-2c-1.28-.23-1.63,0-1.79,1.28,0,.16,0,.31-.06.46s0,.4.37.37c.56-.06.77.3.75.83a4.9,4.9,0,0,1-.75,2c-.42.78-.34.91.57.92a10.26,10.26,0,0,1,1.24,0c.71.08.69-.51.71-.87,0-.52-.41-.13-.63-.19A2.88,2.88,0,0,0,310.23,176.29Zm9-1.93h.12c0-.81,0-1.61,0-2.41,0-.56-.2-.71-.7-.46l-1.54.74c-.45.21-.58,1.25-.15,1.33.81.15.5.68.53,1.08a15.91,15.91,0,0,1,.05,2.18c0,.66.39.58.76.53s1,.32.93-.5S319.27,175.19,319.27,174.36Z" fill="#fefdfd"/><path d="M211.12,225c1.27,1.07,2.56,2.09,3.78,3.19A93.93,93.93,0,0,0,245.06,247c12.59,4.74,25.64,6,39,5.45,14-.61,27.41-4.18,40.82-7.82a134.24,134.24,0,0,1,18.62-4c5.08-.63,10.12-.59,15,1.19a17.91,17.91,0,0,1,2.45,1.09c7.47,4,9,11.87,3.62,18.44a23.13,23.13,0,0,1-6.9,5.5c-6.84,3.79-14.25,6-21.79,7.82a139.91,139.91,0,0,1-40.57,3.72c-18.67-1-36.37-5.4-52.45-15.27a77.88,77.88,0,0,1-30.24-33.25c-.5-1.05-.9-2.14-1.32-3.23-.17-.45-.27-.93-.4-1.4Z" fill="#fe0101"/><path d="M238.07,235.89c2.37.05,4.63.56,6.92.83a89.68,89.68,0,0,0,17.72.06c16.49-1.27,32.31-5.69,48.12-10.21a142.56,142.56,0,0,1,22-4.86,14.54,14.54,0,0,1,6.78.37c3.15,1.12,3.92,3.45,2.06,6.22a9.58,9.58,0,0,1-3.26,2.74,82.51,82.51,0,0,1-14.56,6.5,134.5,134.5,0,0,1-50.1,8.11,85.17,85.17,0,0,1-29.85-6,24.15,24.15,0,0,1-4.75-2.49C238.73,236.83,238.2,236.62,238.07,235.89Z" fill="#fe0202"/><path d="M268.46,168.39c0,2.78,0,5.55,0,8.33,0,.95-.28,1.22-1.21,1.21-3.14-.05-6.28,0-9.42,0-.68,0-1.17-.08-1.19-1-.17-9.86-.88-19.7-1.41-29.55-.05-1,.16-1.38,1.27-1.36,4,.07,8.08.05,12.11,0,1,0,1.2.26,1.15,1.21-.32,5.73-.55,11.46-.9,17.19-.06,1,.18,1.33,1.18,1.31,1.26,0,2.8.42,3.68-.26s.14-2.26.09-3.43c-.18-4.7-.48-9.4-.73-14.1-.11-1.9-.11-1.9,1.72-1.9,3.37,0,6.73.1,10.09,0,1.47-.06,1.67.45,1.6,1.73-.49,7.83-1,15.65-1.23,23.5,0,1.84-.16,3.67-.18,5.51,0,.84-.28,1.22-1.16,1.21-2.92,0-5.83,0-8.75,0-.68,0-.81-.29-.82-.89,0-1.7-.15-3.4-.17-5.1,0-.78-.27-.91-1-.67-.85.3-1.75,1.32-2.5.8s-.8-1.63-1.19-2.49c-.19-.43-.42-.84-.63-1.26Z" fill="#fe0303"/><path d="M398.85,192.94a8.07,8.07,0,0,1-.22,3.86,39,39,0,0,1-12.82,21.55,51.85,51.85,0,0,0-6.09,5.86,10.26,10.26,0,0,0-2.09,9.92,46.45,46.45,0,0,1,2.15,10,21.15,21.15,0,0,1-2.87,12.63,6.64,6.64,0,0,1-2.62,2.61,21.74,21.74,0,0,1,.55-5c.92-6.81-1.8-12-7.3-15.76-3.82-2.62-8.24-3.59-12.79-4.09a40.59,40.59,0,0,0-6-.27c-.9,0-1-.27-.6-1,.64-1.08,1.24-2.18,1.92-3.23,3.3-5.16.51-10-2.85-12.16-1.06-.67-2.15-1.27-3.21-1.95-.31-.2-.82-.41-.67-.89.1-.33.55-.41.9-.48a20.16,20.16,0,0,1,7.74.15,18.47,18.47,0,0,1,7.73,3.28c5.31,3.73,10.71,3.58,16.34.75a39.2,39.2,0,0,0,17.09-16c1.54-2.73,3-5.47,4.59-8.2A3.46,3.46,0,0,1,398.85,192.94Z" fill="#0b8f1a"/><path d="M361,145.45c4.35,0,8.23.33,11.82,2.12,6,3,8.38,8.16,8.35,14.63-.05,9.18-5.71,15.24-14.87,16.05a52.66,52.66,0,0,1-10.87-.2c-.88-.11-1.06-.45-1.09-1.26-.32-7.62-.43-15.24-1-22.85-.17-2.23-.23-4.48-.42-6.71-.07-.85.12-1.22,1-1.27C356.37,145.82,358.87,145.6,361,145.45Zm5.51,20.17h-.27c0,1.79.07,3.59,0,5.37-.06,1.08.38,1.17,1.23,1a6.49,6.49,0,0,0,5.24-6.15c.36-4-1.39-6.32-5-6.72-.75-.08-1.26-.07-1.21,1C366.52,162,366.46,163.78,366.46,165.62Z" fill="#fe0202"/><path d="M221,153.24c-.12-2.32-.17-4.29-.32-6.25-.07-.79.16-1,.93-1,1.88,0,3.77.06,5.65,0,1,0,1.1.35,1.05,1.18-.21,3.4-.34,6.8-.57,10.2-.36,5.5-.53,11-.55,16.53,0,1.38,0,2.76,0,4.5l-15.37-11.22-.43.07c0,3-.07,6,0,9.06.05,1.32-.38,1.72-1.65,1.64s-2.78-.05-4.17,0c-.63,0-1-.1-1-.87-.31-10-1.15-20-1.73-30.06,0-.69.08-1,.83-1,2.91,0,5.83,0,8.74,0a1.92,1.92,0,0,1,1.41.64c1.71,1.64,3.44,3.27,5.17,4.9C219.61,152,220.19,152.51,221,153.24Z" fill="#fe0202"/><path d="M190.21,146c3.28,0,6.55,0,9.82,0,.91,0,1.13.24,1.05,1.14-.29,3.62-.54,7.24-.72,10.87-.05,1-.37,1.2-1.29,1.08-1.69-.23-3.39-.33-5.08-.51-.67-.08-.9.12-1,.84-.26,3-.29,3,2.69,3,1.21,0,2.42,0,3.63-.06.71,0,.84.24.7.85-.33,1.4-.69,2.79-.94,4.2-.12.69-.43.71-1,.66-1.51-.14-3-.19-4.56-.32-.71-.06-1,.22-1,.9a24.33,24.33,0,0,1-.09,2.83c-.08.78.29.86.93.87a37.72,37.72,0,0,0,6.28-.59c.82-.12,1,.07.81.9-.39,1.42-.74,2.86-1,4.31-.16.77-.57,1-1.31,1-5.42,0-10.85,0-16.27,0-.7,0-1.23,0-1.26-1.06-.28-9.81-.68-19.63-1.35-29.42-.08-1.13.22-1.44,1.35-1.41C183.84,146.05,187,146,190.21,146Z" fill="#fe0303"/><path d="M332.73,174.13c-.63,1.35-.34,3-1.37,3.61s-2.36.14-3.57.15c-2.27,0-2.3,0-1.74-2.21,2.17-8.59,4.33-17.18,5.81-25.92a10.51,10.51,0,0,0,.34-2.12c-.06-1.5.71-1.69,2-1.66,3.22.08,6.45,0,9.68,0,.74,0,1.14.18,1.29,1,1.73,9.47,4,18.82,6.31,28.15.69,2.77.68,2.78-2.09,2.78-2.46,0-4.93-.05-7.39,0-.94,0-1.43-.19-1.66-1.19-.37-1.6-.45-1.58-1.88-.82a16.64,16.64,0,0,0-3,2.06c-.47.4-.74.32-1-.23C333.93,176.58,333.36,175.43,332.73,174.13Zm3.39-10.38a61.78,61.78,0,0,0-2.7,7.56c-.23.73.25.74.73.67,1.36-.23,2.72-.52,4.09-.7.73-.1.72-.35.54-1A54.22,54.22,0,0,0,336.12,163.75Z" fill="#fe0303"/><path d="M388.7,174.11l-.28.58c-.48,1-.17,2.59-1.23,3.09s-2.2.11-3.32.11c-2.44,0-2.46,0-1.86-2.34,2.17-8.63,4.38-17.25,5.85-26a19.45,19.45,0,0,0,.37-2.39c0-.86.34-1.14,1.21-1.13,3.5,0,7,0,10.49,0,.72,0,1,.21,1.12.92,1.8,10,4.35,19.83,6.73,29.7.23,1,.15,1.34-1,1.31-2.87-.08-5.74-.09-8.6,0-1.28,0-2-.36-2.1-1.62-.12-1-.6-1.08-1.42-.62a22.94,22.94,0,0,0-3.18,2.23c-.53.43-.82.38-1.1-.24C389.88,176.55,389.33,175.43,388.7,174.11Zm3.35-10.36a44.22,44.22,0,0,0-2.68,7.8c-.15.59.41.46.72.41,1.32-.2,2.63-.5,4-.65.86-.1.87-.52.66-1.15A44.57,44.57,0,0,0,392.05,163.75Z" fill="#fe0303"/><path d="M253.32,171.69c-.36,1.94-.72,3.73-1,5.52a1.15,1.15,0,0,1-1,.95c-9.37,2.41-20.11-2.31-21.33-14.3-.54-5.33.75-10.05,4.65-13.89a15.72,15.72,0,0,1,10.47-4.25,26.55,26.55,0,0,1,6.84.16c.55.11.89.27.91.92.17,3.9.37,7.8.55,11.7a2.82,2.82,0,0,1-.08.54,13.53,13.53,0,0,0-5.49.08,6.93,6.93,0,0,0-4.76,8.8c1,3.55,4.37,5.38,8.14,4.38C251.88,172.13,252.54,171.91,253.32,171.69Z" fill="#fe0202"/><path d="M411.76,171.78c1.19.13,2.25.35,3.31.36,2.48,0,3.54-1.8,2.37-4a9.47,9.47,0,0,0-2.21-2.51,32.22,32.22,0,0,1-4.44-4.3,10,10,0,0,1-1.88-9c1.14-4.36,4.51-6.14,8.58-6.87a25,25,0,0,1,9.36.37c.73.15,1,.42,1.07,1.22.13,3.67.32,7.34.51,11,0,.71,0,1.13-.9.85a4,4,0,0,0-1.21-.09c-2.2,0-3.33,1.63-2.59,3.73a22.49,22.49,0,0,0,1.85,3.41,8.67,8.67,0,0,1,1.34,5.65,7.88,7.88,0,0,1-7,6.57,21.87,21.87,0,0,1-5.24.06,1.78,1.78,0,0,1-1.81-1.61C412.56,175.05,412.15,173.49,411.76,171.78Z" fill="#fe0202"/><path d="M325.71,171.65c-.38,2-.75,3.79-1.09,5.63-.1.51-.37.62-.84.62-5.74,0-11.47-.07-17.21-.06-1,0-.88-.64-.9-1.25-.19-5.77-.34-11.55-.6-17.33-.18-4-.47-8-.78-11.94-.08-1,.17-1.36,1.26-1.34,4,.06,8,0,12,0,.84,0,1.15.14,1.11,1.1-.39,8-.7,16-1.09,24-.05,1,.16,1.29,1.2,1.25C321,172.29,323.27,171.82,325.71,171.65Z" fill="#fe0303"/><path d="M301.9,161.93c-.2,5-.42,9.95-.58,14.92,0,.82-.25,1.08-1.08,1.06-3.19,0-6.37-.06-9.56,0-.86,0-1.15-.24-1.18-1.12-.25-6.59-.55-13.17-.83-19.76-.15-3.27-.25-6.54-.46-9.81-.06-1,.22-1.21,1.16-1.2q6,.07,12.1,0c.9,0,1.13.25,1.08,1.15C302.29,152.08,302.11,157,301.9,161.93Z" fill="#fe0303"/><path d="M312.54,92c-.12.17-.14.21-.17.24-.48.77-.19,2.17-1,2.39a13.11,13.11,0,0,1-3.87.12c-.84,0-.43-.61-.35-1q1.26-5.3,2.54-10.57c.94-3.92,1.76-7.86,2.34-11.85.1-.67.34-.93,1-.92,2.65,0,5.3,0,7.94,0,.67,0,.83.31.93.85,1.39,7.53,3.34,14.93,5,22.39.22,1,0,1.14-.9,1.11-2.15-.06-4.31-.07-6.46,0-.79,0-1.25-.17-1.39-1s-.65-1.09-1.4-.53c-.36.27-.77.46-1.14.72-1.66,1.14-1.66,1.14-2.54-.72C313,92.83,312.8,92.48,312.54,92Zm2.47-8c-.48,1.26-.87,2.21-1.2,3.17a11.34,11.34,0,0,0-.85,3,9.75,9.75,0,0,0,3.64-.46c.31-.08.71-.1.54-.54A24.93,24.93,0,0,0,315,83.94Z" fill="#fe0202"/><path d="M268.45,95.06,267,92c-.58.35-.56,1-.64,1.41-.17,1.11-.71,1.38-1.79,1.35-3.36-.08-3.34,0-2.48-3.3a185.26,185.26,0,0,0,4.41-20.16c.12-.81.44-.91,1.11-.9,2.51,0,5,0,7.53,0,.75,0,1.08.19,1.24,1q2.24,11.12,5,22.11c.23,1,.1,1.33-1,1.27-2.06-.1-4.12-.08-6.18,0-.89,0-1.48-.16-1.64-1.09s-.66-.9-1.31-.46Zm1-11a36.47,36.47,0,0,0-1.93,5.22c-.09.3-.33.68.14.92a12.45,12.45,0,0,0,3.68-.57c.24-.22.17-.5.11-.75A16.91,16.91,0,0,0,269.42,84Z" fill="#fe0202"/><path d="M348.62,92c-1,2.7-1,2.64-4,2.73-1.25,0-1.53-.26-1.21-1.48a203.91,203.91,0,0,0,4.71-21.75c.13-.87.5-1.17,1.4-1.14,2.42.08,4.84.08,7.26.06.78,0,1.15.14,1.35,1q2.38,10.94,4.93,21.85c.27,1.14.06,1.47-1.13,1.42-2.06-.08-4.13-.06-6.18,0-.81,0-1.29-.2-1.4-1-.16-1.12-.75-1-1.47-.53-.41.27-.83.54-1.22.83-1.49,1.1-1.48,1.1-2.24-.67A2.86,2.86,0,0,0,348.62,92Zm2.6-8a28.18,28.18,0,0,0-2,5.49c-.15.56.12.73.63.65,1-.16,1.93-.37,2.9-.49.62-.07.62-.43.48-.83A22.71,22.71,0,0,0,351.22,84Z" fill="#fe0202"/><path d="M306.48,90c-.22,1-.39,1.86-.56,2.69-.46,2.35-.46,2.37-2.84,2.64-5.14.56-9.46-1-12.38-5.35s-2.95-9.31-.54-14c1.8-3.54,5.11-5,8.85-5.58a22,22,0,0,1,5.9-.1c.8.09,1.21.32,1.23,1.21.07,2.56.16,5.11.36,7.66.09,1.09-.28,1.27-1.25,1.15a7.22,7.22,0,0,0-3.06.22A5.15,5.15,0,0,0,298.6,87c.74,2.8,3.3,4.21,6.29,3.44C305.36,90.32,305.83,90.15,306.48,90Z" fill="#fe0202"/><path d="M330.08,90.05c.86.1,1.52.19,2.18.24.87.07,1.78.1,2.22-.84a2.39,2.39,0,0,0-.5-2.85c-1.08-1.07-2.22-2.1-3.37-3.09a8.11,8.11,0,0,1-2.86-7.71c.41-2.93,2.86-5.09,6.29-5.81,2.62-.54,5.17,0,7.75.31.51.07.63.39.65.85.11,2.77.22,5.55.37,8.33,0,.68-.19.84-.84.76a4.77,4.77,0,0,0-1.6,0,1.84,1.84,0,0,0-1.18,2.57c.43,1,1,2,1.53,3,2.37,4.56-.16,9-5.3,9.23-4.14.22-4.17.2-5.07-3.82C330.27,90.89,330.2,90.54,330.08,90.05Z" fill="#fe0202"/><path d="M255.69,80.49c-.13,3-.23,5.91-.42,8.86-.07,1,.24,1.26,1.17,1.14,1.37-.19,2.76-.26,4.13-.46.72-.11,1-.08.8.75-.31,1.26-.15,2.92-.92,3.7s-2.47.22-3.76.24c-3.05,0-6.09,0-9.14,0-1.08,0-1.41-.33-1.41-1.35,0-5.06-.25-10.12-.55-15.18-.13-2.23-.22-4.47-.41-6.71-.06-.79,0-1.13.94-1.11,3,0,6,.06,9,0,.91,0,1,.34,1,1.1,0,3,0,6,0,9Z" fill="#fe0303"/><path d="M267.86,120.35c-.11-2-.25-4.55-.4-7.15,0-.51-.11-.92.66-1a27.17,27.17,0,0,1,8.3.1c4.54,1,7.11,4.29,7.09,9.11s-2.59,7.91-7.18,8.86a25.07,25.07,0,0,1-6.7.23c-1.06-.06-1.39-.52-1.4-1.58C268.19,126.27,268,123.63,267.86,120.35Zm7.33,3h-.06c0,.4-.06.8-.08,1.2s-.05.81-.06,1.21c0,1.39.1,1.49,1.39,1a3.87,3.87,0,0,0,2.31-4,3.07,3.07,0,0,0-2.19-3c-.89-.27-1.39-.16-1.32.93C275.24,121.56,275.19,122.46,275.19,123.35Z" fill="#fe0303"/><path d="M296.37,126.81a.86.86,0,0,1,.06.2c-.65,3.29-.65,3.29-4,3.28-2.1,0-4.21,0-6.32,0-.72,0-1-.15-1-.94-.21-5.29-.45-10.57-.75-15.86-.05-1,.09-1.32,1.18-1.29,3.36.08,6.72.06,10.09,0,.88,0,1.16.21,1.06,1.11-.2,1.79-.33,3.58-.4,5.37,0,.8-.35,1-1.07.87s-1.17-.06-1.75-.11c-1.24-.1-1.68.47-1.36,1.68.13.45.42.38.72.38.85,0,1.7,0,2.55,0,.22,0,.63,0,.63.08a10.7,10.7,0,0,1-.41,2.75c-.08.51-.54.36-.87.36a8.75,8.75,0,0,1-1.62-.06c-1.07-.19-1.23.3-1.26,1.25s.16,1.39,1.22,1.23S295.29,126.9,296.37,126.81Z" fill="#fe0303"/><path d="M318.69,128.46c-.69.51,0,1.89-1.43,1.84-3.06-.12-2.88.61-2.07-2.61,1.19-4.73,2.33-9.46,3.07-14.29.13-.84.43-1.22,1.37-1.18,1.69.07,3.4,0,5.1,0,.57,0,.91.09,1,.74.86,5.48,2.37,10.82,3.65,16.21.22.91.07,1.18-.88,1.13-1.52-.06-3,0-4.57,0-.39,0-.83.08-.92-.49-.21-1.19-.82-.87-1.51-.43C319.88,130.42,319.87,130.41,318.69,128.46Zm1.78-6.08c-.48,1.34-.89,2.5-1.29,3.66-.1.29-.24.79.11.81a4.37,4.37,0,0,0,2.59-.39c.58-.36,0-1-.14-1.55A6.28,6.28,0,0,0,320.47,122.38Z" fill="#fe0303"/><path d="M223.51,189q-21.21,0-42.4,0c-.52,0-1.24.36-1.31-.76s.52-1.15,1.36-1.15q20.93,0,41.86,0,21.54,0,43.07,0c.54,0,1.25-.34,1.31.78s-.51,1.16-1.36,1.16q-17.3,0-34.59,0c-2.65,0-5.3,0-7.94,0Z" fill="#fe0404"/><path d="M384.5,189q-21.12,0-42.25,0c-.83,0-1.36,0-1.26-1.12.07-.64.24-.83.88-.82,2.2,0,4.39,0,6.59,0q39.15,0,78.31,0c.49,0,1.31-.49,1.44.62s-.28,1.32-1.33,1.32c-14.12,0-28.25,0-42.38,0Z" fill="#fe0404"/><path d="M331.84,126.89c.54-.18,1.05.11,1.58.1s1.2,0,1.55-.59a1.61,1.61,0,0,0-.13-1.78,9.55,9.55,0,0,0-2.17-2.18,6.91,6.91,0,0,1-2.66-4.21,5,5,0,0,1,3.49-5.91A12.68,12.68,0,0,1,340,112a1,1,0,0,1,.95,1.09c.06,1.88.13,3.77.25,5.65,0,.65-.15.81-.81.81-1.93,0-2.46.94-1.55,2.66a16.17,16.17,0,0,1,1.3,2.64,4,4,0,0,1-2.52,5.21,6.66,6.66,0,0,1-.9.26C333,131.16,332.35,130.69,331.84,126.89Z" fill="#fe0303"/><path d="M303.05,121.11c-.15-2.64-.27-5.28-.48-7.92-.06-.79.16-1,.92-1,1.79,0,3.59,0,5.38,0s1.85,0,1.75,1.83c-.21,3.9-.34,7.8-.56,11.69-.06,1.12.26,1.57,1.41,1.35.79-.14,1.6-.18,2.4-.3.58-.08.75,0,.68.7-.32,2.78-.29,2.78-3.1,2.78-2.19,0-4.39-.09-6.58,0-1.28.08-1.59-.4-1.56-1.55.05-2.55,0-5.1,0-7.66Z" fill="#fe0303"/><path d="M292.92,188.05c-.08-1.29-.13-2.59-.25-3.88-.07-.74.14-1.09.92-1.08a16.32,16.32,0,0,1,4,.16,5.1,5.1,0,0,1-.8,10.05c-3.76.32-3.76.32-3.83-3.37,0-.63,0-1.25,0-1.88Zm4,1.41h-.07c0,.32,0,.63,0,.94s-.16.68.12.87.69-.06,1-.24a2.31,2.31,0,0,0,.58-3.09,1.28,1.28,0,0,0-1.28-.56c-.55.12-.26.66-.32,1A7.49,7.49,0,0,0,296.88,189.46Z" fill="#fe0404"/><path d="M269.42,188.08c-.07-1.34-.11-2.68-.21-4,0-.59.08-.95.75-1a16,16,0,0,1,4.14.14A4.79,4.79,0,0,1,278,188.8a4.74,4.74,0,0,1-4.78,4.51c-3.6.25-3.61.25-3.69-3.35,0-.62,0-1.25,0-1.88Zm4,1.3h0a3.25,3.25,0,0,0,0,.54c.11.47-.34,1.25.28,1.37a1.52,1.52,0,0,0,1.52-1.1,2.3,2.3,0,0,0-.09-2.19,1.29,1.29,0,0,0-1.25-.63c-.69.1-.35.7-.42,1.08A4.81,4.81,0,0,0,273.38,189.38Z" fill="#fe0404"/><path d="M285.1,191.34c.11,1.55-.56,2-2,1.9a18.22,18.22,0,0,0-3.22,0c-.8.05-1-.27-1-1-.08-2.73-.21-5.45-.37-8.18,0-.64.11-.89.78-.88,1.74,0,3.49,0,5.24,0,.68,0,.85.27.75.89a6.74,6.74,0,0,0-.13,1.61c.1,1.18-.14,1.9-1.57,1.48-.49-.15-.85,0-.86.66s.44.59.83.54c1-.13,1.68,0,1.21,1.27-.27.73-.8.42-1.23.4-.6,0-.88.1-.9.79s.46.61.89.6S284.53,191.36,285.1,191.34Z" fill="#fe0a0a"/><path d="M308.55,191.42c.08,1.31-.36,2-1.82,1.82a25.53,25.53,0,0,0-3.5,0c-.65,0-.84-.22-.85-.85q-.12-4.17-.34-8.34c0-.64.13-.88.8-.86,1.7,0,3.41,0,5.11,0,.74,0,1,.25.85.94a7,7,0,0,0-.12,1.21c0,1.2.07,2.4-1.77,1.82-.46-.14-.62.21-.65.62s.27.6.67.6a2,2,0,0,1,.54,0c.34.08,1-.35.92.45-.07.57.07,1.49-1.06,1.25a3.7,3.7,0,0,0-.67,0c-.56,0-.49.37-.51.72s0,.7.55.67S307.94,191.42,308.55,191.42Z" fill="#fe0a0a"/><path d="M325.53,188.07A6.47,6.47,0,0,1,324,192.3a2.77,2.77,0,0,1-4.33,0,7.27,7.27,0,0,1-.73-7.56,3.34,3.34,0,0,1,5.91.11A6.64,6.64,0,0,1,325.53,188.07Zm-4.62,1.23c.08.88,0,2,1,2s.9-1.08.93-1.84a4.32,4.32,0,0,0-.17-1.18.77.77,0,0,0-.76-.64.84.84,0,0,0-.85.71A6.29,6.29,0,0,0,320.91,189.3Z" fill="#fe0606"/><path d="M292,185.42c0,.76.59,1.88-1.06,2-.42,0-.52.58-.35,1a8.6,8.6,0,0,0,.5.95,2.43,2.43,0,0,1-.07,3.1,3.35,3.35,0,0,1-3.36.82c-.72-.12-.57-.92-.67-1.45s.43-.36.72-.38.76,0,.91-.41a1.09,1.09,0,0,0-.27-1.24c-.45-.43-.93-.83-1.39-1.26A3.25,3.25,0,0,1,286,185a3,3,0,0,1,2.81-1.94l.26,0C291.6,182.72,291.82,182.9,292,185.42Z" fill="#fe0606"/><path d="M331.2,191.6c.85-1.81,1.73-3.43,1.64-5.34,0-.54.35-.58.71-.52,1,.17,1.13-.43,1-1.19-.24-1.14.22-1.51,1.33-1.38.93.1,2.15-.43,1.88,1.41a34,34,0,0,0-.15,4.29c0,.6-.27,1.35.82,1.19.29,0,.39.18.32.42-.12.41-.05.94-.59,1.11-.24.07-.63,0-.6.37.17,1.88-1.23,1.11-2.08,1.24-.39.06-.77-.07-.7-.56.16-1.13-.55-1.08-1.31-1S332.1,191.6,331.2,191.6Zm3.52-3.39a3.17,3.17,0,0,0-.84,1.77c.17,0,.39.13.5.06C335.08,189.56,334.57,188.88,334.72,188.21Z" fill="#fe0a0a"/><path d="M314.85,191.38a4.72,4.72,0,0,1,1.17,0c.37.11,1.15-.56,1.09.33,0,.62,0,1.63-1.23,1.5-.71-.08-1.43,0-2.14,0-1.58,0-1.71-.23-1-1.58a8.24,8.24,0,0,0,1.28-3.49c0-.91-.31-1.53-1.28-1.44-.62.07-.71-.12-.63-.62,0-.26.06-.53.1-.8.26-2.18.86-2.61,3.08-2.2a2.84,2.84,0,0,1,2.3,3.49,8.14,8.14,0,0,1-1.37,2.88C315.84,190,315.42,190.59,314.85,191.38Z" fill="#fe0a0a"/><path d="M330.44,188.05c0,1.44,0,2.87,0,4.3s-1,.78-1.61.86-1.37.22-1.32-.91a27.77,27.77,0,0,0-.08-3.76c-.05-.68.49-1.61-.92-1.86-.74-.13-.51-1.93.26-2.3s1.78-.84,2.66-1.28,1.23-.17,1.21.79c0,1.39,0,2.78,0,4.16Z" fill="#fe0a0a"/><path d="M366.46,165.62c0-1.84.06-3.67,0-5.51-.05-1,.46-1.05,1.21-1,3.6.4,5.35,2.75,5,6.72a6.49,6.49,0,0,1-5.24,6.15c-.85.15-1.29.06-1.23-1,.1-1.78,0-3.58,0-5.37Z" fill="#fef9f9"/><path d="M336.12,163.75a54.22,54.22,0,0,1,2.66,6.57c.18.61.19.86-.54,1-1.37.18-2.73.47-4.09.7-.48.07-1,.06-.73-.67A61.78,61.78,0,0,1,336.12,163.75Z" fill="#fef7f7"/><path d="M392.05,163.75a44.57,44.57,0,0,1,2.66,6.41c.21.63.2,1.05-.66,1.15-1.33.15-2.64.45-4,.65-.31,0-.87.18-.72-.41A44.22,44.22,0,0,1,392.05,163.75Z" fill="#fef7f7"/><path d="M315,83.94a24.93,24.93,0,0,1,2.13,5.2c.17.44-.23.46-.54.54a9.75,9.75,0,0,1-3.64.46,11.34,11.34,0,0,1,.85-3C314.14,86.15,314.53,85.2,315,83.94Z" fill="#fef7f7"/><path d="M269.42,84a16.91,16.91,0,0,1,2,4.82c.06.25.13.53-.11.75a12.45,12.45,0,0,1-3.68.57c-.47-.24-.23-.62-.14-.92A36.47,36.47,0,0,1,269.42,84Z" fill="#fef7f7"/><path d="M351.22,84a22.71,22.71,0,0,1,2,4.82c.14.4.14.76-.48.83-1,.12-1.93.33-2.9.49-.51.08-.78-.09-.63-.65A28.18,28.18,0,0,1,351.22,84Z" fill="#fef7f7"/><path d="M275.19,123.35c0-.89.05-1.79,0-2.68-.07-1.09.43-1.2,1.32-.93a3.07,3.07,0,0,1,2.19,3,3.87,3.87,0,0,1-2.31,4c-1.29.49-1.43.39-1.39-1,0-.4,0-.81.06-1.21s.05-.8.08-1.2Z" fill="#fef7f7"/><path d="M320.47,122.38a6.28,6.28,0,0,1,1.27,2.53c.15.5.72,1.19.14,1.55a4.37,4.37,0,0,1-2.59.39c-.35,0-.21-.52-.11-.81C319.58,124.88,320,123.72,320.47,122.38Z" fill="#fef7f7"/><path d="M296.88,189.46a7.49,7.49,0,0,1,0-1.06c.06-.36-.23-.9.32-1a1.28,1.28,0,0,1,1.28.56,2.31,2.31,0,0,1-.58,3.09c-.29.18-.64.45-1,.24s-.1-.57-.12-.87,0-.62,0-.94Z" fill="#fef7f7"/><path d="M273.38,189.38a4.81,4.81,0,0,1,0-.93c.07-.38-.27-1,.42-1.08a1.29,1.29,0,0,1,1.25.63,2.3,2.3,0,0,1,.09,2.19,1.52,1.52,0,0,1-1.52,1.1c-.62-.12-.17-.9-.28-1.37a3.25,3.25,0,0,1,0-.54Z" fill="#fef7f7"/><path d="M320.91,189.3a6.29,6.29,0,0,1,.14-1,.84.84,0,0,1,.85-.71.77.77,0,0,1,.76.64,4.32,4.32,0,0,1,.17,1.18c0,.76-.1,1.84-.93,1.84S321,190.18,320.91,189.3Z" fill="#fef7f7"/><path d="M334.72,188.21c-.15.67.36,1.35-.34,1.83-.11.07-.33,0-.5-.06A3.17,3.17,0,0,1,334.72,188.21Z" fill="#fef7f7"/></g></g></svg>