<svg width="72" height="52" viewBox="0 0 72 52" fill="none" xmlns="http://www.w3.org/2000/svg">
<path d="M68.1296 37.1868H68.2055H70.9367C71.3919 37.1868 71.6954 36.8108 71.6195 36.3596C71.0126 32.6751 66.2329 31.1712 64.4879 30.7201C64.0327 30.5697 63.6534 30.2689 63.5016 29.8929L60.5428 23.727C60.9221 23.9526 61.3015 24.0278 61.7567 24.0278H63.274C63.5016 24.0278 63.6534 23.8774 63.6534 23.6518V18.689C63.6534 18.4634 63.5016 18.3131 63.274 18.3131H61.7567C61.0738 18.3131 60.391 18.6138 59.9358 19.1402C59.86 18.7642 59.7082 18.3131 59.5565 17.7867C59.3289 16.9596 58.3426 17.11 57.1287 17.4107C55.4596 17.7867 53.8664 18.1627 52.1973 18.3131L51.5145 18.3883C51.2869 17.6363 50.6799 17.0348 49.9212 16.8844L45.6726 15.8317C44.9139 14.9293 44.0035 13.8014 42.562 12.2223C42.3344 11.9968 41.4999 10.944 40.0584 10.5681C38.7686 10.2673 37.0995 9.74094 35.7339 10.5681C34.3683 11.32 33.5337 12.6735 33.3061 14.2526L32.0922 25.2309C32.0163 25.9829 32.244 26.6596 32.6992 27.186C33.1544 27.7123 33.9131 28.0131 34.5959 28.0131H45.2174L44.8381 37.3372C44.7622 38.7658 45.9002 39.8938 47.2658 39.9689H47.3417C48.7073 39.9689 49.8454 38.9162 49.9212 37.5627L50.4523 25.6821C50.4523 25.0053 50.2247 24.3286 49.7695 23.8022C49.3143 23.2759 48.6315 23.0503 47.9487 23.0503H41.3481L41.8033 18.1627C42.3344 18.7642 42.7138 19.2154 42.7138 19.2154C43.0172 19.5914 43.4724 19.8921 43.9276 19.9673L48.9349 21.1704C49.0867 21.2456 49.3143 21.2456 49.466 21.2456C49.9971 21.2456 50.4523 21.0952 50.8316 20.7193L52.956 20.4185C53.0318 20.7193 53.1077 21.0952 53.1077 21.4712C53.3353 23.1255 53.8664 23.8022 54.8527 24.0278C55.6113 26.81 56.4459 31.1712 57.0528 33.8782C57.2804 35.1565 56.9011 36.51 55.9907 37.4875L53.1077 40.5705C52.5766 41.0969 51.8938 41.3976 51.1351 41.3976H42.562C41.5757 41.3976 40.8171 40.6457 40.8929 39.6682L41.0447 34.1038H41.9551C42.4862 34.1038 43.0172 33.7278 43.169 33.1263L43.6242 31.3216C43.7759 30.5697 43.2448 29.8177 42.4103 29.8177H18.0566C16.9945 29.8177 16.6151 31.1712 17.4497 31.7728L21.5465 34.4046C19.1188 36.9612 18.6636 40.6457 18.5877 42.3C18.5877 42.7511 18.967 43.1271 19.4222 43.1271H21.1672C21.1672 43.4279 21.0913 43.7287 21.0913 44.0294C21.0913 48.4659 24.733 52 29.1334 52C33.3061 52 36.7202 48.8419 37.1754 44.8566C37.5547 44.9318 37.8582 44.9318 38.2375 44.9318H53.487C54.3974 44.9318 55.232 44.4806 55.8389 43.8038C55.8389 43.879 55.8389 43.879 55.8389 43.9542C55.8389 48.6915 59.9358 52.4512 64.7914 51.9248C68.2813 51.5488 71.2402 48.7667 71.8471 45.3077C72.5299 41.924 70.8608 38.7658 68.1296 37.1868ZM29.2851 48.6163C26.7056 48.6163 24.6571 46.586 24.6571 44.0294C24.6571 43.7287 24.6571 43.4279 24.733 43.1271H27.4643C27.3125 43.4279 27.2367 43.6535 27.2367 44.0294C27.2367 45.1573 28.1471 45.9845 29.2092 45.9845C30.3473 45.9845 31.1818 45.0821 31.1818 44.0294C31.1818 43.7287 31.1059 43.4279 30.9542 43.1271H33.6855V43.3527C33.6855 43.5783 33.7613 43.8038 33.7613 44.0294C33.9131 46.586 31.8646 48.6163 29.2851 48.6163ZM64.0327 48.6163C61.4532 48.6163 59.4048 46.586 59.4048 44.0294C59.4048 41.4728 61.4532 39.4426 64.0327 39.4426C66.6122 39.4426 68.6607 41.4728 68.6607 44.0294C68.6607 46.586 66.5364 48.6163 64.0327 48.6163Z" fill="red"/>
<path d="M64.0327 42.0744C62.8947 42.0744 62.0601 42.9767 62.0601 44.0294C62.0601 45.1574 62.9706 45.9845 64.0327 45.9845C65.1707 45.9845 66.0053 45.0822 66.0053 44.0294C66.0053 42.9015 65.0949 42.0744 64.0327 42.0744Z" fill="red"/>
<path d="M18.2842 28.0883H27.9953C28.9058 28.0883 29.6644 27.3364 29.6644 26.434V17.3355C29.6644 16.4332 28.9058 15.6813 27.9953 15.6813H18.2842C17.3738 15.6813 16.6151 16.4332 16.6151 17.3355V26.434C16.6151 27.3364 17.3738 28.0883 18.2842 28.0883Z" fill="red"/>
<path d="M41.5757 3.80062C41.2723 3.72542 41.1205 3.80062 41.1205 3.80062C41.1205 3.80062 41.0447 4.0262 41.1964 4.40217C41.4999 5.2293 42.4862 6.20683 43.7759 6.5076C45.2174 6.88357 46.2037 7.03396 46.8106 7.10915C46.6589 6.28202 46.3554 5.2293 45.7485 3.80062C45.1415 3.951 43.6242 4.25178 41.5757 3.80062Z" fill="red"/>
<path d="M36.7202 8.8386L45.1415 10.7185C45.6726 10.8688 46.1278 10.5681 46.3554 10.1169C46.583 9.51535 46.8106 8.98899 46.8865 8.38744C46.2037 8.31225 45.1415 8.16186 43.4724 7.78589C41.1205 7.25953 39.4514 4.92851 39.7549 3.49983C39.9066 2.82308 40.5136 2.22153 41.8033 2.5223C43.3966 2.82308 44.6105 2.67269 45.2174 2.5975C42.8655 -1.3126 37.1754 -0.410266 35.4304 2.67269C34.1407 4.85332 35.5063 7.48511 36.1132 8.38744C36.1891 8.61302 36.4167 8.76341 36.7202 8.8386Z" fill="red"/>
<path d="M11.6078 26.0581C12.5182 26.0581 13.2011 25.3813 13.2011 24.479C13.2011 23.5767 12.5182 22.8999 11.6078 22.8999H1.59323C0.682813 22.8999 0 23.5767 0 24.479C0 25.3813 0.682813 26.0581 1.59323 26.0581H11.6078Z" fill="red"/>
<path d="M12.67 32.9007C13.5804 32.9007 14.2632 32.224 14.2632 31.3216C14.2632 30.4193 13.5804 29.7426 12.67 29.7426H2.65539C1.82084 29.7426 1.13803 30.4945 1.13803 31.3216C1.13803 32.224 1.82084 32.9007 2.73126 32.9007H12.67Z" fill="red"/>
<path d="M13.808 36.5852H3.7934C2.88298 36.5852 2.20016 37.262 2.20016 38.1643C2.20016 39.0666 2.88298 39.7434 3.7934 39.7434H13.808C14.7184 39.7434 15.4012 39.0666 15.4012 38.1643C15.4012 37.262 14.6425 36.5852 13.808 36.5852Z" fill="red"/>
</svg>
