<svg enable-background="new 0 0 663.32 344.68" viewBox="0 0 663.32 344.68" xmlns="http://www.w3.org/2000/svg" xmlns:xlink="http://www.w3.org/1999/xlink"><linearGradient id="a"><stop offset="0" stop-color="#00ff0c"/><stop offset="1" stop-color="#007e0f"/></linearGradient><linearGradient id="b" gradientTransform="matrix(1 -.0631 0 1 0 54.5795)" gradientUnits="userSpaceOnUse" x1="89.2525" x2="89.2525" xlink:href="#a" y1="43.3977" y2="118.73"/><linearGradient id="c" gradientTransform="matrix(1 -.0631 0 1 0 54.5795)" gradientUnits="userSpaceOnUse" x1="201.2048" x2="201.2048" xlink:href="#a" y1="43.3977" y2="118.73"/><linearGradient id="d" gradientTransform="matrix(1 -.0631 0 1 0 54.5795)" gradientUnits="userSpaceOnUse" x1="289.1104" x2="289.1104" xlink:href="#a" y1="43.3977" y2="118.73"/><linearGradient id="e" gradientTransform="matrix(1 -.0631 0 1 0 54.5795)" gradientUnits="userSpaceOnUse" x1="360.9906" x2="360.9906" xlink:href="#a" y1="43.3977" y2="118.73"/><linearGradient id="f"><stop offset="0" stop-color="#9d9d9c"/><stop offset="1" stop-color="#ededed"/></linearGradient><linearGradient id="g" gradientTransform="matrix(1 -.0631 0 1 0 54.5795)" gradientUnits="userSpaceOnUse" x1="77.4869" x2="77.4869" xlink:href="#f" y1="233.4796" y2="144.9227"/><linearGradient id="h" gradientTransform="matrix(1 -.0631 0 1 0 54.5795)" gradientUnits="userSpaceOnUse" x1="162.1788" x2="162.1788" xlink:href="#f" y1="235.5734" y2="144.685"/><linearGradient id="i" gradientTransform="matrix(1 -.0631 0 1 0 54.5795)" gradientUnits="userSpaceOnUse" x1="248.1187" x2="248.1187" xlink:href="#f" y1="233.5985" y2="145.0416"/><linearGradient id="j" gradientTransform="matrix(1 -.0631 0 1 0 54.5795)" gradientUnits="userSpaceOnUse" x1="342.38" x2="342.38" xlink:href="#f" y1="233.4796" y2="144.685"/><ellipse cx="533.35" cy="270.16" fill="#dadada" rx="95.39" ry="3.39"/><path d="m445.62 248.14c-1.72.37-3.44.75-5.16 1.12-.32-.24-.26-.59-.27-.92-.1-6 .42-11.94 1.56-17.83.79-4.08 1.9-8.06 3.4-11.94 1.33-3.43 2.96-6.71 5.01-9.77 3.99-5.96 9.1-10.6 15.89-13.22 1.49-.57 3.03-.98 4.57-1.4 8.74-2.37 17.6-4.19 26.45-6.08 4-.86 7.99-1.78 12.02-2.51 2.51-.46 4.98-1.05 7.48-1.54.26-.05.51-.13.78-.06.33.36-.07.5-.24.65-1.23 1.15-2.46 2.31-3.55 3.61-2.43 2.9-4.36 6.07-5.34 9.75-.78 2.91-.93 5.86-.35 8.84.5 2.54 1.22 4.98 2.61 7.2 1.96 3.12 4.77 4.98 8.36 5.69 2.55.51 5.11.47 7.67.11 1.17-.19 2.36-.27 3.51-.55.25-.06.51-.12.77-.08.28.07.35.3.36.53.01.33.17.57.38.8.04.2-.15.28-.22.42-.13.25-.04.46.1.67.16.2.39.24.62.27.33.04.62-.08.91-.2.23-.08.47-.04.7-.03.31.05.59-.04.86-.17.23-.08.47-.04.71-.03.31.05.59-.04.86-.18.23-.1.47-.07.71-.04.31.07.59-.03.86-.17.24-.1.48-.07.72-.04.35.07.66-.04.97-.18.23-.08.47-.05.71-.03.31.05.59-.04.86-.17.23-.08.47-.04.71-.03.31.05.59-.04.86-.18.23-.1.47-.07.71-.04.31.07.59-.03.86-.17.24-.1.48-.07.72-.04.35.07.66-.04.97-.18.24-.08.48-.05.72-.03.31.05.59-.04.87-.17.24-.08.49-.04.74-.03.35.06.64-.1.95-.23 1.78-.22 3.55-.45 5.33-.66.26-.03.52-.05.72.17.01.48-.42.52-.71.68-2.7 1.43-5.56 2.48-8.44 3.48-1.08.37-2.14.79-3.27 1.02-.28.04-.55.1-.79.25-.33.15-.68.21-1.03.29-.3.05-.61.11-.88.27-.51.19-1.04.3-1.55.47-.31 0-.6.06-.86.22-.41.17-.84.24-1.26.34-.24.04-.47.09-.7.14-.28.05-.54.14-.79.28-.59.23-1.22.31-1.83.46-.33.05-.66.13-.99.2-.45.1-.92.16-1.33.41-1.11.36-2.27.55-3.4.8-1.12.21-2.23.49-3.35.73-1.53.33-3.06.67-4.59 1.01-1.16.26-2.33.5-3.49.78-1.33.29-2.64.65-3.99.83-.57-.06-1.1.15-1.65.25-.42.1-.85.17-1.26.29-.81.17-1.6.41-2.42.48-.42-.05-.81.07-1.21.16-.27.06-.55.11-.82.18-.37.08-.75.17-1.12.26-.36.01-.4-.28-.48-.52-2.05-5.7-5.55-10.31-10.44-13.89-3-2.2-6.3-3.73-9.87-4.7-3.01-.81-6.09-1.07-9.2-.93-1.6.05-3.19.29-4.73.65-2.87.67-5.65 1.67-8.23 3.15-4.78 2.75-8.55 6.5-11.24 11.3-2.86 5.11-4.15 10.6-3.73 16.47.06.88.15 1.75.28 2.62.04.24.11.46-.07.64z" fill="#dac4a2"/><path d="m472.69 111.96c1.65-5.1 3.88-9.92 6.81-14.41.26-.41.29-.84.22-1.3-.15-1.04-.58-2.01-.87-3.01-.07-.23-.16-.45-.21-.68-.43-1.68-.12-2.02 1.51-1.68 1.21.25 2.42.49 3.63.73.53-.18 1.03.06 1.53.16 4.22.87 8.44 1.72 12.65 2.59.26.05.51.11.72.29 2.41.52 4.82 1.03 7.31 1.57-.86 1.5-1.69 2.96-2.54 4.41-1.06 1.82-1.04 1.81-.52 3.83.9 3.53 1.76 7.07 2.64 10.6.72 2.91 1.45 5.82 2.18 8.73.05.21.08.42.28.56.04.48-.3.44-.57.36-1.24-.35-2.48-.69-3.69-1.11-.35-.12-.52-.38-.64-.72-2.18-6.35-4.45-12.67-6.56-19.04-.98-2.95-3.07-4.61-5.92-5.48-.99-.3-2.01-.47-3.05-.4.74.15 1.48.24 2.21.4 2.23.51 4.14 1.52 5.53 3.41.78 1.07 1.08 2.33 1.5 3.53 1.6 4.53 3.14 9.09 4.74 13.62.45 1.28.93 2.55 1.32 3.85.18.62.53.97 1.13 1.15 2.81.83 5.61 1.67 8.42 2.51 4.77 1.43 9.53 2.87 14.3 4.28 1.67.49 3.32 1.02 4.99 1.5.83.24.91.39.78 1.22-.16.62-.35 1.23-.43 1.86-.28.53-.17 1.22-.68 1.66-.89.04-1.74-.23-2.61-.38-7.42-1.28-14.87-2.38-22.29-3.63-3.36-.57-6.71-1.2-10.03-1.97-.84-.19-1.65-.48-2.47-.7-1.31-.34-2.17-1.24-2.9-2.3-1.84-2.71-3.26-5.65-4.68-8.59-.89-1.84-1.7-3.72-2.45-5.63-.04-.11-.1-.21-.08-.25.13.51.4 1.04.6 1.58.89 2.42 1.5 4.91 2.27 7.36.64 2.05.89 4.19 1.61 6.22.8 2.26 2.35 3.84 4.43 4.92 1.27.66 2.63 1.09 4.05 1.35 4.72.83 9.4 1.85 14.1 2.77.31.06.61.13.76.46.35 1.43.88 2.81 1.14 4.27.05.28.13.56.05.85-.42.7-1.2.8-1.85 1.1-.24.11-.5.15-.76.19-.66.12-1.31.28-1.97.43-6.61 1.31-13.15 1.11-19.5-1.25-6.97-2.59-11.84-7.38-14.44-14.4-1.88-5.07-2.42-10.26-1.68-15.6.08-.61.02-1.2-.02-1.79z" fill="#d82714"/><path d="m622.4 191.18c2.4 2.04 4.55 4.3 6.28 6.95 1.89 2.89 3.22 6.02 4.06 9.36.12.47.02.6-.43.7-2.18.47-4.36.98-6.54 1.47-.21.22-.49.29-.76.35-2.99.66-5.97 1.34-8.97 1.97-2.09.49-4.2.95-6.3 1.4-3.9.88-7.8 1.75-11.71 2.59-2.19.48-4.37 1-6.56 1.44-3.04.71-6.09 1.36-9.14 2.04-.21.05-.42.09-.63.02-2.12.45-4.24.87-6.34 1.37-.64.15-.8-.03-.92-.62-2.6-13.48 4.31-27.09 16.68-32.78 4.75-2.18 9.74-3.11 14.96-2.67.57.05 1.14.07 1.71.11 2.53.1 4.89.88 7.2 1.81 2.41.97 4.67 2.21 6.75 3.78.25.2.44.47.66.71z" fill="#df2813"/><path d="m482.22 173.82c1.13-.45 2.35-.55 3.51-.86.34-.09.69-.16 1.25-.28-7.1-1.68-10.36-6.61-11.86-13.09.27-.24.55-.07.81 0 3.96 1.15 7.98 1.53 12.08 1.12 2.7-.27 5.35-.75 7.97-1.5 5.35-1.51 10.35-3.8 15.13-6.61.59-.35 1.12-.81 1.78-1.05.26-.07.52-.01.77.07 1.25.39 2.54.62 3.75 1.1.46.41 1.01.48 1.6.45.41.01.8.08 1.13.34.16.16.37.21.57.27 5.19 1.43 10.42 2.68 15.68 3.8.31.07.61.08.92.04 1.58.51 3.27.65 4.78 1.42 2.45 1.25 4.01 3.21 4.83 5.81.78 2.49.71 5 .38 7.55-.72 5.6-1.57 11.17-2.64 16.71-.75 3.93-1.53 7.85-2.51 11.73-.07.3-.11.61-.31.87-.27.22-.58.18-.88.15-3.26-.35-6.52-.59-9.78-.97-.26-.03-.52-.04-.75-.2-.25-.3-.15-.66-.17-1 .16-4.52.48-9.02 1.01-13.51.46-3.97 1.02-7.92 1.75-11.85.04-.23.07-.47.12-.7.11-.5-.11-.68-.59-.73-1.3-.13-2.6-.25-3.91-.35-.43-.05-.87-.12-1.31-.13-1.28-.07-2.56-.21-3.84-.26-5.61-.34-11.23-.51-16.85-.36-4.43.13-8.84.4-13.23 1.07-1.65.25-3.32.34-4.98.15-.82-.09-1.61-.01-2.4.18-.97.24-1.95.44-2.93.65-.29.07-.59.19-.88-.03z" fill="#3e6e7f"/><path d="m540.75 224.61c.37-.09.74-.18 1.11-.26.18-.19.5-.08.68-.28 2.37-.64 4.65-1.51 6.94-2.39 1.92-.74 3.79-1.55 5.57-2.56.38-.51.99-.38 1.5-.5.86-.2.87-.16.86-.99.36-.58.95-.92 1.46-1.33 2.09-1.7 3.88-3.68 5.31-5.94 2.05-3.25 3.46-6.78 4.21-10.56.17-.84.39-1.67.41-2.53 0-.11.02-.22.05-.32.34-1.32.36-2.67.43-4.02.02-1.99.02-3.98-.16-5.97-.21-2.27-.45-4.53-1.04-6.74-.14-.54-.18-1.1-.42-1.6-.43-1.21-1.26-2.18-1.95-3.24-4.66-7.09-9.4-14.12-13.99-21.25-1.88-2.92-3.84-5.8-5.69-8.74-.13-.2-.27-.39-.32-.63 0-.37.29-.52.53-.7 1.79-1.37 3.57-2.75 5.2-4.32.36-.35.68-.72 1-1.11.9-1.12.97-2.18.22-3.41-.51-.74-1.24-1.04-2.1-1.11-.38-.04-.73.06-1.06.24-1.33.63-2.32 1.71-3.5 2.53-.74.51-1.38 1.15-2.16 1.62-.31.14-.57.08-.8-.16-.11-.19-.03-.37.07-.53.87-1.49 2.03-2.73 3.38-3.79.45-.06.66-.44.97-.69 1.23-1.01 2.47-2.01 3.78-2.93.35-.24.7-.38 1.1-.47 2.33-.51 4.65-1.03 6.98-1.55.33.2.33.56.4.87.53 2.38 1.06 4.77 1.58 7.15.12.86.08.99-.69 1.32-2.09.9-4.18 1.82-6.26 2.74-.8.35-.88.56-.54 1.37.5 1.17 1.3 2.15 1.96 3.21.22.35.58.65.46 1.14 3.63 4.82 7.26 9.64 10.9 14.46 1.98 2.62 3.96 5.23 5.94 7.84.11.15.25.29.34.46.3.59.75.81 1.42.86 3.18.22 6.25.92 9.09 2.41 2.01 1.05 3.42 2.65 4.45 4.66.99 1.95 1.82 3.95 2.48 6.03.34 1.08.16 1.58-.85 2.06-4.69 2.22-8.68 5.37-11.97 9.36-3.95 4.78-6.49 10.25-7.62 16.36-.38 2.08-.62 4.18-.58 6.3.01.32-.16.48-.38.63-1.76 1.14-3.65 2-5.61 2.74-1.77.67-3.55 1.29-5.35 1.9-1.23.42-2.48.81-3.74 1.13-2.72.68-5.41 1.45-8.12 2.15-2.24.58-4.49 1.03-6.73 1.59-11.95 2.97-24.03 5.36-36.03 8.11-.11-.05-.18-.15-.23-.25-.12-.32-.14-.67-.33-.97-.09-.22-.17-.45-.03-.68.28-.38.74-.27 1.11-.4.32.06.61-.1.92-.14.36-.05.69-.22 1.07-.17.84-.18 1.68-.36 2.51-.54.46.03.88-.17 1.32-.23.5-.08.98-.29 1.5-.27 1.35-.29 2.7-.58 4.05-.88 1.2-.12 2.35-.49 3.52-.72 1.51-.33 3.03-.67 4.54-1 1.12-.29 2.28-.42 3.37-.81 1.16-.26 2.32-.53 3.48-.79.37-.21.79-.21 1.18-.32.34-.11.72-.09 1.03-.29.65-.15 1.3-.3 1.95-.45.19-.16.43-.13.64-.2.24-.08.52-.05.73-.23.46-.11.93-.22 1.39-.33.22-.15.45-.2.71-.16.5-.3 1.07-.37 1.63-.51.23-.18.59-.07.82-.28z" fill="#f2e3c7"/><path d="m503.78 234.99c.03.09.05.17.08.26.21 1.29.21 1.29-1.09 1.58-2.52.56-5.04 1.11-7.56 1.67-.25.06-.5.14-.75.22-.18.18-.4.24-.64.29-3.02.66-6.03 1.36-9.05 1.99-2.18.52-4.37.98-6.56 1.46-3.9.88-7.8 1.74-11.71 2.59-2.09.46-4.17.94-6.27 1.38-1.36.26-2.68.69-4.06.82-.29-.03-.38-.24-.43-.49-.6-3.2-.82-6.42-.4-9.66.69-5.23 2.56-9.98 5.71-14.23 2.97-4 6.7-7.06 11.19-9.22.36-.17.78-.21 1.1-.49 5.65-.29 10.98.88 15.93 3.6 6.07 3.34 10.47 8.22 13.21 14.58.28.65.52 1.32.77 1.99.07.23.13.45.2.68.21.31.13.69.33.98z" fill="#e32a13"/><path d="m474.31 56.64c2-2.07 4.41-3.53 7.12-4.43 7.45-2.47 14.65-1.82 21.56 1.91 2.2 1.19 4.09 2.76 5.74 4.63-.04.28-.27.37-.49.45-1.98.71-3.92 1.52-5.99 1.91-1.57.66-3.26.78-4.9 1.08-2.66.32-5.31.51-7.88-.53-1.99-.83-3.98-.85-5.96.04-1.74.78-2.89 2.06-3.33 3.94-.43 1.82-.49 3.62.1 5.42.65 2.02 2.05 3.26 3.97 4.02 1.25.49 2.55.8 3.88.95 1.56.17 3.12.38 4.7.44 2.65.11 5.3.11 7.96.08 2.69-.05 5.39-.13 8.07-.44 2.17-.21 4.33-.47 6.46-.89.96-.19 1.86-.54 2.77-.87.26-.09.51-.27.81-.16 1.5 3.79 2.53 7.65 1.76 11.78-1.47.77-3.08.76-4.67.79-2.67.05-5.32-.33-7.98-.54-3.92-.31-7.85-.32-11.79-.36-3.69-.04-7.39-.05-11.08-.01-1.81.02-3.33-.76-4.76-1.73-3.04-2.06-4.94-5-6.1-8.42-1.5-4.4-2.1-8.94-1.64-13.58.19-1.92.7-3.78 1.67-5.48z" fill="#dd2813"/><path d="m513.11 151.62c-2.01 1.17-3.97 2.4-6.05 3.44-3.48 1.75-7.07 3.2-10.82 4.29-4.75 1.38-9.56 1.98-14.49 1.56-2.11-.18-4.18-.61-6.2-1.24-.13-.04-.28-.06-.41-.09-.04-.02-.08-.06-.12-.07-.92-.15-1.42-.67-1.44-1.62-.18-.19-.1-.48-.25-.68-.12-.44-.23-.88-.35-1.32-.19-.4-.21-.83-.33-1.25-.15-.43-.09-.92-.38-1.31-.09-.15-.13-.32-.11-.49-.36-1.29-.71-2.59-.82-3.93-.02-.31-.11-.6-.16-.9-.16-.86-.45-1.7-.51-2.59-.02-.07-.03-.13-.05-.2.12-.57-.26-1.08-.21-1.65-.08-.1-.11-.22-.06-.35.1-.42-.2-.8-.14-1.22-.02-.12-.03-.24-.05-.36.08-.32-.14-.61-.09-.93-.02-.12-.03-.24-.05-.36.08-.27-.11-.52-.06-.79-.33-1.95-.34-3.93-.38-5.9-.07-3.72.07-7.44.59-11.14.5-3.61 1.23-7.16 2.53-10.58.25.39.35.83.29 1.29-.43 3.02-.52 6.03-.12 9.06.52 3.98 1.69 7.74 3.71 11.19 2.54 4.34 6.23 7.44 10.82 9.45 4.53 1.99 9.3 2.76 14.24 2.6 2.21-.07 4.39-.25 6.55-.72.72-.05 1.42-.2 2.09-.46.93-.15 1.73-.61 2.56-1.01.04.03.07.05.11.08.08.09.14.19.16.31.5 2.21 1.04 4.41 1.44 6.64-.22.72-.85.97-1.44 1.25z" fill="#b71d16"/><path d="m621.1 234.35c-2.38 2.38-5.09 4.28-8.26 5.45-6.38 2.35-12.63 2.04-18.73-1.02-.1-.05-.21-.09-.32-.14-4.1-2.29-7.34-5.44-9.51-9.64-1.21-2.33-2.06-4.79-2.34-7.42.32.17.34.5.42.79.21.73.25.77.99.61 2.35-.51 4.7-1.04 7.05-1.55.35-.08.69-.18 1.05-.18.08 0 .16.02.24.05.4.38.49.92.65 1.4 1.83 5.53 7.68 9.32 13.51 8.64 7.13-.83 11.34-6.36 11.71-12.24.07-1.14-.02-2.29-.34-3.4-.02-.08-.04-.16-.06-.23-.04-.36-.29-.74.05-1.08.12.03.23.1.27.21.21.77.74.69 1.34.55 2.33-.53 4.67-1.05 7.02-1.55.36-.08.73-.24 1.1-.01.73 2.91.73 5.83.22 8.77-.8 4.62-2.9 8.58-6.06 11.99z" fill="#272727"/><path d="m492.26 260.33c-2.25 3.17-5.01 5.77-8.52 7.5-6.78 3.35-13.61 3.42-20.48.23-.06-.03-.13-.04-.2-.06-4.45-2.32-7.91-5.64-10.2-10.13-.87-1.7-1.56-3.47-1.89-5.36.14-.26.4-.32.66-.38 2.69-.61 5.38-1.21 8.07-1.78.16-.03.33-.05.5-.02.36.08.38.43.54.67.67 2.06 1.63 3.98 3.21 5.5 3.36 3.24 7.3 4.57 11.97 3.64 3.53-.7 6.22-2.61 8.19-5.53 1.69-2.5 2.38-5.33 2.08-8.36-.05-.52-.16-1.04-.04-1.56.05-.07.12-.12.19-.16.94-.35 1.93-.48 2.9-.71 1.74-.4 3.48-.79 5.22-1.15.59-.12.81-.39.64-.99-.08-.29-.17-.6.05-.89.8 2.27 1.06 4.62 1.03 7.01-.06 4.33-1.27 8.33-3.6 11.98-.12.18-.21.37-.32.55z" fill="#272727"/><path d="m517.45 184.08c-1.51.32-3.03.64-4.54.95-4.5.95-8.98 1.93-13.49 2.83-7.34 1.46-14.63 3.08-21.91 4.8-3.42.81-6.88 1.54-10.21 2.69-5.53 1.9-10.16 5.15-13.94 9.59-4.23 4.99-7.14 10.71-9.15 16.91-2.83 8.73-3.93 17.71-3.82 26.85 0 .19.05.38.07.57-.11.58-.01 1.26-.78 1.52-1.08.36-1.93-.29-1.96-1.54-.03-1.31-.04-2.61-.01-3.92.18-8.96 1.53-17.72 4.61-26.18.35-.96.72-1.91 1.08-2.86.04-.79.48-1.43.8-2.11 1-2.15 2.13-4.24 3.44-6.22 1.48-2.23 3.11-4.37 5.01-6.28.14-.09.28-.17.42-.26.24-.13.42-.33.57-.56.26-.65.85-1 1.34-1.43 2.21-1.93 4.62-3.56 7.21-4.94 2.29-1.18 4.67-2.08 7.15-2.8 1.76-.51 3.53-.95 5.32-1.29 1.04-.2 2.09-.32 3.12-.55 2.08-.43 4.16-.85 6.23-1.28.3-.05.48-.32.77-.39.83-.24 1.69-.27 2.53-.45 10.57-2.35 21.14-4.69 31.72-7.02.51-.11 1.02-.28 1.55-.13.72.33 1.12.87 1.05 1.69-.06.76-.47 1.17-1.39 1.41-.67.17-1.34.31-2.02.45-.27.03-.53.11-.77-.05z" fill="#e32a13"/><path d="m482.22 173.82c1.56-.33 3.12-.66 4.68-.99.21-.04.43-.12.63-.09 2.81.4 5.57-.09 8.36-.42 5.16-.61 10.35-.81 15.54-.78 4.05.03 8.11.13 12.15.45.06.33-.09.61-.24.87-.82 1.39-1.95 2.36-3.58 2.72-13.04 2.88-26.07 5.76-39.11 8.64-.37.08-.74.2-1.12.02-1.28-2.87-1.43-5.73.23-8.51.56-.93 1.36-1.62 2.46-1.91z" fill="#272727"/><path d="m473.36 213.17c.01.21-.13.26-.3.34-4.49 1.98-8.28 4.91-11.31 8.75-3.19 4.04-5.22 8.63-6.04 13.74-.54 3.37-.56 6.74.17 10.1.07.34.07.7.1 1.06-.13.22-.36.3-.59.35-1.47.35-2.95.67-4.43.98-.19.04-.38.03-.56-.02-1.23.26-2.46.52-3.69.78-.87.19-.87.19-1.01-.7-.02-.14-.05-.28-.08-.42-1.37-8.18.31-15.69 5.07-22.47 3.42-4.87 7.95-8.37 13.52-10.53 2.95-1.12 5.99-1.8 9.15-1.96z" fill="#bf1718"/><path d="m474.31 56.64c.12.35-.15.59-.26.86-1.28 3.03-1.5 6.18-1.29 9.42.16 2.46.55 4.87 1.21 7.22 1 3.58 2.7 6.78 5.63 9.2 1.2.99 2.56 1.7 4.05 2.18.83.27 1.7.14 2.54.15 3.81.02 7.62.02 11.43.02 5.22 0 10.42.3 15.62.8 2.07.2 4.16.21 6.23-.22.4-.08.72-.54 1.19-.28-.55 2.93-2.68 3.96-4.95 4.34-2.46.41-4.9.19-7.35-.03-2.9-.27-5.8-.5-8.71-.57-.76.24-1.54.17-2.32.16-4.16-.07-8.32-.11-12.48-.07-.45 0-.91.06-1.33-.15-.25-.12-.51-.04-.77-.03-3.12.12-5.42-1.53-7.43-3.61-2.92-3.02-4.24-6.83-4.98-10.88-.53-2.87-.8-5.75-.56-8.65.32-3.71 1.73-6.96 4.3-9.68.07-.09.16-.13.23-.18z" fill="#bb1e16"/><path d="m479.53 184.25c13.3-2.94 26.6-5.9 39.9-8.81 1.91-.42 3.19-1.48 3.97-3.22.04-.08.11-.15.17-.22 1.29.07 2.57.14 3.86.21.14.17.25.35.27.57.15 2.21-.21 4.27-1.72 6-.6.69-1.34 1.13-2.21 1.38-1.05.3-2.08.7-3.2.58-.36-.1-.71.02-1.06.1-10.07 2.22-20.14 4.45-30.21 6.66-1.56.34-3.13.62-4.69.93-.16.1-.32.11-.47-.04-2.29-.54-3.7-2.06-4.61-4.14z"/><path d="m477.77 189.84c-1.94.45-3.89.89-5.83 1.36-3.4.83-6.71 1.94-9.85 3.5-.83.36-1.69.61-2.58.8-7.58 1.67-15.15 3.34-22.72 5.03-.81.18-1.65.18-2.45.41-.86.05-1.68.27-2.52.46-5.67 1.25-11.33 2.51-17 3.76-1.28.28-2.31-.27-2.59-1.37-.3-1.16.36-2.23 1.58-2.52 1.23-.29 2.46-.56 3.69-.83 10.54-2.32 21.08-4.63 31.62-6.95 3.72-.82 7.44-1.66 11.16-2.5.34-.08.67-.22 1.01-.33.26.14.51 0 .76-.06 3.54-.78 7.07-1.56 10.61-2.34 1.58-.35 2.4.11 2.85 1.64.1.32.24.35.51.29.59-.13 1.17-.24 1.75-.35z" fill="#868687"/><path d="m502.23 60.97c2.01-.55 3.98-1.24 5.93-1.97.2-.07.39-.17.58-.26 2.39 2.36 4.41 5.02 6.26 7.81 1.48 2.24 2.71 4.61 3.76 7.08.07.17.09.37.14.55-1.57.84-3.28 1.24-5.01 1.52-1.45.24-2.91.38-4.37.56-.23.03-.47.01-.71.02-.24-.14-.37-.36-.46-.61-1.71-4.75-3.87-9.31-5.94-13.91-.11-.23-.3-.48-.18-.79z" fill="#524e4e"/><path d="m546.48 134.02c-.73.8-1.45 1.6-2.19 2.38-.53.56-.88 1.23-1.26 1.88-.14.09-.28.04-.41-.01-2.74-.92-5.57-1.45-8.35-2.21-.5-.14-.76-.05-.81.52s-.18 1.13-.17 1.7c.01 1.23.61 1.92 1.86 1.98 2.59.14 4.53 1.43 6.12 3.36.62.76 1.04 1.65 1.45 2.53.09.2.15.4.09.62-.86.95-2.85 1.26-4.15.65-.09-.09-.12-.19-.06-.32.08-.15.22-.24.35-.35.81-.71.98-1.13.63-1.59-.56-.75-1.69-1.03-2.4-.59-.18.11-.35.25-.55.32-.07.02-.14.02-.21.01-.2-.08-.42-.06-.63-.07-1.47-.09-2.66-.74-3.49-1.92-.49-.69-.98-1.3-1.81-1.57-.21-.64.14-1.21.25-1.8.16-.9.29-1.83.73-2.66.2-.52.17-1.13.52-1.6.1-.09.22-.1.33-.07.47.13.57-.14.6-.52.03-.45.09-.89.12-1.34.16-.52-.11-1.14.36-1.59 2.4.42 4.82.61 7.24.9 1.98.26 3.99.46 5.84 1.36z" fill="#d66a47"/><path d="m533.39 131.78c-.07.55-.15 1.11-.22 1.66-.27.24-.56.18-.85.04.29-.65 0-.9-.62-1.09-6.08-1.8-12.16-3.62-18.24-5.43-3.16-.95-6.32-1.9-9.49-2.84-.67-.2-1.05-.53-1.26-1.26-.53-1.76-1.2-3.48-1.81-5.23-.59-1.67-1.16-3.35-1.74-5.03-.64-1.83-1.28-3.66-1.92-5.49-.44-1.25-.86-2.51-1.3-3.76-.6-1.73-1.83-2.93-3.39-3.79-1.47-.81-3.08-1.23-4.77-1.29-.23-.01-.59.09-.59-.32.01-.43.38-.3.59-.29 2.83.22 5.4 1.05 7.39 3.21.79.86 1.23 1.9 1.6 2.98.64 1.86 1.3 3.7 1.93 5.56.6 1.75 1.17 3.5 1.78 5.24.6 1.74 1.24 3.47 1.85 5.21.34.96.67 1.92.96 2.9.11.36.25.57.63.67 1.17.33 2.32.7 3.48 1.05.25.08.5.18.64-.17 3.27.4 6.51.96 9.76 1.51 5.07.86 10.15 1.71 15.23 2.54.55.09.75.22.63.84-.17.87-.19 1.73-.27 2.58z" fill="#a81917"/><path d="m434.35 200.95c.12-.19.32-.19.5-.23 9.08-2.01 18.17-4.01 27.25-6.02-2.41 1.36-4.73 2.85-6.82 4.69-.55.48-1.1.97-1.65 1.45-6.43.04-12.85.08-19.28.11z" fill="#676767"/><path d="m556.22 146.19c-.58-.92-1.16-1.83-1.75-2.75-.13-.2-.27-.39-.39-.59-.32-.58-.77-1.14-.69-1.82.1-.86.99-.76 1.54-1.01 1.9-.89 3.82-1.73 5.76-2.53.46-.19.59-.41.45-.85.04-.02.08-.04.12-.06.08.05.15.11.2.19.31.73.4 1.52.58 2.28.39 1.72.77 3.44 1.14 5.16.07.34.22.69-.01 1.04-.5-.17-.99.01-1.47.07-1.84.25-3.66.57-5.48.87z" fill="#d0b792"/><path d="m565.45 129.08c4.57 2.04 6.37 7.2 4.04 11.62-.05.1-.14.19-.21.28-.19.19-.42.31-.69.35-1.21.17-2.42.21-3.62-.05-.28-.06-.56-.14-.7-.43-.2-.58 0-1.16.04-1.74.05-.68.15-1.35.16-2.04.19-2.38.46-4.75.66-7.13.02-.3-.08-.68.32-.86z" fill="#fee069"/><path d="m440.6 215.45c-1.52-.5-2.41-2.31-2.03-4.15.28-1.34.94-2.49 1.75-3.55 1.29-1.69 2.81-3.16 4.51-4.43 1.05-.34 2.15-.51 3.22-.76.47.25.16.59.06.85-.61 1.57-1.38 3.07-2.17 4.56-.84 1.57-1.67 3.14-2.67 4.61-.55.8-1.14 1.58-1.81 2.28-.24.27-.47.56-.86.59z" fill="#ab2318"/><path d="m483.52 89.66c1.48-.13 2.97-.07 4.46-.06 3.85.01 7.7.04 11.54.07.04 0 .09.04.13.06-.35.08-.29.39-.33.63-.22 1.43-.43 2.87-.64 4.3-1.77-.35-3.53-.68-5.3-1.04-3.2-.66-6.4-1.33-9.61-2-.08-.66-.17-1.31-.25-1.96z" fill="#d66a47"/><path d="m565.45 129.08c-.33 2.58-.54 5.18-.77 7.78-.01.07-.04.13-.06.2-.82.06-1.64.04-2.46-.08-.32-.05-.66-.08-.88-.38l-.06.02c-.68-2.83-1.33-5.67-1.88-8.53-.01-.57.31-.86.84-.98 1.67-.37 3.34-.73 5.01-1.11.39-.09.5-.01.46.41-.09.88-.14 1.77-.2 2.67z" fill="#e32a13"/><path d="m450.4 248.48c1.59-.37 3.17-.74 4.76-1.11.28-.06.55-.14.82-.21 1.39-.29 2.78-.58 4.18-.87.3.92.08 1.88.2 2.81-.06.38.12.75.1 1.13-.01.08-.04.15-.1.21-3.12.69-6.24 1.39-9.37 2.08-.43-1.32-.52-2.68-.59-4.04z" fill="#1b1b1b"/><path d="m626.94 213.6c-2.81.62-5.63 1.22-8.44 1.87-.67.16-1.11.15-1.14-.68-.01-.14-.06-.28-.19-.37-.63-.76-.95-1.66-1.17-2.61 3.25-.72 6.5-1.44 9.76-2.16.51 1.29 1 2.58 1.18 3.95z" fill="#1b1b1b"/><path d="m495.15 240.79c.08.42.13.85.26 1.25.15.5-.04.66-.51.76-2.9.62-5.79 1.28-8.68 1.92-.08-.03-.15-.07-.2-.14-.44-1.03-.73-2.12-1.25-3.11-.1-.19-.17-.4-.05-.61 3.24-.75 6.47-1.52 9.74-2.13.25.67.56 1.34.69 2.06z" fill="#1b1b1b"/><path d="m591.7 221.39c-2.85.63-5.7 1.24-8.54 1.9-.59.14-.89.07-.95-.59-.04-.37-.17-.74-.26-1.1-.19-.7-.16-1.42-.26-2.13.11-.05.21-.13.32-.15 3.14-.69 6.28-1.37 9.42-2.06.19.15.22.36.21.58-.05 1.12.14 2.23.18 3.35-.02.08-.06.15-.12.2z" fill="#1b1b1b"/><path d="m440.6 215.45c1.62-1.38 2.72-3.16 3.76-4.97 1.45-2.5 2.77-5.08 3.88-7.75.04-.24.24-.26.42-.3 1.25-.28 2.49-.55 3.74-.82.14-.03.33-.16.39.11-2 2.13-3.81 4.41-5.37 6.89-1.42 2.25-2.66 4.6-3.72 7.04-.09.22-.21.42-.32.63-.97-.11-1.91-.36-2.78-.83z" fill="#878687"/><path d="m622.4 191.18c-2.29-1.72-4.71-3.21-7.37-4.29-2.01-.82-4.08-1.41-6.22-1.79-.35-.06-.69-.15-1.04-.22 2.27-.3 4.55-.27 6.83-.24 1.62.03 3.23.14 4.8.57.76.21 1.2.61 1.43 1.39.46 1.54 1.04 3.06 1.57 4.58z" fill="#878687"/><path d="m561.29 136.6c.87.26 1.76.34 2.67.28.24-.02.47.01.66.18-.09 1.22-.18 2.44-.27 3.66.16.97.39 1.92.59 2.88.07.32.18.64.01.96.08.54-.15.95-.64 1.12-.45.16-.88.02-1.15-.43-.65-2.88-1.35-5.75-1.87-8.65z" fill="#bf1718"/><path d="m564.95 144.56c-.23-1.19-.69-2.34-.67-3.58 0-.09.04-.18.06-.27.3.48.82.43 1.27.48 1.23.12 2.45.11 3.65-.22-.95 1.78-2.49 2.86-4.31 3.59z" fill="#e7c742"/><path d="m452.8 201.72c-.34-.18-.65 0-.95.09-1.2.32-2.47.36-3.61.93-.45-.22-.86.05-1.28.13-.71.13-1.42.31-2.12.46.07-.15.21-.18.35-.21 2.62-.57 5.25-1.14 7.88-1.71-.1.1-.18.2-.27.31z" fill="#957b7a"/><path d="m559.36 128.08c.63 2.84 1.25 5.69 1.88 8.53 0 0-.05.01-.05.01s-.05.02-.05.02c-.61-2.75-1.23-5.5-1.84-8.25.02-.11.04-.21.06-.31z" fill="#f7bfa7"/><path d="m471.24 148c.17 1.64.59 3.23.91 4.85-.5-1.25-.64-2.6-.94-3.9-.07-.29-.08-.6-.12-.91.03-.07.08-.08.15-.04z" fill="#ba1e16"/><path d="m471.24 148c-.05.01-.1.03-.15.04-.17-.87-.45-1.72-.43-2.62.19.87.39 1.72.58 2.58z" fill="#d82714"/><path d="m470.4 143.58c.08.55.41 1.06.21 1.65-.1-.55-.3-1.08-.21-1.65z" fill="#d82714"/><path d="m472.26 153.34c.4.32.28.83.43 1.23-.03.07-.07.07-.12.02-.1-.41-.21-.83-.31-1.25z" fill="#ba1e16"/><path d="m472.57 154.6c.04-.01.08-.01.12-.02.09.44.18.88.28 1.32-.29-.39-.3-.86-.4-1.3z" fill="#d82714"/><path d="m470.2 142.02c.06.4.33.79.14 1.22-.09-.41-.24-.8-.14-1.22z" fill="#d82714"/><path d="m470.06 140.73c.05.31.26.6.09.93-.08-.3-.19-.61-.09-.93z" fill="#d82714"/><path d="m473.31 157.22c.23.17.19.44.25.68-.19-.18-.2-.44-.25-.68z" fill="#d82714"/><path d="m484.15 188.39c.15.01.31.03.46.04-.17.2-.37.25-.61.14.05-.06.1-.12.15-.18z" fill="#df9188"/><path d="m469.95 139.58c.05.26.22.51.06.79-.07-.26-.16-.51-.06-.79z" fill="#d82714"/><path d="m526.37 219.11c-.44-3.48-.87-6.96-1.34-10.43-.07-.53-.01-.73.57-.66.35.04.71-.04 1.06-.06 1-.36 2.05-.12 3.06-.27.37-.01.74-.01 1.11-.02.44-.01.71.17.79.61.12.97.12.96 1.08.93 1.81-.06 3.61-.11 5.42-.17.32-.01.67-.09.97.13.09.01.18.04.27.04.9-.03.9-.03.84.82-.01.12.04.17.14.19.45.78.46 1.6.02 2.05-.29.16-.35.43-.32.74.07.57.18 1.13.22 1.7.02.41.29.49.65.43.38-.06.54-.23.47-.63-.15-.82-.31-1.63-.24-2.47.57-.23.72-.66.6-1.24-.11-.49-.01-.86.61-.8.47-.04.93-.07 1.4-.11.44.07.33.46.41.73.11.41.14.82.67.99.43.13.38.62.5.96.12.46.07.94.17 1.41.08.37.29.51.65.49.43-.03.49-.31.46-.65-.04-.52-.2-1.02-.19-1.55.01-.26-.07-.52.1-.76.5-.35 1.08-.28 1.63-.27.55.02.53.49.55.89.24 1.81.47 3.63.72 5.44.07.48.01.67-.57.75-5.09.63-10.18 1.31-15.27 1.98-.68.09-1.37.19-2.05.28-.35 0-.56-.12-.53-.53.02-.25-.06-.51-.1-.76-.33-.43-.75-.5-1.26-.4-.79.15-1.59.21-2.38.33-.29.07-.61.1-.89-.11z"/><path d="m526.37 219.11c1.25-.15 2.5-.27 3.74-.46.57-.09.86.04.79.66-1.29.37-2.64.44-3.95.72-.18.04-.37-.01-.56-.02.01-.3-.01-.6-.02-.9z" fill="#cacaca"/><path d="m523.87 229.06c-1.53.34-3.06.68-4.59 1.02-.05-.01-.08-.03-.07-.07.01-.03.01-.05.03-.05 1.54-.34 3.08-.68 4.62-1.02.05.02.07.05.05.08-.01.02-.03.04-.04.04z" fill="#e7d4b5"/><path d="m519.23 229.96c.01.04.03.08.04.12-.95.21-1.89.43-2.84.63-.22.05-.45.18-.68.02 1.16-.26 2.32-.52 3.48-.77z" fill="#f2e2c6"/><path d="m523.87 229.06c0-.04-.01-.08-.01-.13 1.11-.25 2.22-.49 3.34-.74-.7.45-1.53.41-2.29.64-.35.1-.7.16-1.04.23z" fill="#f2e2c6"/><path d="m511.7 231.6c-.51.11-1.03.23-1.54.34-.05-.01-.07-.04-.07-.07.01-.03.02-.05.03-.05.53-.06 1.02-.38 1.58-.22z" fill="#eddbbe"/><path d="m531.94 227.13c-.42.09-.84.18-1.26.27.35-.34.83-.27 1.24-.4.05.02.07.05.06.08-.02.03-.03.05-.04.05z" fill="#eddbbe"/><path d="m510.13 231.83c.01.04.02.08.03.12-.43.04-.83.32-1.28.15.42-.09.83-.18 1.25-.27z" fill="#f2e2c6"/><path d="m506.37 232.63c-.37.08-.75.17-1.12.25-.05-.01-.07-.04-.07-.07.01-.03.02-.05.03-.05.39-.04.75-.3 1.16-.13z" fill="#eddbbe"/><path d="m538.39 221.18c.32-.06.64-.13.96-.19-.28.23-.59.33-.96.19z" fill="#bbb3a8"/><path d="m531.99 222.01c.32-.06.64-.13.96-.19-.29.23-.6.33-.96.19z" fill="#bab3a8"/><path d="m544.8 220.35c.32-.06.64-.13.96-.19-.29.23-.6.33-.96.19z" fill="#bbb3a8"/><path d="m531.94 227.13c-.01-.04-.01-.08-.02-.12.32-.07.64-.15.97-.22-.25.31-.64.22-.95.34z" fill="#f2e2c6"/><path d="m540.75 224.61c-.2.29-.54.21-.82.31.21-.27.54-.22.82-.31z" fill="#f2e2c6"/><path d="m541.67 220.75c.27-.05.55-.11.82-.16-.24.23-.51.31-.82.16z" fill="#b5aa99"/><path d="m533.69 221.78c.27-.05.55-.11.82-.16-.24.23-.5.31-.82.16z" fill="#b4aa9c"/><path d="m505.21 232.77c.01.04.02.08.03.12-.29.02-.56.24-.86.06.28-.06.56-.12.83-.18z" fill="#f2e2c6"/><path d="m535.26 221.58c.27-.05.55-.11.82-.16-.24.23-.5.31-.82.16z" fill="#b5aa9a"/><path d="m536.83 221.38c.27-.06.55-.11.82-.17-.24.24-.5.32-.82.17z" fill="#b6aa99"/><path d="m540.1 220.95c.27-.05.55-.11.82-.16-.24.23-.51.31-.82.16z" fill="#b5ab9c"/><path d="m531.13 220.88c.06.27.11.55.17.82-.24-.23-.32-.5-.17-.82z" fill="#b5aa98"/><path d="m543.24 220.55c.27-.06.55-.11.82-.17-.24.24-.51.32-.82.17z" fill="#b5aa98"/><path d="m546.51 220.12c.27-.05.55-.11.82-.16-.24.22-.51.31-.82.16z" fill="#b5ab9c"/><path d="m548.07 219.92c.27-.05.55-.11.82-.16-.24.23-.5.31-.82.16z" fill="#b5aa99"/><path d="m538.31 225.43c-.24.05-.47.1-.71.16.19-.24.43-.3.71-.16z" fill="#eddbbe"/><path d="m542.53 224.07c-.16.26-.45.2-.68.28.17-.25.45-.21.68-.28z" fill="#f2e2c6"/><path d="m535.54 226.19c-.23.05-.47.1-.7.15.16-.25.45-.21.69-.27.05.02.07.05.06.08-.03.02-.04.04-.05.04z" fill="#ebdabc"/><path d="m535.54 226.19c-.01-.04-.01-.08-.02-.12.23-.05.46-.1.69-.16-.16.26-.45.2-.67.28z" fill="#f2e2c6"/><path d="m530.54 141.34c-.09.43-.34.43-.72.35-5.78-1.17-11.57-2.33-17.36-3.48-.29-.06-.59-.2-.9-.1-.92-.4-1.93-.47-2.9-.67-3.35-.69-6.71-1.36-10.07-2.01-1.68-.33-3.37-.55-4.97-1.23-3.13-1.33-5.18-3.55-5.87-6.91-.43-2.08-.96-4.13-1.55-6.15-.73-2.47-1.42-4.96-2.32-7.38-.07-.17-.08-.37-.17-.73 1.18 2.56 2.25 4.96 3.38 7.33 1.23 2.57 2.54 5.09 4.11 7.48.86 1.31 1.99 2.08 3.5 2.49 5.61 1.52 11.35 2.36 17.06 3.31 6.42 1.07 12.84 2.11 19.26 3.17.14.02.28.07.42.1-.26 1.23-.53 2.45-.79 3.68-.04.24-.07.49-.11.75z" fill="#a81917"/><path d="m532.32 133.48c.28-.11.57-.04.85-.04-.04.47-.11.94-.11 1.41 0 .56-.2.77-.75.53-.11-.05-.23-.06-.34-.09-.06-.63.23-1.21.35-1.81z" fill="#831911"/><path d="m510.27 144.36c-.65.37-1.35.53-2.09.46.69-.15 1.39-.3 2.09-.46z" fill="#c01f15"/><path d="m591.7 221.39c.01-.05.01-.1.02-.15.21-.31.56-.34.88-.41 1.23-.28 2.46-.57 3.69-.81.59-.12.86-.34.77-1-.11-.85 0-1.71.24-2.54.1-.35.27-.6.65-.67 3.92-.87 7.84-1.73 11.76-2.6.4.03.63.29.86.58.44.56.78 1.19 1.06 1.85.39.9.4.9 1.39.68 1.14-.25 2.27-.5 3.41-.75.32-.07.65-.18.97-.01.03.04.04.09.04.13-.18.25-.45.34-.73.4-1.6.35-3.19.74-4.8 1.05-1.44.35-2.89.66-4.34.97-1.9.43-3.8.87-5.71 1.26-1.44.35-2.89.67-4.34.96-1.63.4-3.28.74-4.92 1.1-.28.06-.56.12-.83-.05-.02-.01-.07.01-.07.01z" fill="#8a8989"/><path d="m597.95 215.81c-.73.66-.58 1.59-.72 2.43-.05.27-.07.59.03.84.29.81-.11.99-.81 1.13-1.58.3-3.15.68-4.72 1.03-.33-1.31-.29-2.65-.29-3.99 2.16-.48 4.33-.96 6.51-1.44z" fill="#757575"/><path d="m617.4 215.55c-1.67.37-3.34.73-5.01 1.12-.39.09-.56.04-.72-.39-.43-1.15-.95-2.28-1.96-3.07 2.09-.52 4.18-.99 6.29-1.39.49.83.85 1.71 1.17 2.61.08.38.15.75.23 1.12z" fill="#757575"/><path d="m525.8 198.75c.01-3.37.26-6.74.56-10.09.5-5.46 1.25-10.89 2.24-16.28 1.42.12 2.83.26 4.25.36.52.04.61.23.51.73-1.06 5.72-1.84 11.47-2.37 17.26-.26 2.85-.42 5.71-.52 8.58 0 .11-.04.22-.07.34-.16.14-.35.13-.54.12-1.15-.11-2.3-.22-3.45-.37-.34-.05-.72-.12-.61-.65z" fill="#325866"/><path d="m531.47 208.33c-.04-.34-.13-.54-.56-.47-.38.06-.78 0-1.17-.01-.42-.16-.29-.55-.35-.85-.05-.25-.08-.51-.08-.78.02-1.61-.07-3.22-.11-4.83-.01-.32-.11-.7.25-.9.37-.21.73-.13 1.05.15 3.49.35 6.98.7 10.47 1.05.28.03.57.1.84-.04.12.15.3.16.46.16.35.01.45.18.41.5-.23 1.74-.46 3.49-.68 5.23-.04.33-.17.44-.5.43-.78-.02-1.56 0-2.35 0-.52.26-1.08.15-1.61.13-1.57-.04-3.14-.02-4.71-.09-.5-.01-.96.04-1.36.32z" fill="#8dabb3"/><path d="m530.49 200.64c-1.2-.15-1.18-.15-1.11 1.02.08 1.38.12 2.76.17 4.15.01.19-.03.38-.16.53-.88.38-1.77.28-2.65 0-.12 0-.24 0-.36-.01-1.52-.06-1.52-.06-1.56-1.62-.04-1.68-.07-3.36-.15-5.03-.02-.48.09-.69.56-.58.33.07.49-.05.56-.35.06.39.34.44.67.47 1.31.13 2.63.28 3.94.42.04.34.06.67.09 1z" fill="#72898f"/><path d="m520.1 153.58c3.49.83 6.96 1.72 10.47 2.44 1.35.28 2.7.54 4.05.82.91.19 1.8.43 2.62.89-.21.28-.49.11-.71.06-5.41-1.15-10.79-2.43-16.12-3.91-.14-.03-.44.04-.31-.3z" fill="#345967"/><path d="m517.43 152.87c.52.14 1.03.27 1.55.41-.59.14-1.12.05-1.55-.41z" fill="#3e6371"/><path d="m545.26 144.96c-.7.79-1.6 1.3-2.51 1.78-1.04-2.77-2.8-4.87-5.63-5.96-.59-.23-1.2-.3-1.81-.33-1.55-.07-2.29-.84-2.21-2.39.04-.66.17-1.32.24-1.98.03-.26.12-.41.41-.33 3.09.86 6.27 1.35 9.28 2.53.25.06.47.29.75.11.95.47 1.71 1.14 2.23 2.08.66 1.65.09 3.09-.75 4.49z" fill="#ef8968"/><path d="m557.49 217.53c-.43-1.11-.9-2.21-1.81-3.03-.49-.45-.24-.58.22-.7 1.19-.33 2.31-.85 3.38-1.47 4.18-2.39 6.85-5.99 8.41-10.49.45-1.3.8-2.63 1.03-4 .03-.2.01-.44.25-.56-.39 3.37-1.35 6.58-2.76 9.65-1.74 3.8-4.19 7.06-7.48 9.67-.4.33-.73.74-1.24.93z" fill="#d0b792"/><path d="m570.89 181.47c-.31-1.94-1.01-3.73-2.06-5.39.79-.33 1.63-.44 2.46-.59.5.34.58.9.72 1.43.6 2.24.83 4.54.88 6.85.02.95.06.98 1 .77.54-.12 1.07-.24 1.6-.35.28-.06.56-.13.83.05.02.09.05.19.05.28-.11 2.2-.11 2.2-2.26 2.68-.7.15-1.4.29-2.09.47-.48.13-.66.06-.67-.51-.01-1.51-.05-3.03-.32-4.52.07-.41-.22-.77-.14-1.17z" fill="#e7c742"/><path d="m576.32 184.24c-1.02.22-2.04.43-3.06.67-.4.09-.57.08-.58-.45-.02-2.53-.21-5.05-.89-7.5-.13-.48-.3-.94-.46-1.41.03-.03.05-.07.08-.1.67-.12 1.31-.41 2.01-.36 1.25 2.39 2.31 4.86 2.83 7.53-.1.25.13.49.04.74.02.29.02.58.03.88z" fill="#fee069"/><path d="m545.26 144.96c.22-.62.43-1.25.66-1.87.32-.89.23-1.77-.06-2.64-.11-.32.16-.42.34-.54 2.14-1.36 4.19-2.85 6.06-4.56.13-.12.26-.28.49-.24.94.97.63 2.68-.07 3.51-1.82 2.16-4.07 3.81-6.28 5.51-.22.17-.41.36-.62.54-.18.1-.35.19-.52.29z" fill="#bf1718"/><path d="m552.74 135.11c-1.9 1.83-4.02 3.39-6.24 4.81-.24.15-.52.24-.65.52-.48-.68-1.03-1.28-1.78-1.68-.15-.08-.27-.19-.3-.37 1.6-1.26 3.2-2.53 4.81-3.77.25-.19.58-.29.88-.43.35-.15.72-.23 1.1-.24.91.06 1.69.34 2.18 1.16z" fill="#e32a13"/><path d="m569.3 192.79c-.01-2.43-.05-4.87-.35-7.28-.23-1.78-.53-3.55-.8-5.33.02-.08.06-.08.12-.03.98 4.03 1.27 8.12 1.21 12.25 0 .21.01.43.02.64-.28.07-.23-.09-.2-.25z" fill="#d4bc99"/><path d="m569.3 192.79c.06.08.13.17.19.25-.1 1.09-.18 2.18-.3 3.26-.02.23.09.55-.26.67.12-1.39.24-2.78.37-4.18z" fill="#dac4a2"/><path d="m571.34 175.54c-.84.18-1.67.36-2.51.54.75-.5 1.65-.44 2.47-.7.05.01.08.03.07.06s-.02.05-.03.05z" fill="#f8e4a0"/><path d="m571.33 175.5c-.01-.04-.02-.08-.03-.11.72-.07 1.38-.52 2.13-.3-.7.13-1.4.27-2.1.41z" fill="#feedbd"/><path d="m568.26 180.15-.06.01s-.06.01-.06.01c-.12-.55-.25-1.11-.37-1.66.37.49.31 1.1.49 1.64z" fill="#dac4a2"/><path d="m550.57 133.96c-.37.08-.74.16-1.1.24.33-.26.69-.35 1.1-.24z" fill="#dac4a2"/><path d="m570.89 181.47c.07.39.27.76.13 1.16-.06-.38-.3-.75-.13-1.16z" fill="#f8e4a0"/><path d="m503.78 234.99c-.22-.29-.25-.63-.31-.97.27.27.25.64.31.97z" fill="#dac4a2"/><path d="m576.3 183.35c-.04-.25-.18-.49-.04-.74.04.24.22.48.04.74z" fill="#feedbd"/><path d="m486.14 244.59c.03.04.05.09.08.13h-.06c-.17.27-.45.33-.73.39-1.64.36-3.27.75-4.92 1.08-1.44.35-2.89.67-4.34.96-1.9.45-3.8.87-5.71 1.27-1.44.34-2.88.66-4.33.95-1.6.39-3.2.72-4.81 1.07-.23.05-.47.1-.71.04-.09-.02-.15-.08-.17-.17.17-.36.53-.37.84-.45 1.22-.28 2.45-.57 3.68-.81.56-.11.82-.36.76-.96-.07-.76-.02-1.52.16-2.26.09-.37.18-.74.55-.95 3.92-.87 7.84-1.74 11.76-2.6.37-.09.63.06.87.33.56.66 1.03 1.38 1.28 2.2.2.63.54.73 1.12.58 1.22-.3 2.46-.56 3.69-.82.34-.05.67-.17.99.02z" fill="#8a8989"/><path d="m472.19 236.39c4.6-1.02 9.21-2.04 13.81-3.05.19-.04.37-.09.56-.12.29-.05.52.07.65.32.14.28.11.55-.11.79s-.51.33-.82.4c-9.18 2.03-18.37 4.06-27.55 6.09-.28.06-.56.11-.84.02-.33-.11-.52-.34-.51-.69.01-.32.2-.53.51-.6.3-.07.6-.14.91-.2 4.46-.98 8.92-1.97 13.39-2.96z" fill="#9d1915"/><path d="m473.12 240.57c-4.51 1-9.02 1.99-13.53 2.99-.16.04-.32.09-.49.1-.48.06-.95.02-1.08-.55-.14-.63.34-.74.8-.84 9.14-2.02 18.27-4.04 27.41-6.06l.84-.18c.34-.08.62.01.77.35.16.36.03.64-.26.88-.25.21-.56.24-.86.31-4.54 1-9.07 2-13.6 3z" fill="#9d1915"/><path d="m471.55 233.61c4.65-1.03 9.3-2.06 13.95-3.09.48-.11 1.01-.27 1.14.42.13.65-.37.86-.89.98-9.25 2.05-18.51 4.09-27.76 6.14-.26.06-.52.07-.77-.03-.3-.11-.47-.33-.46-.65 0-.32.18-.53.49-.61.18-.05.37-.09.56-.13z" fill="#9d1915"/><path d="m486.14 244.59c-1.69.37-3.38.73-5.07 1.12-.47.11-.66.02-.79-.47-.27-1.02-.84-1.89-1.52-2.69-.16-.19-.37-.18-.56-.26 2.17-.48 4.35-.96 6.52-1.44.57 1.21 1.16 2.41 1.42 3.74z" fill="#757575"/><path d="m466.44 244.89c-.58 1.12-.58 2.33-.49 3.53.05.57-.16.67-.61.77-1.62.34-3.24.72-4.86 1.08-.03-.02-.06-.05-.09-.07-.08-.34-.2-.68-.2-1.04-.1-.96-.14-1.91-.04-2.87 2.08-.53 4.18-.99 6.29-1.4z" fill="#757575"/><path d="m500.74 76.73c-2.65.08-5.31.09-7.96-.1-.53-1.73-.87-3.51-1.22-5.28-.59-2.94-1.5-5.8-2.09-8.74-.07-.36-.24-.74-.01-1.11 2.52.96 5.12.81 7.72.54.49.53.64 1.22.78 1.88.85 3.89 1.98 7.72 2.73 11.63.09.39.27.78.05 1.18z" fill="#524e4e"/><path d="m500.74 76.73c-1.08-4.92-2.26-9.82-3.55-14.69 1.68-.34 3.39-.56 5.03-1.07 1.13 2.47 2.27 4.95 3.4 7.42 1.18 2.59 2.2 5.24 3.19 7.9-2.32.35-4.67.34-7.01.45-.35.02-.7 0-1.06-.01z" fill="#969494"/><path d="m489.47 61.51c1.09 4.9 2.38 9.75 3.38 14.66.03.16.24.35-.07.46-3.28-.23-6.61-.27-9.63-1.85-2.13-1.11-3.13-2.95-3.41-5.26-.15-1.23-.06-2.45.19-3.68.46-2.3 1.9-3.72 4-4.53 1.86-.7 3.72-.61 5.54.2z" fill="#333"/><path d="m512.83 143.36c.36.78.42 1.64.63 2.46.35 1.43.67 2.86.99 4.3.03.15.15.31-.01.46-.54-2.41-1.08-4.82-1.61-7.22z" fill="#d82714"/><path d="m611.83 216.94c1.87-.42 3.74-.83 5.6-1.25.84 3.61.17 6.97-1.88 10-2.95 4.36-7.17 6.37-12.36 5.82-5.2-.56-8.83-3.47-10.88-8.3-.25-.58-.48-1.19-.56-1.84 1.9-.42 3.8-.84 5.7-1.26.2.13.24.34.32.54 1.23 3.47 4.58 5.53 8.17 4.83 3.42-.67 5.92-3.57 5.82-7.35-.01-.4-.11-.8.07-1.19z" fill="#a7a7a7"/><path d="m480.46 245.98 5.7-1.26c1.41 6.09-2.08 12.66-7.95 14.96-6.67 2.62-13.99-.32-16.96-6.82-.26-.56-.5-1.13-.62-1.75-.11-.22-.22-.45-.12-.71 1.86-.41 3.71-.83 5.57-1.24.31.26.4.64.54.99 1.25 3.13 4.65 5.04 7.99 4.38 3.3-.65 5.66-3.45 5.82-6.72.04-.6-.15-1.22.03-1.83z" fill="#a7a7a7"/><path d="m460.52 250.41c.04.24.08.47.12.71-.23-.17-.18-.46-.29-.69.01-.04.01-.08-.01-.12.01-.06.04-.08.1-.06 0 0 .05.03.05.03.01.04.02.09.03.13z" fill="#757575"/><path d="m538.06 147.56c-.48.45-1.04.71-1.71.7-.84-.02-1.53-.51-1.7-1.24-.17-.72.18-1.43.91-1.82.29-.15.6-.26.91-.39.02.03.05.04.09.03.82-.09 1.57.27 1.9.94.31.62.19 1.14-.4 1.78z" fill="#020202"/><path d="m538.06 147.56c.72-1.1.57-2.35-1.51-2.72 1.21-.9 1.86-.89 2.98.05.54.46.57.82.16 1.4-.29.41-.76.62-1.09.99-.18.1-.36.19-.54.28z" fill="#363636"/><path d="m460.44 250.24c-.03.02-.06.04-.1.06-.06-.38-.29-.74-.15-1.15.08.37.17.73.25 1.09z" fill="#272727"/><path d="m531.47 208.33c.1-.24.1-.54.51-.53 2.38.07 4.77.12 7.15.18-.01.4-.03.8-.04 1.2-2.41.09-4.81.17-7.22.28-.29.01-.39-.08-.39-.34 0-.27-.01-.53-.01-.79z" fill="#fef1d8"/><path d="m545.16 212.65c-.18-.39.07-1.15-.84-.9-.19.05-.16-.29-.22-.46-.16-.45.03-.99-.34-1.39 1.09-.22 2.04.29 3.04.55.46.12.87.38 1.32.54.59.2.75.6.6 1.16-.02-.69-.38-.85-1.01-.71-.38.09-.8.03-1.18.17-.12.02-.24.01-.35 0-.53-.06-.97-.01-.82.72.02.13-.02.28-.2.32z" fill="#cbcbcb"/><path d="m540.19 212.16c.25-.06.41-.15.34-.47-.09-.48-.13-.97-.19-1.45.63-.51 1.33-.26 2.02-.22-.46.01-.61.23-.47.67.05.18.01.38.07.56.21.67-.11.86-.71.81-.33.26-.66.53-1.06.1z" fill="#c9c9c9"/><path d="m526.74 206.34h2.65c.37.45.02 1.06.35 1.51-1.02.11-2.04.13-3.07.11.25-.53.07-1.08.07-1.62z" fill="#cac1ad"/><path d="m544.01 212.92c.04.31.09.93.21 1.53.13.62-.32.54-.63.55-.3.01-.78.38-.86-.32-.09-.8-.19-1.6-.32-2.39-.06-.37.08-.42.39-.47 1.01-.17 1.01-.19 1.21 1.1z" fill="#fcfcfc"/><path d="m545.16 212.65c.09-.13.04-.27.05-.4.02-.26-.31-.64.05-.74.39-.11.88-.32 1.26.11.1.82.19 1.65.31 2.46.05.37.01.54-.43.58-1.01.09-1.01.12-1.12-.88-.04-.38-.08-.76-.12-1.13z" fill="#fcfcfc"/><path d="m540.19 212.16c.37.18.7-.11 1.06-.1.1.8.13 1.61.32 2.39.23.91-.36.84-.91.96-.73.16-.54-.4-.59-.73-.11-.7-.15-1.41-.27-2.11-.05-.38.12-.42.39-.41z" fill="#fcfcfc"/><path d="m611.83 216.94c.7 4.16-1.69 7.82-5.71 8.7-3.95.86-7.83-1.66-8.67-5.52 1.44-.32 2.89-.64 4.33-.95.24.15.32.41.46.62.68 1.06 1.86 1.56 3.01 1.28 1.18-.29 1.94-1.22 2.05-2.52.02-.24.01-.48.21-.65 1.43-.33 2.88-.64 4.32-.96z" fill="#c5c4c4"/><path d="m604.62 218.39c-.79.17-1.58.34-2.37.53-.33.08-.55.07-.57-.36-.06-1.29.96-2.64 2.24-2.94 1.35-.32 2.71.36 3.3 1.62.18.38.2.58-.3.66-.77.12-1.53.32-2.3.49z" fill="#6b6b6b"/><path d="m607.5 217.89c0 1.01-.09 1.98-.96 2.7-1.71 1.42-4.11.71-4.76-1.43 1.91-.42 3.81-.85 5.72-1.27z" fill="#999"/><path d="m480.46 245.98c.87 3.86-1.59 7.78-5.53 8.66-4.02.9-7.73-1.41-8.85-5.48 1.44-.32 2.89-.64 4.33-.97.29.08.37.34.5.57.62 1.08 1.72 1.6 2.89 1.36 1.13-.23 2-1.17 2.18-2.36.04-.28 0-.58.16-.83 1.44-.31 2.88-.63 4.32-.95z" fill="#c5c4c4"/><path d="m473.22 247.44c-.79.17-1.58.35-2.37.52-.23.05-.43.14-.46-.28-.11-1.35.84-2.72 2.18-3.03 1.38-.32 2.92.46 3.41 1.7.13.34.01.48-.31.55-.82.18-1.63.36-2.45.54z" fill="#6b6b6b"/><path d="m476.14 246.94c.22 1.57-.64 2.91-2.17 3.38-1.3.4-2.76-.39-3.37-1.81-.05-.11-.12-.2-.18-.3 1.9-.43 3.81-.85 5.72-1.27z" fill="#999"/><path d="m481.54 66.08c.99-1.8 2.47-2.79 4.57-2.7 2.06.1 3.72 1.49 4.15 3.41.43 1.91-.49 3.87-2.29 4.87-.12.07-.24.15-.36.22-.77.61-1.67.59-2.57.49-2.81-.31-4.69-3.15-3.81-5.75.07-.2.12-.41.31-.54z" fill="#fef1d8"/><path d="m481.54 66.08c-1.3 3.37 1.22 6.23 4.27 6.16.62-.01 1.21-.2 1.8-.37.03.06.35-.02.13.13-2.53 1.75-6.13.39-6.89-2.38-.29-1.06-.21-2.07.24-3.06.09-.19.09-.51.45-.48z" fill="#151515"/><path d="m466.3 152.8c-3.74-6.18-10.68-9.31-17.43-7.82-13.12 2.89-26.24 5.79-39.35 8.7-2.35.52-4.51 1.46-6.34 3.07-.26.26-.29.59-.32.92-.2 1.98-.12 3.95.3 5.89.89 4.07 1.79 8.14 2.7 12.21.77 3.45 2.31 6.51 4.83 9 3.93 3.9 8.6 5.78 14.2 4.88.39-.06.76-.03 1.12.1 1.22.42 2.5.59 3.77.79 2.27.35 4.44-.2 6.64-.64 2.97-.59 5.48-2 7.73-3.95.59-.51 1.23-.85 2-1.02 6.4-1.4 12.78-2.85 19.19-4.21 1.91-.41 3.6-1.2 5.21-2.24.38-.24.77-.49.92-.96.41-2.06.37-4.12-.06-6.16-.88-4.22-1.83-8.42-2.76-12.64-.45-2.09-1.23-4.07-2.35-5.92z" fill="#e32a13"/><path d="m557.13 218.77c.13 0 .24-.03.32-.06l-.39.07c.03-.01.05-.01.07-.01z" fill="#fefefe"/><path d="m548.25 218.17c-.04.01-.07.01-.11.02-1.2.15-2.4.33-3.61.48-3.85.47-7.7 1-11.55 1.48 3.87.1 12.34.08 15.27-1.98z" fill="#fefefe"/><path d="m548.64 213.4c.11 1.17.31 2.34.45 3.5.01.11.02.2.03.29.11-.25.16-.52.14-.81-.09-1.22-.34-2.2-.62-2.98z" fill="#fefefe"/><path d="m548.33 211.09c-.42-.11-.66-.17-.78-.15-.35.05.45.76 1.08 2.46.29.78.54 1.76.63 2.98.02.29-.03.56-.14.81-.16.37-.47.7-.88.98-2.93 2.05-11.39 2.08-15.26 1.98-1.21-.03-1.98-.08-1.98-.08s0 .71.06 1.25.24.99 1.43.73c1.2-.26 22.55-2.93 22.55-2.93l2.02-.35.39-.07.37-.06s-.06-.53-.28-1.25c-.28-.9-.82-2.1-1.85-2.9 0 .01-5.11-2.79-7.36-3.4z" fill="#fefefe"/><path d="m465.26 180.54c-6.46 1.37-12.89 2.84-19.34 4.25-.05.01-.1.03-.15.04l-20.82 4.6c-.02 0-.04.01-.06.01-.51.13-1.02.18-1.55.22-3.17.26-6.1-.53-8.79-2.11-4.59-2.7-7.35-6.76-8.51-11.93-.89-3.98-1.76-7.96-2.64-11.93-.51-2.3-.56-4.6-.22-6.93-.23.04-.36.22-.51.36-4.95 4.63-6.62 10.33-5.36 16.89.78 4.09 1.78 8.14 2.67 12.21.33 1.49.76 2.95 1.46 4.3 2.87 5.6 7.28 9.06 13.64 9.8.81.09 1.63.08 2.44.11.42.26.84.06 1.25-.03 13.75-3.03 27.5-6.08 41.25-9.12.23-.05.47-.1.69-.18.25-.09.49-.19.6-.46 3.72-1.4 6.45-3.94 8.33-7.4.97-1.78 1.67-3.66 1.85-5.71-1.86 1.48-3.89 2.51-6.23 3.01z" fill="#bf1718"/><path d="m429.79 152.2c.19.03.37-.04.55-.06 7.49-1.08 14.85 2.31 18.98 8.42 1.03 1.52 1.83 3.16 2.4 4.92 2.98 9.14-1.08 19.06-9.61 23.5-1.98 1.03-4.08 1.69-6.29 2.01-7.82 1.12-15.5-2.62-19.51-9.24-.91-1.5-1.6-3.1-2.09-4.79-.01-.04 0-.1-.06-.11-.15-.69-.3-1.37-.45-2.06.04-.03.02-.06.01-.09-.04-.26-.08-.53-.11-.79-.25-2.03-.18-4.06.21-6.07 1.37-7.12 6.6-12.92 13.55-15.03.15-.04.31-.06.43-.16.66-.15 1.32-.3 1.99-.45zm-14.38 23.27c2.16 9.76 11.8 15.91 21.56 13.76 9.77-2.15 15.93-11.8 13.77-21.57-2.16-9.76-11.81-15.92-21.57-13.77-9.76 2.16-15.92 11.82-13.76 21.58z" fill="#fe0101"/><path d="m415.41 175.47c-2.16-9.76 4-19.42 13.76-21.58 9.77-2.16 19.42 4 21.57 13.77 2.16 9.77-4.01 19.42-13.77 21.57s-19.4-4-21.56-13.76zm21.47 13.32c9.51-2.1 15.52-11.5 13.43-21.01-2.1-9.53-11.5-15.55-21.03-13.45-9.52 2.1-15.54 11.51-13.44 21.02 2.1 9.53 11.51 15.54 21.04 13.44z" fill="#fef9f9"/><path d="m436.88 188.79c-9.52 2.1-18.94-3.91-21.04-13.44-2.1-9.52 3.92-18.92 13.44-21.02 9.53-2.1 18.93 3.92 21.03 13.45 2.09 9.51-3.92 18.91-13.43 21.01zm13.1-20.96c-2.06-9.33-11.28-15.22-20.61-13.17-9.34 2.05-15.24 11.28-13.19 20.62 2.06 9.35 11.29 15.25 20.63 13.19 9.33-2.07 15.23-11.3 13.17-20.64z" fill="#fe0606"/><path d="m449.98 167.83c2.06 9.34-3.83 18.57-13.17 20.63s-18.58-3.84-20.63-13.19c-2.05-9.34 3.85-18.57 13.19-20.62 9.33-2.04 18.55 3.85 20.61 13.18zm-26.44 14.81c-.01.07.02.11.04.14.06.1.12.19.18.28 1.07 1.42 2.43 2.47 4.07 3.15 2.28.95 4.65 1.11 7.07.78 1.61-.22 3.15-.66 4.64-1.3 1.02-.44 2.01-.95 2.89-1.64.39-.3.75-.64.98-1.09.26-.51.33-1.03.01-1.54-.27-.43-.7-.63-1.18-.71-.68-.12-1.33.02-1.96.24-.76.27-1.48.64-2.2 1.01-1.55.81-3.1 1.61-4.8 2.07-1.79.48-3.58.66-5.42.32-1.34-.25-2.59-.75-3.77-1.42-.18-.1-.37-.19-.55-.29zm3.61.62c.05.08.12.1.18.12.21.08.43.14.65.18 1.28.21 2.57.18 3.84-.07 2.13-.42 4.12-1.19 5.95-2.36.56-.36 1.13-.73 1.62-1.2.13-.13.26-.25.33-.43.15-.39-.01-.66-.42-.71-.3-.04-.57.04-.85.14-.9.31-1.74.75-2.58 1.2-1.82.99-3.65 1.96-5.65 2.57-.72.22-1.44.4-2.18.48-.29.02-.58.02-.89.08zm1.92-9.15c.02-.01.04-.01.06-.02.04.05.08.1.12.16.07.09.12.22.21.26.1.04.18-.11.27-.16.08-.05.12-.06.15.05.05.2.11.4.16.61.02.09.06.12.15.1.34-.08.68-.16 1.03-.23.13-.03.16-.08.14-.21-.11-.56-.21-1.11-.31-1.67-.11-.66-.22-1.33-.32-1.99-.02-.11-.06-.13-.17-.11-.46.11-.92.21-1.38.3-.13.03-.15.07-.11.19.17.59.34 1.19.49 1.78.04.15.18.32.08.44-.09.11-.3.1-.46.13-.12.03-.14-.02-.16-.12-.12-.71-.24-1.43-.36-2.14-.02-.14-.08-.15-.2-.12-.48.11-.96.22-1.44.32-.15.03-.19.08-.14.23.33 1.19.68 2.37.97 3.57.03.12.09.12.18.1.38-.09.76-.17 1.14-.25.14-.03.15-.08.12-.21-.08-.33-.15-.67-.22-1.01zm11.56 5.95c.3-.07.59-.13.87-.16.61-.06 1.21-.06 1.78.2.73.33 1.17.89 1.23 1.71.02.2 0 .41.07.63.15-.14.22-.3.27-.46.16-.52.14-1.05-.02-1.57-.12-.41-.33-.78-.53-1.15-.24-.44-.24-.87-.01-1.31.16-.31.37-.58.57-.86.65-.89 1.01-1.89 1-3 0-.16 0-.33-.08-.5-.07.08-.08.17-.11.25-.11.37-.22.75-.34 1.12-.31 1.02-.9 1.84-1.74 2.49-.2.16-.42.29-.66.38-.42.15-.84.11-1.24-.06-.62-.25-1.25-.27-1.89-.09-.1.03-.25.06-.26.16 0 .1.15.1.24.14.14.05.28.09.41.15.53.25.75.77.58 1.33-.02.18-.12.36-.14.6zm-1.62-10.4c.1.34.19.62.26.9.2.75.4 1.5.59 2.25.03.11.06.15.18.13.45-.05.89-.13 1.33-.27 1.1-.35 1.63-1.21 1.41-2.34-.2-1.04-.87-1.64-1.89-1.68-.68-.03-1.31.2-1.95.39-.08.03-.08.08-.06.14.05.18.1.36.13.48zm-17 5.87c.02-.01.03-.02.05-.03.72.31 1.43.63 2.18.96-.12-.61-.24-1.17-.34-1.74-.13-.71-.24-1.42-.35-2.13-.02-.11-.05-.15-.17-.12-.22.06-.45.11-.68.15-.11.02-.12.06-.09.16.07.23.13.47.2.75-.11-.06-.19-.1-.27-.14-.26-.15-.52-.31-.77-.46-.08-.05-.16-.06-.25-.04-.34.08-.67.16-1.01.23-.1.02-.13.05-.1.16.34 1.21.72 2.42 1.03 3.64.02.09.05.11.14.09.19-.05.37-.09.56-.12.12-.02.15-.07.12-.2-.09-.39-.17-.78-.25-1.16zm-3.19-2.04c-.39.09-.78.18-1.18.26-.14.03-.17.07-.13.21.35 1.17.66 2.35.96 3.54.04.15.09.17.23.14.62-.14 1.24-.28 1.86-.4.18-.04.28-.1.25-.3-.02-.14 0-.29.01-.44.01-.1-.02-.13-.12-.09-.2.08-.4.15-.61.21-.26.07-.27.07-.32-.19-.01-.06-.02-.11-.03-.17-.03-.11-.01-.17.12-.18.19-.02.37-.06.55-.08.07-.01.09-.03.09-.1-.01-.17 0-.35 0-.52 0-.09-.02-.13-.12-.1-.14.04-.29.07-.43.1-.37.09-.36.09-.41-.29-.01-.09 0-.12.09-.13.21-.02.41-.06.62-.07.12-.01.17-.04.15-.18-.08-.45-.15-.89-.2-1.34-.02-.13-.07-.14-.18-.11-.4.06-.8.14-1.2.23zm18.32-.42c.11.14.21.26.3.38.06.08.1.07.15 0 .09-.12.19-.23.3-.32.15-.13.16-.14.26.05.05.1.1.14.22.1.31-.08.62-.14.93-.21.34-.08.34-.08.19-.38-.54-1.09-1.08-2.19-1.55-3.31-.04-.1-.1-.1-.19-.08-.41.09-.82.19-1.23.27-.15.03-.2.09-.17.24.02.09.01.19.02.29.06 1.12.02 2.23-.01 3.35-.01.28 0 .28.28.22.15-.03.34-.03.44-.12.1-.1.02-.3.06-.48zm6.89-1.51c.13.1.2.24.29.35.06.08.1.1.18 0 .09-.12.19-.22.3-.33.09-.1.17-.12.22.04.04.12.12.16.26.13.36-.09.72-.17 1.08-.24.14-.03.16-.07.1-.2-.56-1.15-1.14-2.29-1.64-3.47-.04-.09-.08-.1-.17-.08-.32.08-.65.14-.98.22-.14.03-.33.01-.41.12-.08.1 0 .27 0 .41v.02c.05 1.1.03 2.2-.01 3.3-.01.37-.01.37.35.29.38-.09.38-.09.41-.48 0-.02.01-.04.02-.08zm-16.74 3.37c-.11.06-.21.12-.31.17-.34.16-.76.06-.98-.23-.38-.5-.18-1.18.4-1.4.14-.05.28-.09.43-.09.12 0 .13-.04.1-.14-.13-.45-.25-.9-.37-1.36-.02-.09-.07-.1-.15-.1-.29.01-.56.08-.83.16-1.09.32-1.67 1.2-1.47 2.28.31 1.71 1.86 2.16 3.07 1.57.08-.04.14-.07.14-.19-.02-.2-.02-.42-.03-.67zm19.52-4.3c.09.2.19.38.27.57.05.13.14.16.27.14.21-.03.42-.07.63-.14.46-.17.73-.56.7-1.01-.02-.26-.15-.47-.32-.66-.11-.13-.24-.24-.33-.38-.13-.22-.03-.45.22-.51.05-.01.11-.03.17-.02.1.01.11-.03.09-.12-.13-.45-.25-.91-.37-1.36-.02-.09-.06-.12-.15-.12-.39.01-.78.05-1.15.2-.46.18-.83.46-.89.99-.06.54.16.96.61 1.26.17.12.36.21.54.32.11.06.22.13.3.22.11.11.16.24.11.39-.04.14-.17.18-.29.2-.14.01-.27.02-.41.03zm-11.88.99c-.09-.5-.18-.99-.26-1.49-.02-.12-.06-.14-.17-.12-.47.11-.95.21-1.42.32-.21.05-.21.05-.15.26.14.47.28.94.41 1.42.19.7.36 1.4.54 2.1.02.08.03.15.15.12.7-.16 1.4-.31 2.1-.46.08-.02.1-.05.1-.12-.01-.2-.02-.39-.01-.59 0-.11-.03-.11-.11-.08-.25.09-.5.19-.75.25-.1.02-.14.01-.16-.1-.09-.49-.18-1-.27-1.51zm-1.92.79c-.11-.61-.22-1.22-.32-1.84-.02-.11-.06-.14-.16-.11-.5.11-.99.22-1.49.33-.12.02-.14.06-.11.18.11.4.22.8.32 1.2.21.8.43 1.61.64 2.41.03.11.07.13.18.11.39-.09.78-.18 1.18-.26.1-.02.12-.06.1-.16-.12-.62-.23-1.24-.34-1.86zm-.6-8.91c.05.06.08.09.11.13.16.21.16.21.33.02.04-.04.08-.08.12-.12.08-.09.14-.08.19.03.04.1.1.11.2.09.26-.06.53-.12.8-.17.11-.02.13-.05.08-.16-.41-.87-.85-1.73-1.23-2.62-.03-.06-.05-.1-.14-.08-.32.08-.65.15-.98.22-.08.02-.11.06-.1.14.04.51.04 1.02.03 1.52-.01.46-.02.91-.02 1.37 0 .05-.04.13.07.11.16-.03.34-.04.47-.12.09-.05.01-.21.05-.32.01-.01.01-.01.02-.04zm-5.61 1.26c.05.02.06.06.09.09.18.23.18.23.38.02.03-.03.07-.06.1-.09.07-.08.13-.08.17.02s.11.12.22.09c.26-.07.52-.13.78-.17.15-.02.14-.08.09-.19-.42-.85-.83-1.72-1.22-2.59-.04-.08-.07-.11-.16-.09-.32.08-.64.15-.96.21-.09.02-.1.06-.09.14.04.5.04 1 .03 1.51-.01.46-.02.91-.03 1.37 0 .05-.04.15.07.13.16-.02.34-.04.47-.12.09-.05.03-.21.05-.32-.01 0 0 0 .01-.01zm10.05-2.24c.1.06.14.14.19.22.07.11.12.13.2.02.05-.07.12-.14.18-.2.07-.08.14-.09.18.03.04.1.11.12.21.09.25-.06.51-.12.76-.17.15-.03.15-.07.09-.2-.41-.86-.81-1.71-1.21-2.57-.05-.1-.09-.1-.18-.08-.3.07-.6.14-.9.19-.12.02-.15.08-.15.19.06.91.04 1.83.01 2.74-.01.24 0 .24.23.19.36-.08.36-.08.39-.45zm-5.24.9c-.07.04-.13.08-.19.1-.34.17-.69.07-.86-.25-.18-.35-.08-.72.25-.91.13-.07.26-.1.4-.12.1-.01.13-.04.1-.15-.09-.32-.18-.64-.26-.97-.03-.1-.08-.12-.17-.11-.24.03-.48.08-.71.16-.63.22-1 .68-1.03 1.31-.06 1.31 1.15 2.15 2.33 1.6.06-.03.14-.03.14-.13.01-.15.01-.33 0-.53zm4.06-2.76c-.01 0-.02 0-.02.01-.04-.17-.08-.34-.11-.51-.01-.06-.03-.12-.12-.11-.25.02-.51.03-.76.1-.64.19-.93.66-.76 1.23.08.26.25.45.49.58.18.1.36.2.53.31.11.07.16.19.14.32-.03.14-.15.16-.26.18-.03.01-.07.01-.1.01-.17-.01-.16.06-.1.18.21.43.2.43.66.33.55-.12.99-.73.42-1.34-.09-.09-.18-.19-.25-.3-.08-.13-.01-.28.13-.35.08-.04.22.02.25-.09.02-.08-.04-.19-.06-.28-.03-.1-.05-.19-.08-.27zm-11.73 3.48c.01 0 .03-.01.04-.01.1.45.2.9.3 1.36.03.13.08.16.21.13.43-.1.86-.19 1.29-.29.31-.07.31-.07.3-.37 0-.06-.01-.11 0-.17.01-.12-.01-.15-.13-.1-.15.07-.31.1-.46.16-.13.05-.17.01-.19-.12-.12-.73-.25-1.46-.38-2.19-.02-.11-.05-.15-.17-.12-.36.09-.72.16-1.08.24-.11.02-.14.05-.1.17.12.43.24.87.37 1.31zm3.74 4.05c.12.46.22.78.3 1.11.03.1.07.13.18.12.3-.04.59-.09.87-.22.54-.26.76-.72.61-1.32-.14-.58-.56-.91-1.15-.89-.33.01-.65.1-.96.2-.09.03-.11.07-.08.16.09.32.17.64.23.84zm2.11-.33c.09.33.18.67.27 1 .02.07.03.11.12.09.37-.09.74-.16 1.11-.25.04-.01.09-.01.09-.08 0-.12.05-.28-.01-.36-.05-.07-.18.05-.29.07-.03 0-.06.01-.08.02-.14.06-.2.02-.22-.13-.02-.11 0-.16.12-.16.07 0 .13-.03.2-.04.08-.01.11-.04.11-.13 0-.32 0-.32-.31-.24-.02 0-.03.01-.05.01-.1.04-.15.02-.18-.1-.03-.14.03-.15.13-.16.08 0 .17-.03.25-.04s.1-.04.09-.12c-.04-.23-.07-.47-.1-.71-.01-.09-.04-.11-.13-.09-.44.1-.87.2-1.31.29-.09.02-.11.05-.08.14.09.33.18.66.27.99zm4.38-.03c.2.21.2.21.37.04.07-.07.14-.13.2.01.03.07.08.05.13.04.19-.04.37-.09.56-.12.12-.02.13-.06.08-.16-.31-.63-.64-1.25-.89-1.9-.03-.08-.07-.08-.14-.06-.21.05-.42.1-.63.14-.12.02-.14.07-.14.18.04.61.03 1.23.01 1.84-.01.42-.05.33.33.27.16-.05.05-.2.12-.28zm-10.11 9.81c-1.74.38-3.48.77-5.22 1.15-.03.01-.05.01-.08.02-.06.01-.08.03-.07.1.02.12.05.16.18.13 1.42-.32 2.84-.63 4.26-.94 2.07-.46 4.14-.92 6.22-1.37.12-.03.17-.05.13-.19s-.12-.07-.19-.05c-1.75.38-3.49.77-5.23 1.15zm19.86-4.14c1.74-.38 3.48-.77 5.22-1.15.13-.03.17-.07.13-.2-.05-.13-.13-.05-.19-.04-3.46.76-6.93 1.53-10.39 2.29-.03.01-.05.01-.08.02-.06.01-.08.04-.07.1.01.13.06.15.19.12 1.72-.38 3.46-.76 5.19-1.14zm-8.18-6.22c.18.45.28.49.72.28.01 0 .02-.01.03-.01.31-.17.4-.5.2-.79-.06-.09-.15-.17-.22-.26-.14-.18-.1-.31.12-.35.1-.02.11-.05.09-.14-.06-.22-.12-.44-.18-.66-.02-.08-.06-.13-.15-.12-.28.01-.55.07-.79.22-.3.18-.39.49-.27.82.09.22.26.35.46.45.11.06.24.11.32.21.12.14.07.27-.11.31-.08.02-.15 0-.22.04zm-2.88-.31c.01 0 .02 0 .03-.01-.04-.26-.09-.52-.12-.79-.01-.09-.04-.12-.14-.1-.26.06-.53.12-.79.18-.07.01-.1.03-.07.11.18.66.37 1.33.54 2 .02.09.06.11.15.09.34-.08.68-.15 1.03-.23.05-.01.14.01.15-.07.01-.13 0-.26-.01-.39 0-.03-.06 0-.09.01-.1.03-.2.07-.3.11-.11.04-.16.02-.18-.11-.08-.28-.14-.54-.2-.8zm-.24 8.91c.02.08.04.15.06.23.11.44.11.44.55.31.34-.1.51-.36.46-.7-.05-.35-.28-.55-.63-.56-.18 0-.34.06-.51.1-.08.02-.09.07-.06.14.03.15.08.31.13.48zm-2.9.64h.01c.02.08.03.15.05.23.11.44.11.44.55.31.34-.1.51-.35.46-.69-.05-.36-.27-.57-.63-.58-.18 0-.34.06-.51.1-.08.02-.09.07-.06.14.04.16.09.32.13.49zm1.68.29c.09-.02.18-.04.26-.06.15-.02.09-.14.09-.21-.01-.1-.08 0-.13-.01-.02 0-.04.01-.07.01-.05.01-.11.05-.13-.05-.02-.08.01-.11.09-.12.05-.01.13.01.14-.08.02-.17-.06-.17-.18-.12-.05.02-.1.04-.12-.04s.02-.11.09-.1c.19.01.2-.08.15-.23-.02-.06-.02-.13-.03-.2 0-.08-.03-.11-.12-.09-.21.05-.43.1-.65.14-.08.02-.09.05-.07.13.07.25.14.51.21.77.11.34.11.34.47.26zm3.23-.96c-.06.02-.11.04-.16.04-.06.01-.13.08-.15-.05-.02-.11.05-.1.11-.12.05-.01.11.01.12-.08.01-.14-.03-.18-.17-.13-.05.02-.11.05-.13-.04-.01-.07.02-.1.08-.1.21.02.19-.1.16-.24-.01-.06-.02-.12-.02-.19 0-.09-.04-.12-.13-.09-.21.05-.42.1-.63.14-.08.02-.1.05-.08.13.09.34.18.68.27 1.02.02.08.05.1.13.08.14-.04.29-.08.43-.09.18-.02.22-.11.17-.28zm1.09-.71c.05.25.15.41.29.52.2.15.44.1.56-.12.15-.27.1-.7-.1-.92-.11-.12-.24-.18-.41-.15s-.28.14-.33.3c-.05.13-.04.27-.01.37zm-3.62.18c-.23.04-.39.18-.42.34-.03.19.07.35.29.47.05.03.12.05.16.1.06.08.07.15-.05.19-.04.01-.13-.02-.09.07.03.06.03.16.12.16.15-.01.31-.04.39-.2.08-.15.02-.27-.08-.38-.02-.02-.04-.04-.06-.06-.08-.09-.07-.17.05-.2.07-.02.07-.05.05-.1-.02-.06-.04-.13-.06-.19-.06-.24-.06-.24-.3-.2zm5.33-.05c.12-.03.22-.05.33-.07.07-.02.12-.02.13.07.01.08.05.11.13.08.1-.03.27 0 .2-.21-.01-.04.04-.05.06-.06.06-.04.04-.1.04-.15-.01-.08-.06-.03-.1-.03-.09.01-.07-.06-.08-.1-.04-.2-.08-.41-.12-.62-.01-.04 0-.1-.04-.1-.12-.01-.24.02-.34.07-.07.03-.01.11.01.17.03.09.04.17-.09.17-.04 0-.09.01-.07.07.05.23-.01.46-.06.71zm-2.03.41c.08-.18.15-.33.19-.49.04-.18.04-.35-.12-.48-.16-.12-.33-.07-.5-.01-.05.02-.1.05-.08.12.04.11 0 .24.07.34 0 0 .03-.01.05-.01.16-.05.2.04.22.17.02.16-.03.31-.08.46-.04.12-.01.18.13.15.1-.02.21-.05.31-.07.15-.02.12-.14.11-.22-.02-.11-.09-.01-.15-.01-.04.02-.08.04-.15.05zm1.83-.84c.01 0 .02 0 .02-.01-.04-.17-.07-.33-.11-.5-.03-.14-.07-.16-.19-.06-.09.07-.19.14-.28.22-.04.03-.11.04-.07.11s.04.19.14.18c.09-.01.09.03.1.09.05.19.1.38.14.58.04.17.14.07.22.06s.18-.01.14-.15c-.03-.16-.07-.34-.11-.52z" fill="#fefdfd"/><path d="m423.54 182.64c.19.1.38.19.56.29 1.18.67 2.43 1.17 3.77 1.42 1.83.34 3.63.16 5.42-.32 1.7-.46 3.25-1.26 4.8-2.07.72-.37 1.44-.74 2.2-1.01.64-.22 1.29-.36 1.96-.24.49.08.91.28 1.18.71.32.51.24 1.03-.01 1.54-.23.45-.59.78-.98 1.09-.88.69-1.87 1.2-2.89 1.64-1.49.65-3.04 1.08-4.64 1.3-2.42.34-4.79.17-7.07-.78-1.64-.68-3-1.73-4.07-3.15-.07-.09-.13-.19-.18-.28-.03-.03-.07-.07-.05-.14z" fill="#fe0101"/><path d="m427.15 183.26c.3-.06.6-.06.88-.09.75-.07 1.47-.26 2.18-.48 2-.61 3.82-1.58 5.65-2.57.83-.45 1.68-.88 2.58-1.2.27-.1.55-.18.85-.14.42.05.58.32.42.71-.07.17-.2.3-.33.43-.49.47-1.05.83-1.62 1.2-1.83 1.18-3.82 1.94-5.95 2.36-1.28.25-2.56.28-3.84.07-.22-.04-.44-.09-.65-.18-.05-.01-.12-.03-.17-.11z" fill="#fe0202"/><path d="m429.07 174.11c.07.34.14.67.23 1.01.03.12.01.18-.12.21-.38.07-.76.16-1.14.25-.1.02-.15.01-.18-.1-.29-1.2-.64-2.38-.97-3.57-.04-.15-.01-.2.14-.23.48-.1.96-.21 1.44-.32.12-.03.18-.02.2.12.11.71.24 1.43.36 2.14.02.1.04.15.16.12.16-.04.37-.02.46-.13.1-.12-.04-.29-.08-.44-.16-.6-.32-1.19-.49-1.78-.03-.12-.02-.17.11-.19.46-.09.92-.2 1.38-.3.11-.03.15 0 .17.11.1.66.21 1.33.32 1.99.1.56.2 1.11.31 1.67.03.13-.01.18-.14.21-.34.07-.69.15-1.03.23-.09.02-.13 0-.15-.1-.05-.2-.11-.4-.16-.61-.03-.11-.07-.1-.15-.05-.09.06-.17.2-.27.16-.09-.04-.14-.17-.21-.26-.04-.05-.08-.1-.12-.16-.04.01-.06.02-.07.02z" fill="#fe0303"/><path d="m440.63 180.06c.02-.24.12-.43.18-.62.17-.56-.05-1.08-.58-1.33-.13-.06-.28-.1-.41-.15-.09-.03-.25-.04-.24-.14 0-.1.15-.13.26-.16.64-.19 1.27-.16 1.89.09.41.17.82.2 1.24.06.24-.08.46-.22.66-.38.84-.65 1.43-1.47 1.74-2.49.11-.37.22-.75.34-1.12.02-.08.04-.16.11-.25.08.17.08.34.08.5.01 1.11-.35 2.11-1 3-.2.28-.41.55-.57.86-.23.44-.23.87.01 1.31.2.37.41.74.53 1.15.15.52.17 1.05.02 1.57-.05.17-.12.33-.27.46-.07-.22-.05-.42-.07-.63-.06-.82-.5-1.38-1.23-1.71-.57-.26-1.17-.26-1.78-.2-.33.05-.61.11-.91.18z" fill="#0b8f1a"/><path d="m439.01 169.66c-.03-.11-.08-.3-.13-.47-.02-.07-.02-.12.06-.14.64-.2 1.27-.42 1.95-.39 1.02.04 1.7.65 1.89 1.68.21 1.13-.31 1.99-1.41 2.34-.43.14-.88.22-1.33.27-.12.01-.15-.03-.18-.13-.19-.75-.39-1.5-.59-2.25-.08-.29-.16-.57-.26-.91zm2.05 1.46c-.01 0-.02 0-.03.01.05.22.11.43.14.65.02.16.1.13.19.09.39-.17.55-.55.44-1.04-.09-.4-.37-.6-.78-.55-.09.01-.14.03-.11.15.06.22.1.46.15.69z" fill="#fe0202"/><path d="m422.01 175.53c.08.38.16.77.26 1.15.03.13 0 .17-.12.2-.19.04-.38.08-.56.12-.09.02-.12 0-.14-.09-.31-1.22-.69-2.43-1.03-3.64-.03-.11 0-.14.1-.16.34-.07.67-.15 1.01-.23.1-.02.17-.01.25.04.25.16.51.31.77.46.08.05.16.08.27.14-.07-.27-.13-.51-.2-.75-.03-.1-.01-.14.09-.16.23-.04.45-.09.68-.15.12-.03.16.01.17.12.11.71.23 1.42.35 2.13.1.57.22 1.13.34 1.74-.75-.33-1.46-.64-2.18-.96-.03.02-.05.03-.06.04z" fill="#fe0202"/><path d="m418.82 173.49c.4-.09.8-.17 1.19-.27.11-.03.16-.02.18.11.06.45.13.9.2 1.34.03.14-.02.17-.15.18-.21.02-.42.05-.62.07-.09.01-.1.05-.09.13.05.38.05.38.41.29.14-.03.29-.06.43-.1.11-.03.13.01.12.1 0 .17-.01.35 0 .52 0 .07-.02.1-.09.1-.19.02-.37.06-.55.08-.12.01-.15.07-.12.18.02.05.02.11.03.17.05.26.05.27.32.19.21-.06.41-.13.61-.21.1-.04.13-.01.12.09-.01.15-.03.3-.01.44.03.21-.07.27-.25.3-.62.13-1.24.26-1.86.4-.14.03-.19.01-.23-.14-.3-1.19-.61-2.37-.96-3.54-.04-.14-.01-.18.13-.21.41-.04.8-.13 1.19-.22z" fill="#fe0303"/><path d="m437.14 173.07c-.04.18.04.38-.07.48-.1.09-.29.08-.44.12-.28.06-.29.06-.28-.22.03-1.12.07-2.23.01-3.35 0-.1 0-.19-.02-.29-.03-.15.01-.21.17-.24.41-.08.82-.17 1.23-.27.09-.02.15-.01.19.08.47 1.12 1.01 2.22 1.55 3.31.15.31.15.31-.19.38-.31.07-.62.13-.93.21-.12.03-.17 0-.22-.1-.09-.19-.1-.18-.26-.05-.11.1-.21.2-.3.32-.05.07-.09.08-.15 0-.08-.12-.18-.24-.29-.38zm.14-1.36c-.09.35-.11.68-.13 1.02-.01.09.07.05.11.04.16-.06.31-.13.47-.19.08-.03.1-.06.05-.14-.15-.25-.31-.49-.5-.73z" fill="#fe0303"/><path d="m444.03 171.56c-.01.03-.01.06-.02.09-.03.39-.03.39-.41.48-.36.08-.36.08-.35-.29.04-1.1.07-2.2.01-3.3 0-.01 0-.01 0-.02 0-.14-.08-.31 0-.41.08-.11.27-.09.41-.12.32-.08.65-.14.98-.22.08-.02.13-.01.17.08.49 1.18 1.07 2.32 1.64 3.47.06.13.04.17-.1.2-.36.07-.72.15-1.08.24-.14.04-.22 0-.26-.13-.05-.16-.13-.13-.22-.04-.1.11-.21.21-.3.33-.07.09-.11.07-.18 0-.1-.12-.17-.26-.29-.36zm.13-1.38c-.08.35-.1.68-.13 1.01-.01.08.04.08.1.06.17-.07.34-.12.5-.2.06-.03.08-.05.04-.11-.13-.27-.3-.51-.51-.76z" fill="#fe0303"/><path d="m427.29 174.93c.01.25.01.47.02.69.01.11-.06.15-.14.19-1.21.58-2.76.14-3.07-1.57-.2-1.07.38-1.96 1.47-2.28.27-.08.54-.15.83-.16.08 0 .12.01.15.1.12.45.24.91.37 1.36.03.1.02.14-.1.14-.15 0-.29.04-.43.09-.58.22-.78.9-.4 1.4.22.29.64.39.98.23.11-.07.21-.12.32-.19z" fill="#fe0202"/><path d="m446.81 170.63c.14-.01.27-.02.4-.04.12-.02.25-.06.29-.2.05-.15 0-.28-.11-.39-.09-.09-.19-.15-.3-.22-.18-.1-.37-.2-.54-.32-.45-.3-.67-.72-.61-1.26.06-.53.43-.81.89-.99.37-.15.75-.19 1.15-.2.09 0 .13.03.15.12.12.45.24.91.37 1.36.02.09.01.13-.09.12-.05 0-.11.01-.17.02-.25.06-.35.28-.22.51.09.15.22.26.33.38.17.19.3.4.32.66.03.45-.24.85-.7 1.01-.2.07-.41.12-.63.14-.13.02-.21-.02-.27-.14-.07-.18-.17-.36-.26-.56z" fill="#fe0202"/><path d="m434.93 171.62c.09.51.18 1.01.26 1.52.02.11.06.12.16.1.26-.06.5-.17.75-.25.09-.03.12-.03.11.08-.01.2 0 .39.01.59 0 .08-.02.11-.1.12-.7.15-1.4.3-2.1.46-.12.03-.13-.04-.15-.12-.18-.7-.35-1.4-.54-2.1-.13-.47-.27-.94-.41-1.42-.06-.21-.06-.21.15-.26.47-.11.95-.21 1.42-.32.12-.03.15 0 .17.12.09.49.18.99.27 1.48z" fill="#fe0303"/><path d="m433.01 172.41c.11.62.22 1.24.33 1.85.02.1 0 .14-.1.16-.39.08-.79.17-1.18.26-.11.02-.15 0-.18-.11-.21-.8-.43-1.61-.64-2.41-.11-.4-.21-.8-.32-1.2-.03-.12-.01-.16.11-.18.5-.1 1-.21 1.49-.33.11-.03.15 0 .16.11.11.62.22 1.24.33 1.85z" fill="#fe0303"/><path d="m432.41 163.5c-.01.02-.01.03-.01.03-.04.11.04.27-.05.32-.14.08-.31.09-.47.12-.1.02-.07-.06-.07-.11.01-.46.02-.91.02-1.37.01-.51 0-1.02-.03-1.52-.01-.09.02-.12.1-.14.33-.07.65-.14.98-.22.08-.02.11.02.14.08.38.89.82 1.75 1.23 2.62.05.11.03.14-.08.16-.27.05-.53.11-.8.17-.1.02-.16.01-.2-.09-.04-.11-.11-.12-.19-.03-.04.04-.08.08-.12.12-.17.19-.17.19-.33-.02-.04-.02-.07-.06-.12-.12zm.08-1.06c-.02.31-.1.56-.08.83.17-.02.3-.09.44-.16.04-.02.08-.03.05-.08-.12-.19-.22-.4-.41-.59z" fill="#fe0202"/><path d="m426.8 164.76c-.01.01-.02.02-.02.03-.02.11.04.27-.05.32-.14.08-.31.09-.47.12-.1.02-.07-.08-.07-.13.01-.46.02-.91.03-1.37.01-.5.01-1-.03-1.51-.01-.08 0-.12.09-.14.32-.07.64-.14.96-.21.09-.02.13.01.16.09.39.87.79 1.73 1.22 2.59.05.11.06.16-.09.19-.26.04-.52.1-.78.17-.11.03-.17.01-.22-.09s-.1-.1-.17-.02c-.03.03-.07.06-.1.09-.2.21-.2.21-.38-.02-.02-.05-.04-.1-.08-.11zm.09-1.06c-.06.25-.08.48-.1.72 0 .02 0 .06.01.06.15.05.26-.06.39-.1.05-.01.13-.04.08-.13-.1-.2-.21-.38-.38-.55z" fill="#fe0202"/><path d="m436.85 162.52c-.03.37-.03.37-.37.44-.23.05-.24.05-.23-.19.03-.91.05-1.83-.01-2.74-.01-.11.02-.17.15-.19.3-.05.6-.12.9-.19.09-.02.14-.02.18.08.4.86.8 1.72 1.21 2.57.06.12.05.17-.09.2-.26.04-.51.1-.76.17-.11.03-.17.01-.21-.09-.05-.12-.11-.1-.18-.03-.06.07-.13.13-.18.2-.08.12-.14.09-.2-.02-.06-.07-.11-.15-.21-.21zm.12-1.05c-.05.14-.06.27-.07.4s-.09.33 0 .38c.11.07.27-.07.4-.12.01 0 .01-.01.02-.01.07-.01.06-.06.04-.1-.12-.19-.23-.37-.39-.55z" fill="#fe0202"/><path d="m431.61 163.42c0 .2.01.38.01.56 0 .09-.08.1-.14.13-1.18.55-2.4-.28-2.33-1.6.03-.63.39-1.09 1.03-1.31.23-.08.47-.14.71-.16.09-.01.15.01.17.11.08.32.17.65.26.97.03.11 0 .14-.1.15-.14.02-.28.05-.4.12-.33.19-.44.56-.25.91.17.32.52.42.86.25.05-.05.11-.09.18-.13z" fill="#fe0202"/><path d="m435.67 160.66c.02.09.05.17.07.26s.08.19.06.28c-.02.11-.16.05-.25.09-.14.06-.21.22-.13.35.07.11.16.21.25.3.57.61.12 1.22-.42 1.34-.46.1-.45.11-.66-.33-.06-.12-.07-.19.1-.18.03 0 .07 0 .1-.01.11-.02.23-.04.26-.18.02-.13-.02-.25-.14-.32-.17-.11-.35-.21-.53-.31-.24-.13-.41-.32-.49-.58-.17-.58.12-1.05.76-1.23.25-.07.5-.07.76-.1.09-.01.1.05.12.11.04.17.08.34.11.51z" fill="#fe0202"/><path d="m423.94 164.14c-.12-.44-.24-.88-.38-1.32-.04-.12-.01-.15.1-.17.36-.07.72-.15 1.08-.24.12-.03.15.01.17.12.12.73.26 1.46.38 2.19.02.14.07.17.19.12.15-.06.32-.09.46-.16.13-.06.15-.02.13.1-.01.06 0 .11 0 .17 0 .31 0 .31-.3.37-.43.09-.86.18-1.29.29-.13.03-.18 0-.21-.13-.1-.45-.2-.91-.3-1.36-.01.01-.02.02-.03.02z" fill="#fe0303"/><path d="m427.68 168.19c-.05-.19-.14-.52-.24-.83-.03-.09-.01-.13.08-.16.31-.1.63-.19.96-.2.59-.02 1.01.3 1.15.89.14.6-.07 1.06-.61 1.32-.27.13-.57.18-.87.22-.1.01-.15-.02-.18-.12-.08-.34-.17-.67-.29-1.12zm.99.2h-.01c.02.12.04.25.06.37.01.05.02.08.09.07.18-.05.32-.29.29-.52-.03-.25-.18-.4-.4-.41-.11 0-.14.04-.12.14.04.12.06.24.09.35z" fill="#fe0303"/><path d="m429.79 167.86c-.09-.33-.18-.66-.27-.98-.02-.08-.01-.12.08-.14.44-.09.87-.19 1.31-.29.09-.02.12.01.13.09.03.24.06.47.1.71.01.08 0 .12-.09.12-.08.01-.17.03-.25.04-.11 0-.16.02-.13.16.03.13.08.15.18.1.02-.01.03-.01.05-.01.31-.08.31-.08.31.24 0 .09-.03.12-.11.13-.07.01-.13.03-.2.04-.11.01-.13.05-.12.16.02.15.08.2.22.13.03-.01.05-.02.08-.02.1-.02.24-.14.29-.07.06.09.01.24.01.36 0 .06-.04.07-.09.08-.37.08-.74.16-1.11.25-.09.02-.1-.02-.12-.09-.09-.34-.18-.68-.27-1.01z" fill="#fe0303"/><path d="m434.17 167.83c-.07.08.05.23-.13.27-.38.07-.34.15-.33-.27.02-.61.03-1.23-.01-1.84-.01-.11.02-.16.14-.18.21-.04.42-.09.63-.14.07-.02.11-.01.14.06.26.65.59 1.27.89 1.9.05.11.04.14-.08.16-.19.03-.38.08-.56.12-.05.01-.1.03-.13-.04-.06-.14-.13-.08-.2-.01-.16.18-.17.18-.36-.03zm.05-.8c-.02.12-.04.23-.05.34-.01.08-.07.19.01.23.05.03.16-.03.23-.06.05-.02.14-.04.08-.14-.07-.12-.13-.26-.27-.37z" fill="#fe0303"/><path d="m424.06 177.64c1.74-.38 3.48-.77 5.22-1.15.06-.01.15-.09.19.05.04.13-.01.16-.13.19-2.07.45-4.15.91-6.22 1.37-1.42.31-2.84.62-4.26.94-.13.03-.17-.01-.18-.13-.01-.07.01-.09.07-.1.03 0 .06-.01.08-.02 1.74-.38 3.48-.76 5.23-1.15z" fill="#fe0404"/><path d="m443.92 173.5c-1.73.38-3.47.77-5.2 1.15-.12.03-.18.01-.19-.12-.01-.07.01-.1.07-.1.03 0 .06-.01.08-.02 3.46-.77 6.93-1.53 10.39-2.29.06-.01.15-.1.19.04.05.13 0 .17-.13.2-1.73.37-3.47.76-5.21 1.14z" fill="#fe0404"/><path d="m435.74 167.28c.07-.04.14-.02.21-.03.18-.04.22-.17.11-.31-.08-.1-.21-.15-.32-.21-.2-.11-.37-.23-.46-.45-.13-.33-.03-.64.27-.82.24-.15.51-.21.79-.22.09 0 .13.04.15.12.06.22.11.44.18.66.03.09.01.12-.09.14-.22.04-.26.18-.12.35.07.09.15.17.22.26.2.29.11.62-.2.79-.01.01-.02.01-.03.01-.43.2-.53.16-.71-.29z" fill="#fe0303"/><path d="m432.86 166.97c.06.26.12.53.17.8.02.12.07.15.18.11.1-.04.2-.07.3-.11.03-.01.09-.03.09-.01.01.13.02.26.01.39 0 .09-.1.06-.15.07-.34.08-.69.15-1.03.23-.09.02-.13 0-.15-.09-.18-.67-.36-1.33-.54-2-.02-.08.01-.1.07-.11.27-.06.53-.11.79-.18.1-.02.13.01.14.1.04.26.08.53.12.79.02 0 .01 0 0 .01z" fill="#fe0303"/><path d="m432.62 175.88c-.05-.16-.09-.33-.14-.49-.02-.07-.02-.12.06-.14.17-.04.34-.1.51-.1.35.01.58.21.63.56.05.34-.12.6-.46.7-.44.13-.44.13-.55-.31-.02-.07-.03-.15-.05-.22zm.53.08c.04.04-.04.2.08.18.13-.02.16-.15.15-.28-.01-.06-.03-.11-.07-.15-.05-.05-.12-.07-.19-.04-.06.03-.01.09-.01.14.01.04.02.09.04.15z" fill="#fe0404"/><path d="m429.72 176.52c-.04-.16-.09-.33-.14-.49-.02-.07-.02-.12.06-.14.17-.04.34-.1.51-.1.36.01.59.21.63.58.04.33-.13.59-.46.69-.44.13-.44.13-.55-.31-.02-.08-.03-.15-.05-.23.01-.01.01 0 0 0zm.52.04c0 .02 0 .05.01.07.02.06 0 .17.07.16.09 0 .15-.09.16-.19.01-.09 0-.18-.07-.25-.05-.05-.12-.07-.19-.04-.06.03-.01.09-.01.14.01.04.02.08.03.11z" fill="#fe0404"/><path d="m431.4 176.81c-.36.08-.36.08-.45-.27-.07-.26-.14-.51-.21-.77-.02-.08-.01-.11.07-.13.22-.04.43-.09.65-.14.08-.02.11.01.12.09 0 .07.01.14.03.2.04.14.03.24-.15.23-.06 0-.11.03-.09.1.02.08.07.06.12.04.12-.04.21-.05.18.12-.01.1-.09.07-.14.08-.07.01-.11.04-.09.12.02.09.07.06.13.05.02 0 .05-.02.07-.01.05.01.12-.09.13.01.01.07.06.19-.09.21-.11.02-.19.05-.28.07z" fill="#fe0a0a"/><path d="m434.63 175.85c.05.17.01.26-.17.28-.15.02-.29.06-.43.09-.08.02-.11-.01-.13-.08-.09-.34-.17-.68-.27-1.02-.02-.08-.01-.11.08-.13.21-.04.42-.09.63-.14.09-.02.12.01.13.09 0 .06.01.12.02.19.03.14.05.26-.16.24-.06-.01-.09.03-.08.1.02.09.08.06.13.04.13-.05.18-.01.17.13-.01.09-.07.07-.12.08-.06.02-.14.01-.11.12.03.12.1.05.15.05s.1-.02.16-.04z" fill="#fe0a0a"/><path d="m435.72 175.14c-.03-.1-.04-.24.01-.37.05-.16.16-.27.33-.3s.3.03.41.15c.2.23.25.66.1.92-.12.22-.36.27-.56.12-.14-.11-.24-.27-.29-.52zm.38.14c.03.09.05.22.16.2.12-.02.09-.16.08-.26 0-.03-.01-.06-.02-.08-.03-.06-.06-.13-.14-.11-.09.02-.09.09-.08.16-.01.03 0 .06 0 .09z" fill="#fe0606"/><path d="m432.1 175.32c.24-.05.24-.05.31.18.02.06.04.13.06.19s.02.08-.05.1c-.12.03-.13.11-.05.2.02.02.04.04.06.06.1.11.16.23.08.38-.08.16-.23.19-.39.2-.1.01-.1-.09-.12-.16-.04-.09.05-.06.09-.07.12-.04.11-.12.05-.19-.04-.04-.1-.07-.16-.1-.22-.12-.32-.28-.29-.47.02-.14.18-.27.41-.32z" fill="#fe0606"/><path d="m437.43 175.27c.06-.25.12-.48.05-.72-.02-.06.04-.06.07-.07.13-.01.12-.08.09-.17-.02-.05-.08-.13-.01-.17.1-.05.22-.08.34-.07.04 0 .03.07.04.1.04.21.08.41.12.62.01.04-.01.11.08.1.04 0 .1-.05.1.03 0 .05.02.12-.04.15-.03.02-.08.02-.06.06.07.21-.1.17-.2.21-.08.03-.12 0-.13-.08-.01-.09-.06-.09-.13-.07-.1.03-.2.05-.32.08zm.31-.55c.01.12-.05.19-.01.27 0 .01.05 0 .06-.01.04-.08-.01-.15-.05-.26z" fill="#fe0a0a"/><path d="m435.4 175.68c.07-.02.11-.03.14-.03.05 0 .13-.1.15.01.01.08.05.2-.11.22-.11.01-.21.04-.31.07-.14.03-.16-.03-.13-.15.05-.15.1-.3.08-.46-.01-.13-.06-.22-.22-.17-.02 0-.04.01-.05.01-.07-.1-.03-.23-.07-.34-.02-.08.03-.11.08-.12.17-.06.34-.12.5.01.16.12.16.3.12.48-.02.15-.1.29-.18.47z" fill="#fe0a0a"/><path d="m437.23 174.84c.04.18.07.35.12.53.04.14-.06.14-.14.15s-.19.11-.22-.06c-.04-.19-.09-.38-.14-.58-.01-.05-.01-.09-.1-.09-.1.01-.1-.11-.14-.18s.03-.08.07-.11c.09-.07.19-.15.28-.22.12-.09.16-.08.19.06.04.17.07.33.11.5-.01 0-.02 0-.03 0z" fill="#fe0a0a"/><path d="m441.06 171.12c-.05-.23-.1-.46-.16-.69-.03-.11.02-.13.11-.15.41-.05.69.14.78.55.11.49-.05.87-.44 1.04-.1.04-.17.06-.19-.09-.03-.22-.09-.43-.14-.65.02-.01.03-.01.04-.01z" fill="#fef9f9"/><g fill="#fef7f7"><path d="m437.28 171.71c.19.25.36.48.5.73.05.08.03.11-.05.14-.16.06-.31.13-.47.19-.04.02-.12.05-.11-.04.02-.34.04-.67.13-1.02z"/><path d="m444.16 170.18c.21.25.37.49.52.75.03.06.02.08-.04.11-.16.08-.33.13-.5.2-.06.02-.11.02-.1-.06.02-.32.04-.65.12-1z"/><path d="m432.49 162.44c.19.19.29.4.41.59.03.05-.02.06-.05.08-.14.07-.27.14-.44.16-.02-.27.06-.52.08-.83z"/><path d="m426.89 163.7c.17.17.28.35.38.55.05.09-.03.12-.08.13-.13.04-.24.15-.39.1-.01 0-.01-.04-.01-.06.02-.24.04-.47.1-.72z"/><path d="m436.97 161.47c.16.18.27.36.38.55.03.04.03.09-.04.1-.01 0-.01 0-.02.01-.13.05-.29.19-.4.12-.09-.05-.01-.25 0-.38s.03-.25.08-.4z"/><path d="m428.67 168.39c-.03-.12-.05-.23-.08-.35-.03-.11.01-.14.12-.14.21 0 .36.15.4.41.03.23-.11.47-.29.52-.07.02-.08-.02-.09-.07-.02-.12-.04-.24-.06-.37-.01 0 0 0 0 0z"/><path d="m434.22 167.03c.14.11.2.25.28.37.06.1-.03.12-.08.14-.08.03-.18.09-.23.06-.08-.04-.02-.15-.01-.23.01-.11.03-.21.04-.34z"/><path d="m433.15 175.96c-.01-.07-.03-.11-.03-.15 0-.05-.05-.11.01-.14s.13-.01.19.04c.04.04.06.09.07.15.01.13-.02.27-.15.28-.13.02-.05-.13-.09-.18z"/><path d="m430.24 176.56c-.01-.04-.02-.08-.02-.12 0-.05-.05-.11.01-.14s.13-.01.19.04c.07.07.08.16.07.25-.01.1-.07.19-.16.19-.07 0-.04-.11-.07-.16-.01-.01-.02-.03-.02-.06z"/><path d="m436.1 175.28c-.01-.03-.01-.06-.01-.09 0-.07 0-.14.08-.16.09-.02.12.05.14.11.01.03.02.05.02.08.01.1.05.23-.08.26-.1.02-.12-.11-.15-.2z"/><path d="m437.74 174.72c.05.11.1.18.05.26-.01.01-.06.01-.06.01-.05-.08.02-.15.01-.27z"/></g><path d="m34.29 192.19 29.71-103.25 55.37-3.49c4.34-.27 8.53.07 12.55 1.04s7.58 2.94 10.65 5.91c1.81 1.79 3.21 3.92 4.21 6.38.99 2.47 1.49 5.06 1.49 7.78 0 1.81-.27 4.32-.81 7.52s-1.29 6.78-2.24 10.73-2.01 8.09-3.19 12.41c-1.18 4.33-2.4 8.43-3.66 12.31-1.27 3.88-2.49 7.37-3.66 10.48-1.18 3.11-2.26 5.41-3.26 6.92-1.63 2.55-3.44 5.03-5.43 7.47-1.99 2.43-4.16 4.61-6.51 6.52s-4.86 3.47-7.53 4.68-5.45 1.9-8.35 2.09zm55.63-24.28c2.44-.15 4.5-.4 6.17-.73s3.07-.8 4.21-1.42c1.13-.61 2.08-1.4 2.85-2.35s1.56-2.13 2.37-3.54c.45-.84 1.13-2.45 2.04-4.81.9-2.36 1.9-5.09 2.99-8.19s2.17-6.38 3.26-9.84 2.08-6.76 2.99-9.89c.9-3.13 1.65-5.92 2.24-8.35s.88-4.19.88-5.28-.2-2.2-.61-3.35-.97-2.18-1.7-3.08-1.58-1.62-2.58-2.14-2.13-.75-3.39-.67l-23.21 1.46-17.91 63.42z" fill="#3c3c3b"/><path d="m228.34 137.33-38.27 2.41c-.45 2.11-1 4.23-1.63 6.34-.63 2.12-1.09 4.23-1.36 6.33-.18 1.28.22 2.48 1.22 3.59.99 1.11 2.12 1.72 3.39 1.82 7.69.69 15.42.68 23.21-.04 7.78-.72 15.42-2.04 22.93-3.96l-7.19 25.56c-18.82 4.08-37.73 5.68-56.72 4.8-4.25-.19-7.71-1.37-10.38-3.55s-4.68-4.91-6.04-8.17-2.15-6.83-2.37-10.71c-.23-3.87-.02-7.55.61-11.03 1.27-6.95 2.92-13.82 4.95-20.6 2.04-6.78 4.46-13.42 7.26-19.93-1.27.53-2.6.98-4 1.34s-2.85.81-4.34 1.36-3.03 1.3-4.61 2.26-3.19 2.35-4.82 4.17c-.27.29-.5.44-.68.45-.45.3-.95.35-1.49.16s-.68-.57-.41-1.13c2.71-5.42 5.81-10.41 9.3-14.97 3.48-4.56 7.4-8.54 11.74-11.94s9.16-6.12 14.45-8.17 11.15-3.28 17.57-3.69l58.35-3.68-7.33 24.75-43.15 2.72c-1.81.11-3.3.77-4.48 1.98s-2.19 2.65-3.05 4.33-1.63 3.43-2.31 5.23c-.68 1.81-1.47 3.37-2.37 4.7.81-.14 1.79-.27 2.92-.39s2.96-.25 5.5-.41c2.62-.17 6.26-.37 10.92-.62s10.88-.62 18.66-1.11z" fill="#3c3c3b"/><path d="m283.43 149.33c1.17 1.37 2.4 2.16 3.66 2.35 7.69.69 15.29.53 22.8-.49s15.02-2.53 22.53-4.54l-7.19 25.56c-10.04 2.35-19.68 3.96-28.9 4.81-9.23.85-18.5.9-27.82.13-7.96-.49-13.41-3.61-16.35-9.35s-3.05-13.85-.34-24.34c.09-.55.22-1.19.41-1.93.18-.73.5-1.91.95-3.52s1.06-3.84 1.83-6.7c.77-2.85 1.85-6.7 3.26-11.54 1.4-4.84 3.19-10.83 5.36-17.98s4.79-15.79 7.87-25.94l30.26-1.91-17.1 57.67c-.45 2.38-.97 4.68-1.56 6.88-.59 2.21-.97 4.5-1.15 6.86-.19 1.28.3 2.6 1.48 3.98z" fill="#3c3c3b"/><path d="m363.36 70.19 30.26-1.91-30.53 103.02-30.67 1.94z" fill="#3c3c3b"/><path d="m96.81 195.42 27.93-1.76-43.03 75.22c-2.46 4.2-4.86 7.46-7.19 9.79-2.34 2.33-4.5 4.05-6.48 5.16-1.98 1.12-3.68 1.8-5.11 2.05s-2.42.39-2.97.43l-25.68 1.62v-62.64l24.13-1.52v43.03z" fill="#3c3c3b"/><path d="m186.2 241.25-33.52 2.12c-.4 1.85-.87 3.7-1.43 5.56s-.95 3.71-1.19 5.54c-.16 1.12.2 2.17 1.07 3.14.87.98 1.86 1.51 2.97 1.6 6.73.61 13.51.59 20.33-.03 6.81-.63 13.51-1.78 20.09-3.47l-6.3 22.39c-16.48 3.58-33.05 4.98-49.69 4.21-3.73-.16-6.76-1.2-9.09-3.11-2.34-1.91-4.1-4.3-5.29-7.15-1.19-2.86-1.88-5.98-2.08-9.38-.2-3.39-.02-6.61.53-9.66 1.11-6.09 2.56-12.11 4.34-18.04 1.78-5.94 3.9-11.76 6.36-17.46-1.11.47-2.28.86-3.51 1.17-1.23.32-2.5.71-3.8 1.19-1.31.48-2.66 1.14-4.04 1.98-1.39.84-2.79 2.06-4.22 3.65-.24.25-.44.38-.59.39-.4.26-.83.31-1.31.14s-.59-.5-.36-.99c2.38-4.74 5.09-9.12 8.14-13.11 3.05-4 6.48-7.48 10.28-10.46 3.8-2.97 8.02-5.36 12.66-7.16s9.77-2.87 15.39-3.23l51.11-3.23-6.42 21.68-37.8 2.39c-1.59.1-2.89.68-3.92 1.73-1.03 1.06-1.92 2.32-2.67 3.79s-1.43 3-2.02 4.59c-.59 1.58-1.29 2.95-2.08 4.11.71-.12 1.56-.24 2.56-.34.99-.1 2.59-.22 4.81-.36 2.3-.14 5.49-.33 9.57-.54 4.08-.22 9.53-.54 16.34-.97z" fill="#3c3c3b"/><path d="m251.45 249.14-16.4 1.04-7.61 25.68-25.68 1.62 26.75-90.24 44.81-2.83c3.01-.19 6.02.02 9.03.62s5.71 1.66 8.08 3.17c2.38 1.51 4.32 3.49 5.82 5.93s2.26 5.37 2.26 8.77c0 4.68-.65 9.31-1.96 13.91s-3.27 8.96-5.88 13.09c-1.82 2.97-3.98 5.82-6.48 8.55s-5.25 4.99-8.26 6.76l9.03 27.01-24.96 1.58zm2.14-18.32c2.22-.14 4.06-.41 5.53-.82s2.69-.92 3.68-1.54 1.82-1.32 2.5-2.12c.67-.79 1.37-1.61 2.08-2.45 1.82-2.09 3.23-4.4 4.22-6.92s1.49-5.16 1.49-7.94c0-.95-.18-1.93-.53-2.94-.36-1.01-.85-1.91-1.49-2.7s-1.41-1.42-2.32-1.87c-.91-.46-1.92-.65-3.03-.58l-16.4 1.04-8.8 29.68z" fill="#3c3c3b"/><path d="m295.2 182.67 25.44-1.61 11.29 33.88 33.52-36.71 28.17-1.78-52.54 53.83-11.65 39.01-26.15 1.65 11.89-39.62z" fill="#3c3c3b"/><path d="m32.26 190.29 29.72-103.25 55.37-3.49c4.34-.27 8.53.07 12.55 1.04s7.58 2.94 10.65 5.91c1.81 1.79 3.21 3.92 4.21 6.38.99 2.47 1.49 5.06 1.49 7.78 0 1.81-.27 4.32-.81 7.52s-1.29 6.78-2.24 10.73-2.01 8.09-3.19 12.41c-1.18 4.33-2.4 8.43-3.66 12.31-1.27 3.88-2.49 7.37-3.66 10.48-1.18 3.11-2.26 5.41-3.26 6.92-1.63 2.55-3.44 5.03-5.43 7.47-1.99 2.43-4.16 4.61-6.51 6.52s-4.86 3.47-7.53 4.68-5.45 1.9-8.35 2.09zm55.64-24.28c2.44-.15 4.5-.4 6.17-.73s3.07-.8 4.21-1.42c1.13-.61 2.08-1.4 2.85-2.35s1.56-2.13 2.37-3.54c.45-.84 1.13-2.45 2.04-4.81.9-2.36 1.9-5.09 2.99-8.19s2.17-6.38 3.26-9.84 2.08-6.76 2.99-9.89c.9-3.13 1.65-5.92 2.24-8.35s.88-4.19.88-5.28-.2-2.2-.61-3.35-.97-2.18-1.7-3.08-1.58-1.62-2.58-2.14-2.13-.75-3.39-.67l-23.21 1.46-17.91 63.42z" fill="url(#b)"/><path d="m226.31 135.43-38.27 2.41c-.45 2.11-1 4.23-1.63 6.34-.63 2.12-1.09 4.23-1.36 6.33-.18 1.28.22 2.48 1.22 3.59.99 1.11 2.12 1.72 3.39 1.82 7.69.69 15.42.68 23.21-.04 7.78-.72 15.42-2.04 22.93-3.96l-7.19 25.56c-18.82 4.08-37.73 5.68-56.72 4.8-4.25-.19-7.71-1.37-10.38-3.55s-4.68-4.91-6.04-8.17-2.15-6.83-2.37-10.71c-.23-3.87-.02-7.55.61-11.03 1.27-6.95 2.92-13.82 4.95-20.6 2.04-6.78 4.46-13.42 7.26-19.93-1.27.53-2.6.98-4 1.34s-2.85.81-4.34 1.36-3.03 1.3-4.61 2.26-3.19 2.35-4.82 4.17c-.27.29-.5.44-.68.45-.45.3-.95.35-1.49.16s-.68-.57-.41-1.13c2.71-5.42 5.81-10.41 9.3-14.97 3.48-4.56 7.4-8.54 11.74-11.94s9.16-6.12 14.45-8.17 11.15-3.28 17.57-3.69l58.35-3.68-7.33 24.75-43.15 2.72c-1.81.11-3.3.77-4.48 1.98s-2.19 2.65-3.05 4.33-1.63 3.43-2.31 5.23c-.68 1.81-1.47 3.37-2.37 4.7.81-.14 1.79-.27 2.92-.39s2.96-.25 5.5-.41c2.62-.17 6.26-.37 10.92-.62s10.88-.62 18.66-1.11z" fill="url(#c)"/><path d="m281.4 147.43c1.17 1.37 2.4 2.16 3.66 2.35 7.69.69 15.29.53 22.8-.49s15.02-2.53 22.53-4.54l-7.19 25.56c-10.04 2.35-19.68 3.96-28.9 4.81-9.23.85-18.5.9-27.82.13-7.96-.49-13.41-3.61-16.35-9.35s-3.05-13.85-.34-24.34c.09-.55.22-1.19.41-1.93.18-.73.5-1.91.95-3.52s1.06-3.84 1.83-6.7c.77-2.85 1.85-6.7 3.26-11.54 1.4-4.84 3.19-10.83 5.36-17.98s4.79-15.79 7.87-25.94l30.26-1.91-17.1 57.67c-.45 2.38-.97 4.68-1.56 6.88-.59 2.21-.97 4.5-1.15 6.86-.19 1.28.31 2.6 1.48 3.98z" fill="url(#d)"/><path d="m361.33 68.29 30.26-1.91-30.53 103.02-30.67 1.94z" fill="url(#e)"/><path d="m94.78 193.52 27.93-1.76-43.03 75.22c-2.46 4.2-4.86 7.46-7.19 9.79-2.34 2.33-4.5 4.05-6.48 5.16-1.98 1.12-3.68 1.8-5.11 2.05s-2.42.39-2.97.43l-25.68 1.62v-62.64l24.13-1.52v43.03z" fill="url(#g)"/><path d="m184.17 239.35-33.52 2.12c-.4 1.85-.87 3.7-1.43 5.56s-.95 3.71-1.19 5.54c-.16 1.12.2 2.17 1.07 3.14.87.98 1.86 1.51 2.97 1.6 6.73.61 13.51.59 20.33-.03 6.81-.63 13.51-1.78 20.09-3.47l-6.3 22.39c-16.48 3.58-33.05 4.98-49.69 4.21-3.73-.16-6.76-1.2-9.09-3.11-2.34-1.91-4.1-4.3-5.29-7.15-1.19-2.86-1.88-5.98-2.08-9.38-.2-3.39-.02-6.61.53-9.66 1.11-6.09 2.56-12.11 4.34-18.04 1.78-5.94 3.9-11.76 6.36-17.46-1.11.47-2.28.86-3.51 1.17-1.23.32-2.5.71-3.8 1.19-1.31.48-2.66 1.14-4.04 1.98-1.39.84-2.79 2.06-4.22 3.65-.24.25-.44.38-.59.39-.4.26-.83.31-1.31.14s-.59-.5-.36-.99c2.38-4.74 5.09-9.12 8.14-13.11 3.05-4 6.48-7.48 10.28-10.46 3.8-2.97 8.02-5.36 12.66-7.16s9.77-2.87 15.39-3.23l51.11-3.23-6.42 21.68-37.8 2.39c-1.59.1-2.89.68-3.92 1.73-1.03 1.06-1.92 2.32-2.67 3.79s-1.43 3-2.02 4.58-1.29 2.95-2.08 4.11c.71-.12 1.56-.24 2.56-.34.99-.1 2.59-.22 4.81-.36 2.3-.14 5.49-.33 9.57-.54 4.08-.22 9.53-.54 16.34-.97z" fill="url(#h)"/><path d="m249.43 247.24-16.4 1.04-7.61 25.68-25.68 1.62 26.75-90.24 44.81-2.83c3.01-.19 6.02.02 9.03.62s5.71 1.66 8.08 3.17 4.32 3.49 5.82 5.93 2.26 5.37 2.26 8.77c0 4.68-.65 9.31-1.96 13.91s-3.27 8.96-5.88 13.09c-1.82 2.97-3.98 5.82-6.48 8.55s-5.25 4.99-8.26 6.76l9.03 27.01-24.96 1.58zm2.14-18.32c2.22-.14 4.06-.41 5.53-.82s2.69-.92 3.68-1.54 1.82-1.32 2.5-2.12c.67-.79 1.37-1.61 2.08-2.45 1.82-2.09 3.23-4.4 4.22-6.92s1.49-5.16 1.49-7.94c0-.95-.18-1.93-.53-2.94-.36-1.01-.85-1.91-1.49-2.7s-1.41-1.42-2.32-1.87c-.91-.46-1.92-.65-3.03-.58l-16.4 1.04-8.8 29.68z" fill="url(#i)"/><path d="m293.17 180.77 25.44-1.61 11.29 33.88 33.52-36.71 28.17-1.78-52.54 53.83-11.65 39.02-26.15 1.65 11.89-39.62z" fill="url(#j)"/></svg>