<svg enable-background="new 0 0 631.06 310.98" viewBox="0 0 631.06 310.98" xmlns="http://www.w3.org/2000/svg" xmlns:xlink="http://www.w3.org/1999/xlink"><linearGradient id="a"><stop offset="0" stop-color="#e30613"/><stop offset="1" stop-color="#af0005"/></linearGradient><linearGradient id="b" gradientUnits="userSpaceOnUse" x1="118.7093" x2="118.7093" xlink:href="#a" y1="156.4531" y2="269.9467"/><linearGradient id="c" gradientUnits="userSpaceOnUse" x1="222.0013" x2="222.0013" xlink:href="#a" y1="154.5078" y2="272.0535"/><linearGradient id="d" gradientUnits="userSpaceOnUse" x1="344.3527" x2="344.3527" xlink:href="#a" y1="154.5078" y2="272.0535"/><linearGradient id="e" gradientUnits="userSpaceOnUse" x1="568.2121" x2="568.2121" xlink:href="#a" y1="156.4531" y2="269.9467"/><linearGradient id="f"><stop offset="0" stop-color="#f6f6f6"/><stop offset="1" stop-color="#b2b2b2"/></linearGradient><linearGradient id="g" gradientUnits="userSpaceOnUse" x1="35.115" x2="64.845" xlink:href="#f" y1="258.6359" y2="258.6359"/><linearGradient id="h" gradientUnits="userSpaceOnUse" x1="35.115" x2="64.845" xlink:href="#f" y1="231.0223" y2="231.0223"/><linearGradient id="i" gradientUnits="userSpaceOnUse" x1="35.115" x2="64.845" xlink:href="#f" y1="191.1042" y2="191.1042"/><linearGradient id="j" gradientUnits="userSpaceOnUse" x1="35.115" x2="64.845" xlink:href="#f" y1="166.9325" y2="166.9325"/><linearGradient id="k" gradientUnits="userSpaceOnUse" x1="400.3872" x2="520.6913" xlink:href="#a" y1="224.4424" y2="224.4424"/><linearGradient id="l" gradientUnits="userSpaceOnUse" x1="436.9644" x2="484.0853" xlink:href="#a" y1="177.4149" y2="177.4149"/><linearGradient id="m" gradientUnits="userSpaceOnUse" x1="461.6778" x2="490.2664" xlink:href="#a" y1="191.6512" y2="191.6512"/><linearGradient id="n" gradientUnits="userSpaceOnUse" x1="430.7794" x2="459.3955" xlink:href="#a" y1="191.6476" y2="191.6476"/><linearGradient id="o"><stop offset="0" stop-color="#00ff0c"/><stop offset="1" stop-color="#007e0f"/></linearGradient><linearGradient id="p" gradientUnits="userSpaceOnUse" x1="64.0992" x2="64.0992" xlink:href="#o" y1="59.9199" y2="142.1283"/><linearGradient id="q" gradientUnits="userSpaceOnUse" x1="131.9116" x2="131.9116" xlink:href="#o" y1="58.5109" y2="143.6546"/><linearGradient id="r" gradientUnits="userSpaceOnUse" x1="202.0115" x2="202.0115" xlink:href="#o" y1="59.9199" y2="142.1283"/><linearGradient id="s" gradientUnits="userSpaceOnUse" x1="280.6886" x2="280.6886" xlink:href="#o" y1="58.5109" y2="143.6546"/><linearGradient id="t" gradientUnits="userSpaceOnUse" x1="361.5359" x2="361.5359" xlink:href="#o" y1="59.9199" y2="142.1283"/><g fill="#3c3c3b"><path d="m160.77 240.23v33.4h-78.8v-113.5h36.48v80.09h42.32z"/><path d="m284.49 216.88c0 33.56-25.78 58.85-59.83 58.85s-59.83-25.29-59.83-58.85c0-33.4 25.78-58.69 59.83-58.69s59.83 25.29 59.83 58.69zm-36.48 0c0-13.62-9.89-23.35-23.34-23.35-13.46 0-23.35 9.73-23.35 23.35 0 13.78 9.89 23.35 23.35 23.35 13.45 0 23.34-9.57 23.34-23.35z"/><path d="m371.25 231.47 30.16 19.94c-10.54 14.92-28.21 24.32-48.96 24.32-34.05 0-59.83-25.29-59.83-58.85 0-33.4 25.78-58.69 59.83-58.69 20.75 0 38.42 9.4 48.96 24.16l-30.16 19.94c-4.22-5.51-10.86-8.76-18.81-8.76-13.46 0-23.35 9.73-23.35 23.35 0 13.78 9.89 23.35 23.35 23.35 7.95 0 14.6-3.25 18.81-8.76z"/><path d="m610.27 240.23v33.4h-78.79v-113.5h36.48v80.09h42.31z"/><path d="m59.52 251.85h7.99v20.94h-29.73v-20.55h7.99v11h3.31v-9.64h6.88v9.64h3.57v-11.39z"/><path d="m37.78 220.94h29.73v8.62l-15.04 9.34h15.04v9.56h-29.73v-8.62l15.04-9.34h-15.04z"/><path d="m59.52 184.32h7.99v20.94h-29.73v-20.56h7.99v11h3.31v-9.64h6.88v9.64h3.57v-11.38z"/><path d="m58.76 160.29h8.75v20.64h-29.73v-9.56h20.98z"/><path d="m462.06 202.06c.34.72.73 1.41 1.06 2.14.16-.14.24-.17.27-.23.3-.65.65-1.28.95-1.92l-1.14-4.13z"/><path d="m479.18 207.25c-2.68 5.8-5.19 11.69-7.48 17.65-.21.54-.39 1.09-.6 1.63l1.18 4.29h-2.76c-2.02 5.53-3.97 11.09-5.96 16.64-.09.24-.18.47-.39 1-2.14-6.04-4.2-11.85-6.26-17.64h-2.79l1.21-4.37c-2.65-7.29-5.69-14.41-9.15-21.35-3.81-7.63-8.05-15.03-12.62-22.24-.03-.05-.07-.1-.11-.16l-30.39 90.92h39.24l4.86-17.51h32.1l4.86 17.51h39.24l-30.42-91.01c-2.46 3.82-4.74 7.76-6.95 11.74-2.37 4.26-4.77 8.5-6.81 12.9z"/><path d="m462.06 202.06 1.14-4.15 1.14 4.13c3.3-6.96 6.91-13.76 10.83-20.39 3.57-6.04 7.36-11.93 11.58-17.52l-1.34-4h-44.42l-1.36 4.07c3.85 5.16 7.48 10.48 10.78 16.03 4.2 7.08 8.09 14.33 11.65 21.83z"/><path d="m535.83 90.83c-1.72-10.54-5.59-20.22-11.53-29.07-6.15-9.15-13.99-16.55-23.46-22.2-10.15-6.05-21.14-9.45-32.91-10.19-8.4-.53-16.68.29-24.79 2.61-11.74 3.35-22.04 9.24-30.85 17.67-6.86 6.56-12.25 14.19-16.18 22.85-3.34 7.36-5.41 15.05-6.18 23.07-.81 8.38-.21 16.67 1.77 24.87 2.11 8.74 5.76 16.77 11.19 23.9 3.65 4.79 7.66 9.29 11.59 13.86 6.74 7.85 13.39 15.75 18.97 24.5l6.18-18.5c-2.92-3.92-5.97-7.75-9.17-11.46-4.91-5.7-9.91-11.34-14.59-17.23-3.65-4.59-6.29-9.79-8-15.46-2.53-8.41-3.31-16.95-2.01-25.64 1.46-9.72 5.12-18.54 11.06-26.41 5.37-7.12 12.01-12.74 19.93-16.77 10.16-5.17 20.96-7.19 32.32-5.98 15.16 1.61 27.76 8.26 37.79 19.67 7.12 8.11 11.53 17.57 13.34 28.24 2 11.8.46 23.14-4.55 33.95-1.95 4.2-4.66 8-7.71 11.55-6.03 7.01-12.04 14.03-17.93 21.16-1.17 1.41-2.28 2.86-3.38 4.32l6.18 18.49c1.87-2.91 3.83-5.76 5.99-8.47 6.29-7.9 12.81-15.63 19.39-23.3 4.37-5.08 8.36-10.41 11.35-16.39 3.79-7.59 5.93-15.72 6.8-24.16.68-6.52.45-13.01-.61-19.48z"/><path d="m463.12 204.19c-.33-.73-.72-1.41-1.06-2.14l-6.73 24.39c.11.31.25.61.36.92.41 1.15.82 2.31 1.23 3.46h12.61c.52-1.43 1.04-2.87 1.57-4.29l-6.76-24.49c-.31.65-.65 1.27-.95 1.92-.03.06-.11.09-.27.23z"/><path d="m463.17 248.46c.21-.53.3-.76.39-1 1.99-5.55 3.94-11.11 5.96-16.64h-12.61c2.07 5.79 4.12 11.61 6.26 17.64z"/><path d="m475.17 181.65c-3.92 6.63-7.53 13.43-10.83 20.39l6.76 24.49c.2-.54.39-1.09.6-1.63 2.29-5.96 4.8-11.85 7.48-17.65 2.04-4.4 4.45-8.64 6.8-12.89 2.2-3.98 4.49-7.92 6.95-11.74l-6.18-18.49c-4.22 5.59-8.01 11.48-11.58 17.52z"/><path d="m446.17 205.1c3.46 6.94 6.51 14.06 9.15 21.35l6.73-24.39c-3.56-7.5-7.44-14.75-11.65-21.82-3.31-5.55-6.93-10.88-10.78-16.03l-6.18 18.5c.03.05.07.1.11.16 4.57 7.2 8.81 14.6 12.62 22.23z"/><path d="m463.2 148.14c-21.47-.05-37.54-17.89-36.79-37.9.79-21 17.91-36.3 37.85-35.69 20.98.64 36.56 18.12 35.71 38.27-.86 20.48-17.76 35.39-36.77 35.32zm-.02-57.91c-11.58-.04-21.03 9.4-21.09 21.07-.06 11.5 9.45 21.14 20.9 21.18 11.7.04 21.25-9.37 21.3-20.99.06-11.77-9.33-21.22-21.11-21.26z"/><path d="m95.71 123.73v22.08h-57.9v-82.21h56.84v22.08h-30.42v9.16h26.67v19.02h-26.67v9.87z"/><path d="m168.75 119.62c0 14.8-10.81 27.72-33.12 27.72-15.51 0-31.83-5.52-35.24-21.96l21.84-6.81c.47 4.23 5.87 7.4 12.1 7.4 4.58 0 7.99-1.76 7.99-4.93 0-4.11-5.05-4.34-13.27-6.34-15.03-3.64-26.07-8.93-26.07-25.84 0-16.09 14.21-26.66 32.29-26.66 14.44 0 27.6 7.16 30.53 21.61l-21.73 5.29c-.94-3.29-4.11-5.52-8.57-5.52-4.7 0-7.16 1.88-7.16 4.7 0 3.99 6.11 4.35 12.45 6.11 20.09 5.5 27.96 11.37 27.96 25.23z"/><path d="m237.09 87.79h-19.26v58.01h-26.43v-58.01h-19.14v-24.19h64.83z"/><path d="m326.68 104.7c0 24.31-18.67 42.63-43.34 42.63-24.66 0-43.33-18.32-43.33-42.63 0-24.19 18.67-42.51 43.33-42.51 24.67 0 43.34 18.32 43.34 42.51zm-26.42 0c0-9.87-7.16-16.91-16.91-16.91s-16.91 7.05-16.91 16.91c0 9.98 7.16 16.91 16.91 16.91 9.75.01 16.91-6.92 16.91-16.91z"/><path d="m377.41 114.92v30.89h-26.42v-30.89l-29.6-51.32h29.01l13.86 29.71 13.86-29.71h28.88z"/><path d="m465.25 78.89c.29.11.6.08.9.11 12.49 1.11 23.07 9.38 27.42 20.79 1.09 2.85 1.75 5.8 2.01 8.84 1.32 15.88-8.99 30.34-24.44 34.25-3.58.91-7.22 1.17-10.9.84-13.04-1.16-24-10.12-27.96-22.33-.9-2.77-1.41-5.61-1.55-8.51 0-.07.04-.15-.05-.2.02-1.16.03-2.33.05-3.49.07-.03.05-.09.06-.14.04-.44.08-.88.12-1.32.36-3.38 1.26-6.61 2.65-9.71 4.92-10.96 15.56-18.33 27.56-19.1.25-.02.52.02.76-.09 1.12.03 2.24.04 3.37.06zm-32.03 32.06c-.23 16.56 12.99 30.15 29.55 30.39 16.57.24 30.17-12.98 30.41-29.55s-12.99-30.17-29.56-30.4c-16.58-.24-30.18 12.99-30.4 29.56z"/><path d="m433.22 110.95c.23-16.57 13.83-29.8 30.4-29.57s29.8 13.83 29.56 30.4-13.84 29.79-30.41 29.55c-16.57-.23-29.78-13.82-29.55-30.38zm29.56 29.65c16.14.23 29.41-12.65 29.65-28.78.24-16.17-12.64-29.45-28.8-29.69-16.15-.24-29.43 12.65-29.67 28.8-.24 16.16 12.66 29.44 28.82 29.67z"/><path d="m462.78 140.6c-16.16-.23-29.05-13.51-28.82-29.67.24-16.15 13.51-29.03 29.67-28.8 16.16.24 29.05 13.52 28.8 29.69-.24 16.13-13.51 29.01-29.65 28.78zm29.09-28.83c.23-15.84-12.4-28.84-28.24-29.08s-28.87 12.39-29.11 28.24c-.24 15.86 12.41 28.89 28.26 29.11s28.86-12.42 29.09-28.27z"/><path d="m491.87 111.77c-.23 15.85-13.24 28.49-29.09 28.26-15.86-.23-28.5-13.25-28.26-29.11.24-15.84 13.27-28.48 29.11-28.24 15.84.25 28.47 13.26 28.24 29.09zm-48.28 13.84c-.05.11 0 .18.02.25.05.18.11.36.19.53 1.19 2.69 2.98 4.9 5.37 6.63 3.32 2.4 7.08 3.56 11.11 3.94 2.67.25 5.34.14 7.98-.34 1.82-.33 3.6-.77 5.29-1.55.75-.34 1.46-.74 1.99-1.38.6-.72.92-1.53.6-2.47-.27-.8-.88-1.28-1.63-1.6-1.05-.45-2.15-.47-3.26-.35-1.33.14-2.64.46-3.93.79-2.8.72-5.61 1.42-8.53 1.51-3.06.09-6.03-.29-8.86-1.55-2.07-.92-3.89-2.19-5.55-3.73-.25-.23-.52-.45-.79-.68zm5.6 2.37c.05.14.15.2.24.26.31.22.64.39.99.53 1.99.82 4.07 1.27 6.22 1.35 3.59.13 7.1-.35 10.49-1.55 1.05-.37 2.1-.75 3.06-1.32.26-.15.51-.31.69-.56.4-.57.24-1.06-.41-1.31-.46-.17-.94-.15-1.42-.1-1.57.17-3.1.54-4.61.95-3.32.9-6.64 1.78-10.09 1.99-1.24.08-2.47.1-3.7-.06-.47-.05-.94-.16-1.46-.18zm6.57-14.03c.03 0 .07-.01.1-.01.05.1.09.2.14.3.08.17.1.41.23.5.15.11.33-.1.5-.16.14-.05.22-.05.22.14 0 .35.02.69.02 1.04 0 .16.05.21.21.21.58 0 1.16.01 1.74.03.21.01.29-.07.3-.29.04-.94.08-1.87.14-2.81.07-1.11.15-2.23.23-3.34.01-.19-.04-.24-.23-.24-.78 0-1.56-.01-2.33-.03-.22-.01-.26.06-.25.27.05 1.02.1 2.04.12 3.06.01.25.17.59-.04.74-.2.14-.53.04-.8.04-.2 0-.22-.08-.21-.26.08-1.2.15-2.39.24-3.59.02-.24-.06-.28-.27-.28-.82 0-1.63-.01-2.45-.04-.26-.01-.33.05-.32.32.09 2.04.2 4.08.21 6.13 0 .2.09.23.26.24.65.01 1.29.01 1.94.03.23.01.28-.08.28-.29-.01-.57.01-1.14.02-1.71zm16.38 14c.52 0 .99.01 1.47.08 1 .13 1.98.36 2.8 1 1.05.81 1.55 1.87 1.34 3.22-.05.33-.16.66-.13 1.04.3-.16.47-.39.62-.64.46-.78.62-1.64.57-2.54-.03-.71-.23-1.38-.41-2.06-.22-.8-.06-1.49.48-2.12.38-.44.82-.79 1.25-1.17 1.39-1.2 2.35-2.66 2.75-4.46.06-.26.13-.54.06-.84-.14.11-.2.24-.27.36-.32.56-.64 1.12-.97 1.68-.89 1.52-2.15 2.62-3.75 3.35-.38.18-.78.31-1.21.35-.74.08-1.39-.14-1.98-.56-.91-.64-1.91-.92-3.02-.86-.18.01-.43 0-.47.16s.21.23.34.32c.2.14.42.25.61.4.76.6.93 1.52.44 2.36-.16.28-.4.55-.52.93zm1.35-17.4c.03.59.07 1.07.08 1.54.04 1.28.08 2.57.1 3.85 0 .18.04.26.24.28.75.1 1.49.13 2.24.07 1.91-.14 3.09-1.34 3.17-3.24.08-1.74-.78-2.98-2.42-3.43-1.09-.3-2.19-.18-3.3-.11-.15.01-.16.09-.15.21.02.33.03.63.04.83zm-29.65 3.01c.03-.01.06-.02.09-.02 1.04.78 2.07 1.56 3.15 2.37.04-1.02.06-1.98.12-2.93.07-1.19.15-2.37.24-3.56.01-.19-.03-.27-.23-.26-.38.01-.77 0-1.15-.01-.18-.01-.22.05-.21.22.03.41.03.81.05 1.28-.15-.14-.27-.23-.37-.33-.36-.34-.72-.69-1.07-1.04-.11-.12-.23-.17-.4-.16-.57 0-1.14 0-1.71-.02-.17 0-.22.03-.21.22.09 2.09.24 4.17.28 6.26 0 .15.05.2.19.2.32 0 .64 0 .96.01.2.01.27-.06.27-.27-.03-.66-.01-1.31 0-1.96zm-4.37-4.51c-.67-.01-1.33-.01-2-.03-.23-.01-.3.04-.29.29.11 2.02.17 4.05.2 6.07 0 .26.08.32.31.32 1.05.01 2.1.02 3.15.06.31.01.49-.05.52-.39.03-.24.11-.47.18-.71.05-.16.02-.22-.16-.19-.35.05-.71.09-1.06.1-.45.02-.45.01-.44-.43 0-.09.02-.19.01-.28-.01-.19.05-.27.26-.25.31.04.62.05.92.08.12.01.16-.02.19-.13.06-.28.13-.57.2-.85.04-.15.02-.22-.16-.21-.24.01-.49 0-.73 0-.62 0-.62 0-.56-.63.01-.14.05-.2.2-.18.34.04.69.07 1.03.12.21.03.29 0 .31-.24.04-.75.11-1.5.18-2.24.02-.22-.05-.25-.24-.25-.67 0-1.34-.02-2.02-.03zm29.7 6.3c.13.26.24.5.35.73.06.15.13.15.24.06.19-.16.39-.29.61-.41.3-.15.31-.16.39.18.04.18.11.26.31.25.52-.01 1.05.01 1.57.02.58.01.58.01.45-.55-.46-1.97-.91-3.94-1.25-5.93-.03-.17-.11-.21-.27-.21-.69 0-1.39 0-2.08-.03-.26-.01-.35.07-.36.32 0 .16-.05.31-.08.47-.33 1.82-.81 3.61-1.29 5.4-.12.46-.12.46.36.46.25 0 .55.09.75-.02.22-.11.17-.47.3-.74zm11.69.18c.17.21.23.46.34.68.07.15.13.2.28.07.19-.15.4-.28.6-.41.18-.12.32-.13.34.15.02.22.14.31.38.31.61-.01 1.22 0 1.83.02.24.01.28-.05.23-.28-.47-2.07-.97-4.13-1.32-6.23-.03-.16-.1-.19-.24-.19-.55 0-1.11-.02-1.66-.02-.24 0-.54-.11-.71.04-.16.13-.1.44-.15.66 0 .01-.01.02-.01.03-.33 1.79-.79 3.56-1.28 5.32-.16.59-.15.59.45.6.65.01.65.01.85-.61.02-.05.04-.09.07-.14zm-28.27-.93c-.21.06-.39.11-.57.15-.61.13-1.25-.19-1.5-.74-.42-.94.15-1.97 1.17-2.1.24-.03.49-.04.73.02.19.04.22-.01.21-.18-.03-.78-.06-1.56-.08-2.33 0-.15-.07-.19-.2-.22-.46-.09-.94-.08-1.4-.05-1.88.1-3.15 1.31-3.24 3.11-.15 2.88 2.18 4.19 4.35 3.7.14-.03.26-.06.29-.25.07-.35.15-.7.24-1.11zm33.11.48c.08.36.16.69.21 1.03.04.23.17.31.38.34.36.04.71.05 1.07 0 .8-.09 1.39-.63 1.51-1.36.07-.43-.07-.81-.27-1.18-.13-.25-.3-.47-.39-.75-.13-.41.12-.74.54-.74.09 0 .19 0 .28.02.16.05.19-.01.19-.16-.03-.78-.06-1.56-.08-2.33 0-.15-.05-.21-.2-.24-.64-.14-1.28-.21-1.93-.12-.81.12-1.52.43-1.81 1.26-.3.84-.1 1.61.5 2.26.24.25.5.48.76.71.15.14.3.28.41.46.13.22.16.45.03.67-.12.21-.34.22-.55.21s-.42-.05-.65-.08zm-19.54-2.91c.05-.83.09-1.67.14-2.5.01-.2-.04-.25-.24-.25-.81 0-1.61-.02-2.42-.03-.35 0-.35 0-.34.36.04.81.1 1.63.12 2.44.04 1.2.05 2.4.07 3.6 0 .14-.01.25.19.26 1.19.01 2.38.04 3.57.06.13 0 .18-.04.21-.16.06-.32.13-.64.21-.96.05-.17 0-.19-.16-.17-.44.05-.87.12-1.31.12-.16 0-.23-.03-.21-.22.07-.85.12-1.7.17-2.55zm-3.39.54c.06-1.03.11-2.06.18-3.09.01-.19-.04-.24-.22-.24-.84 0-1.69-.02-2.53-.04-.2-.01-.25.05-.24.25.03.68.05 1.37.07 2.05.04 1.38.08 2.75.12 4.13 0 .19.07.24.25.24.67 0 1.33.01 2 .03.17.01.22-.05.23-.22.02-1.04.08-2.08.14-3.11zm2.42-14.6c.05.11.09.18.13.26.18.39.18.39.53.16.08-.05.16-.09.24-.15.16-.11.26-.08.29.11.03.18.12.22.29.22.45 0 .9 0 1.35.02.19.01.23-.03.19-.23-.33-1.56-.72-3.12-.99-4.69-.02-.11-.05-.18-.19-.18-.55 0-1.11-.01-1.66-.02-.14 0-.19.05-.22.19-.13.83-.32 1.65-.52 2.47-.19.73-.38 1.47-.56 2.2-.02.07-.11.2.07.2.27.01.56.06.81-.01.16-.04.1-.34.21-.5 0 0 .01-.01.03-.05zm-9.54-.11c.07.04.08.12.11.18.2.44.2.44.6.18.06-.04.13-.07.19-.11.14-.1.24-.08.27.11.03.17.13.23.31.23.44-.01.88-.01 1.32.02.25.02.26-.08.21-.27-.36-1.54-.69-3.08-.98-4.63-.03-.14-.08-.21-.23-.21-.54 0-1.09-.01-1.63-.02-.15 0-.18.05-.2.19-.13.82-.31 1.63-.52 2.44-.19.73-.38 1.46-.57 2.2-.02.08-.11.22.06.24.27.02.56.06.81-.01.16-.04.12-.33.2-.49.02-.03.04-.04.05-.05zm17.08.21c.13.14.18.29.22.42.07.19.14.26.32.1.11-.1.24-.17.37-.25.15-.1.26-.1.29.11.03.18.13.23.31.23.43-.01.86-.01 1.29.02.25.01.28-.06.23-.28-.33-1.53-.66-3.07-.97-4.61-.04-.18-.11-.2-.26-.2-.51 0-1.01-.01-1.52-.04-.21-.01-.28.07-.31.25-.24 1.5-.62 2.96-1.02 4.42-.11.39-.1.39.29.4.57.02.57.02.76-.57zm-8.8-.53c-.14.04-.24.07-.34.1-.61.14-1.14-.15-1.29-.73-.16-.63.15-1.19.75-1.37.23-.07.46-.07.7-.04.17.02.23-.01.22-.2-.03-.55-.04-1.1-.05-1.66 0-.17-.09-.22-.24-.24-.4-.05-.8-.05-1.21 0-1.1.12-1.86.72-2.15 1.73-.6 2.09 1.05 3.9 3.15 3.46.1-.02.24 0 .27-.15.06-.29.12-.58.19-.9zm7.6-2.92c-.01 0-.03 0-.04 0 0-.29.01-.58.01-.87 0-.11 0-.21-.15-.23-.42-.06-.83-.15-1.26-.13-1.11.06-1.76.71-1.7 1.7.03.46.23.82.56 1.13.25.23.5.46.73.7.16.16.19.37.1.57-.09.21-.29.2-.49.18-.06 0-.11-.01-.17-.02-.27-.08-.27.03-.22.25.18.78.17.76.95.78.93.02 1.88-.81 1.19-2.01-.11-.19-.21-.38-.28-.58-.09-.24.08-.46.33-.51.15-.03.35.12.43-.05.06-.13.01-.31.01-.47.01-.14 0-.29 0-.44zm-20.25 1.16h.07c-.01.77-.02 1.54-.03 2.3 0 .22.07.29.29.28.73 0 1.46.02 2.19.03.52.01.52.01.63-.49.02-.09.03-.19.06-.27.06-.18.05-.25-.18-.21-.27.05-.54.05-.81.08-.22.03-.28-.04-.27-.27.08-1.22.15-2.45.23-3.67.01-.19-.02-.26-.23-.26-.61.01-1.22-.01-1.83-.02-.18-.01-.24.03-.23.23.05.75.07 1.51.11 2.27zm4.49 7.95c.03.78.05 1.34.06 1.91 0 .18.07.24.24.26.5.05.99.08 1.48-.03.97-.21 1.49-.87 1.49-1.89 0-.99-.56-1.68-1.52-1.87-.54-.11-1.08-.08-1.62-.04-.16.01-.2.07-.19.22.03.55.04 1.11.06 1.44zm3.53.27c.02.57.04 1.14.05 1.71 0 .12.01.19.16.19.63 0 1.26.02 1.88.03.08 0 .15.01.17-.09.05-.2.18-.43.12-.59-.05-.13-.32.01-.49 0-.05 0-.09 0-.14 0-.25.05-.32-.04-.3-.3.02-.18.07-.25.25-.22.11.02.23.01.34.02.13.01.19-.02.23-.16.11-.51.12-.51-.41-.5-.03 0-.06 0-.08 0-.19.03-.26-.02-.25-.23 0-.23.1-.23.27-.2.14.03.28.01.42.04.14.02.18-.03.19-.16.03-.39.06-.78.1-1.18.02-.14-.02-.2-.17-.2-.74 0-1.48-.01-2.22-.03-.15 0-.19.04-.18.19.03.56.04 1.12.06 1.68zm7.07 1.62c.24.41.24.41.59.2.14-.09.28-.16.31.09.02.12.11.11.19.11.32 0 .64 0 .95.02.19.01.23-.04.19-.23-.25-1.13-.55-2.25-.72-3.4-.02-.13-.09-.16-.21-.16-.36 0-.71 0-1.07-.02-.19-.01-.26.06-.29.24-.17 1.01-.42 1.99-.68 2.98-.18.67-.21.52.42.55.3.02.18-.27.32-.38zm-20.04 11.99c0-.01 0-.01 0 0-2.95-.04-5.91-.09-8.86-.13-.05 0-.09 0-.14 0-.1-.01-.15.02-.16.13-.02.2.02.27.25.27 2.41.02 4.82.06 7.23.1 3.52.05 7.03.1 10.55.16.2 0 .29-.02.28-.25-.01-.24-.18-.15-.28-.15-2.96-.05-5.91-.09-8.87-.13zm33.62.86c2.95.05 5.91.09 8.86.14.22 0 .3-.04.28-.27s-.2-.13-.3-.14c-5.88-.09-11.75-.17-17.63-.25-.05 0-.09 0-.14 0-.11-.01-.14.03-.16.14-.03.21.04.27.26.27 2.94.02 5.89.07 8.83.11zm-10.83-13.14c.11.79.27.9 1.05.73.02 0 .04-.01.06-.01.56-.15.83-.66.62-1.2-.07-.17-.17-.33-.25-.5-.16-.34-.04-.54.32-.52.17.01.21-.04.2-.2-.02-.37-.03-.75-.03-1.12 0-.14-.05-.23-.2-.26-.46-.09-.91-.1-1.36.05-.55.18-.82.65-.74 1.23.05.39.29.66.57.91.16.14.34.27.44.47.13.27 0 .46-.3.46-.14-.01-.26-.08-.38-.04zm-4.52-1.6h.05c.03-.44.06-.88.1-1.32.01-.15-.02-.21-.19-.21-.45 0-.9-.01-1.35-.02-.11 0-.17.01-.16.15.05 1.14.08 2.28.12 3.43 0 .16.05.2.21.2.58 0 1.16.02 1.74.02.09 0 .23.08.27-.06.06-.21.1-.42.13-.63.01-.04-.1-.03-.15-.02-.18.02-.35.03-.53.05-.19.03-.27-.03-.26-.24.01-.45.01-.9.02-1.35zm-3.79 14.28h.01c0 .13-.01.26-.01.39 0 .75 0 .75.77.71.59-.03.96-.39 1.02-.96.05-.58-.25-1-.81-1.14-.29-.07-.58-.04-.87-.04-.14 0-.17.08-.16.2.03.28.04.56.05.84zm-4.91-.07h.02c0 .13-.01.26-.01.39.01.75.01.75.76.71.58-.03.95-.38 1.01-.93.06-.6-.22-1.02-.8-1.17-.29-.07-.58-.04-.87-.04-.14 0-.16.08-.16.2.03.28.04.56.05.84zm2.6 1.11c.15 0 .3 0 .45.01.25.02.21-.2.22-.31.02-.17-.14-.03-.21-.07-.03-.01-.07 0-.11 0-.09 0-.19.03-.18-.13 0-.14.06-.17.19-.16.09 0 .2.07.26-.08.1-.27-.04-.29-.25-.27-.08.01-.17.02-.17-.12 0-.13.08-.17.18-.14.3.09.35-.06.33-.3-.01-.11.01-.22.03-.33.02-.13-.01-.19-.15-.19-.36 0-.73 0-1.09-.02-.14 0-.17.05-.17.18.02.44.03.88.05 1.32.01.6.01.6.62.61zm5.57-.32c-.11 0-.19.02-.27.01-.09-.01-.23.08-.23-.13 0-.19.12-.15.22-.15.08 0 .18.06.23-.09.07-.22.01-.3-.22-.27-.08.01-.2.03-.2-.12 0-.11.07-.16.16-.13.33.11.34-.09.34-.32 0-.1.02-.21.03-.31.03-.14-.02-.2-.17-.2-.36 0-.71 0-1.07-.01-.14 0-.18.04-.17.18.02.58.04 1.16.05 1.74 0 .13.04.19.18.18.24 0 .49-.02.73.01.31.04.4-.1.39-.39zm2.03-.73c-.01.42.08.72.27.94.27.32.66.33.94.02.34-.37.43-1.08.19-1.53-.13-.24-.32-.39-.6-.4-.29-.01-.5.12-.65.36-.12.21-.15.43-.15.61zm-5.91-1.08c-.39-.02-.7.13-.81.39-.12.29-.02.59.29.87.08.07.17.13.21.22.07.15.06.27-.15.29-.06 0-.2-.08-.17.08.02.11-.02.27.14.3.25.04.51.05.7-.17.18-.21.14-.43.02-.65-.02-.04-.04-.08-.07-.12-.09-.18-.05-.3.16-.31.13 0 .14-.05.13-.15-.01-.11-.01-.22-.02-.34-.02-.39-.02-.39-.43-.41zm8.61 1.93c.21 0 .38.01.55.01.12 0 .2.02.18.17-.02.14.04.19.18.18.18-.02.44.11.41-.26-.01-.07.08-.06.13-.08.11-.04.11-.14.12-.23.02-.14-.09-.08-.15-.09-.14-.02-.09-.12-.08-.19.01-.35.03-.69.04-1.04 0-.06.04-.16-.03-.18-.19-.06-.39-.06-.58-.02-.13.03-.06.18-.05.27.01.16 0 .28-.21.25-.06-.01-.15-.02-.15.08.02.4-.17.75-.36 1.13zm-3.42-.09c.2-.26.37-.47.49-.71.13-.27.2-.55-.01-.81s-.51-.24-.8-.2c-.09.01-.19.04-.17.17.02.19-.1.38-.02.57 0 .01.05 0 .08 0 .27-.01.31.15.28.36-.03.27-.17.49-.3.72-.1.18-.08.28.15.28.18 0 .36-.01.53.01.26.03.25-.18.26-.31.01-.18-.15-.05-.23-.07-.07-.02-.14-.01-.26-.01zm3.27-.66h.04c0-.28.01-.56.01-.84 0-.24-.05-.28-.28-.17-.18.08-.36.16-.53.25-.07.03-.19.03-.15.15s0 .32.16.35c.15.02.13.09.13.18 0 .33.01.66 0 .98-.01.29.21.17.34.19s.29.05.28-.18c-.02-.31 0-.61 0-.91z"/><path d="m443.59 125.61c.27.23.54.45.79.68 1.65 1.53 3.48 2.81 5.55 3.73 2.83 1.25 5.8 1.64 8.86 1.55 2.92-.09 5.72-.79 8.53-1.51 1.3-.33 2.6-.65 3.93-.79 1.11-.12 2.21-.09 3.26.35.75.32 1.36.8 1.63 1.6.32.94 0 1.75-.6 2.47-.54.64-1.25 1.04-1.99 1.38-1.69.77-3.47 1.22-5.29 1.55-2.64.48-5.31.59-7.98.34-4.03-.38-7.79-1.54-11.11-3.94-2.38-1.73-4.18-3.93-5.37-6.63-.08-.17-.13-.35-.19-.53-.02-.07-.06-.14-.02-.25z"/><path d="m449.19 127.98c.51.02.98.13 1.46.19 1.23.17 2.47.14 3.7.06 3.45-.22 6.77-1.1 10.09-1.99 1.52-.41 3.04-.79 4.61-.95.48-.05.95-.07 1.42.1.65.24.81.73.41 1.31-.18.25-.43.41-.69.56-.97.57-2.01.95-3.06 1.32-3.4 1.2-6.9 1.68-10.49 1.55-2.15-.08-4.23-.53-6.22-1.35-.35-.14-.68-.32-.99-.53-.09-.07-.18-.13-.24-.27z"/><path d="m455.76 113.95c-.01.57-.02 1.14-.02 1.71 0 .21-.05.3-.28.29-.65-.03-1.29-.03-1.94-.03-.16 0-.25-.03-.26-.24-.01-2.04-.12-4.08-.21-6.13-.01-.26.06-.33.32-.32.81.03 1.63.04 2.45.04.21 0 .29.04.27.28-.09 1.2-.15 2.39-.24 3.59-.01.17.01.25.21.26.27 0 .6.1.8-.04.2-.15.04-.49.04-.74-.03-1.02-.07-2.04-.12-3.06-.01-.21.03-.27.25-.27.78.03 1.56.03 2.33.03.18 0 .24.05.23.24-.08 1.11-.17 2.22-.23 3.34-.06.94-.11 1.87-.14 2.81-.01.22-.09.29-.3.29-.58-.02-1.16-.02-1.74-.03-.16 0-.21-.05-.21-.21 0-.35-.02-.69-.02-1.04 0-.19-.07-.19-.22-.14-.17.06-.35.27-.5.16-.13-.09-.16-.33-.23-.5-.04-.1-.09-.2-.14-.3-.04.01-.07.01-.1.01z"/><path d="m472.14 127.95c.12-.38.35-.64.53-.94.49-.84.32-1.76-.44-2.36-.19-.15-.41-.26-.61-.4-.13-.09-.38-.16-.34-.32s.3-.15.47-.16c1.1-.05 2.11.22 3.02.86.59.42 1.24.64 1.98.56.42-.04.82-.18 1.21-.35 1.6-.73 2.87-1.82 3.75-3.35.32-.56.64-1.12.97-1.68.07-.12.12-.25.27-.36.07.3 0 .57-.06.84-.41 1.8-1.36 3.26-2.75 4.46-.43.37-.88.73-1.25 1.17-.54.63-.7 1.32-.48 2.12.19.68.38 1.35.41 2.06.04.9-.12 1.75-.57 2.54-.15.25-.32.48-.62.64-.03-.37.07-.7.13-1.04.21-1.35-.29-2.41-1.34-3.22-.82-.63-1.79-.87-2.8-1-.49-.06-.96-.07-1.48-.07z"/><path d="m473.49 110.55c-.01-.2-.01-.51-.03-.81-.01-.12.01-.2.15-.21 1.1-.08 2.21-.2 3.3.11 1.63.45 2.49 1.69 2.42 3.43-.08 1.9-1.26 3.1-3.17 3.24-.75.06-1.5.02-2.24-.07-.2-.03-.23-.1-.24-.28-.03-1.28-.06-2.57-.1-3.85-.03-.49-.06-.97-.09-1.56zm2.76 3.13c-.02 0-.04 0-.06 0-.01.37.01.73-.02 1.09-.02.26.1.25.27.22.69-.13 1.09-.68 1.1-1.51.01-.69-.37-1.11-1.05-1.18-.15-.02-.24 0-.24.19.02.41 0 .8 0 1.19z"/><path d="m443.84 113.56c-.01.65-.03 1.3-.02 1.96 0 .21-.07.28-.27.27-.32-.02-.64-.02-.96-.01-.15 0-.19-.05-.19-.2-.04-2.09-.18-4.17-.28-6.26-.01-.18.05-.22.21-.22.57.01 1.14.02 1.71.02.16 0 .28.05.4.16.35.35.71.7 1.07 1.04.11.1.22.19.37.33-.02-.47-.02-.88-.05-1.28-.01-.17.03-.23.21-.22.38.02.77.03 1.15.01.21-.01.25.07.23.26-.09 1.19-.17 2.37-.24 3.56-.05.95-.08 1.91-.12 2.93-1.08-.81-2.12-1.59-3.15-2.37-.02 0-.05.01-.07.02z"/><path d="m439.47 109.05c.67.01 1.35.02 2.02.02.19 0 .26.03.24.25-.08.75-.14 1.49-.18 2.24-.01.24-.1.27-.31.24-.34-.05-.69-.07-1.03-.12-.15-.02-.18.03-.2.18-.06.63-.07.63.56.63.24 0 .49.01.73 0 .18-.01.2.06.16.21-.07.28-.14.56-.2.85-.02.12-.06.15-.19.13-.31-.04-.62-.05-.92-.08-.2-.02-.27.06-.26.25.01.09-.01.19-.01.28-.02.44-.02.45.44.43.35-.02.71-.06 1.06-.1.18-.02.21.03.16.19-.07.23-.15.47-.18.71-.04.34-.22.4-.52.39-1.05-.03-2.1-.05-3.15-.06-.23 0-.31-.06-.31-.32-.03-2.02-.08-4.05-.2-6.07-.01-.24.06-.29.29-.29.67.04 1.34.03 2 .04z"/><path d="m469.17 115.35c-.13.28-.08.63-.29.75-.19.11-.49.02-.75.02-.48-.01-.48-.01-.36-.46.48-1.79.96-3.58 1.29-5.4.03-.16.08-.31.08-.47.01-.25.1-.33.36-.32.69.03 1.39.03 2.08.03.15 0 .24.04.27.21.34 1.99.78 3.96 1.25 5.93.13.56.13.56-.45.55-.52-.01-1.05-.03-1.57-.02-.2 0-.27-.07-.31-.25-.08-.34-.09-.34-.39-.18-.22.11-.42.25-.61.41-.11.1-.18.09-.24-.06-.11-.25-.23-.48-.36-.74zm.75-2.15c-.27.53-.43 1.06-.6 1.59-.04.14.09.11.16.1.28-.04.55-.09.83-.13.15-.02.18-.05.13-.21-.13-.45-.31-.88-.52-1.35z"/><path d="m480.86 115.53c-.02.05-.05.09-.06.14-.2.62-.2.62-.85.61-.61-.01-.62-.01-.45-.6.48-1.76.95-3.52 1.28-5.32 0-.01.01-.02.01-.03.05-.23-.01-.53.15-.66.17-.14.47-.04.71-.04.55 0 1.11.02 1.66.02.14 0 .21.02.24.19.35 2.09.85 4.16 1.32 6.23.05.23.01.29-.23.28-.61-.02-1.22-.03-1.83-.02-.24 0-.36-.09-.38-.31-.03-.28-.16-.27-.34-.15-.2.13-.41.26-.6.41-.15.12-.21.08-.28-.07-.12-.22-.19-.47-.35-.68zm.74-2.18c-.27.53-.42 1.06-.58 1.58-.04.12.04.15.14.13.29-.05.59-.06.88-.14.11-.03.14-.05.11-.16-.13-.47-.31-.92-.55-1.41z"/><path d="m452.59 114.6c-.08.4-.17.76-.23 1.12-.03.18-.15.22-.29.25-2.17.48-4.5-.83-4.35-3.7.09-1.81 1.36-3.02 3.24-3.11.47-.02.94-.04 1.4.05.13.03.19.07.2.22.02.78.05 1.56.08 2.33.01.17-.02.23-.21.18-.24-.05-.49-.05-.73-.02-1.02.13-1.59 1.16-1.17 2.1.24.55.89.87 1.5.74.17-.04.35-.1.56-.16z"/><path d="m485.7 115.08c.23.03.44.07.65.09.21.01.43 0 .55-.21.13-.22.1-.45-.03-.67-.11-.18-.25-.32-.41-.46-.25-.24-.52-.46-.76-.71-.6-.65-.81-1.42-.5-2.26.3-.83 1-1.14 1.81-1.26.65-.1 1.29-.02 1.93.12.15.03.2.1.2.24.02.78.05 1.56.08 2.33.01.15-.02.21-.19.16-.09-.03-.19-.02-.28-.02-.43 0-.67.33-.54.74.08.27.25.5.39.75.2.37.34.75.27 1.18-.12.74-.71 1.27-1.51 1.36-.35.04-.71.03-1.07 0-.21-.02-.34-.11-.38-.34-.05-.35-.14-.68-.21-1.04z"/><path d="m466.16 112.17c-.05.85-.09 1.7-.16 2.55-.01.19.05.22.21.22.44 0 .88-.07 1.31-.12.15-.02.2 0 .16.17-.08.32-.15.64-.21.96-.02.13-.08.17-.21.16-1.19-.03-2.38-.05-3.57-.06-.21 0-.19-.12-.19-.26-.02-1.2-.04-2.4-.07-3.6-.02-.81-.08-1.63-.12-2.44-.02-.37-.02-.37.34-.36.81.01 1.61.03 2.42.03.2 0 .25.05.24.25-.06.83-.1 1.67-.15 2.5z"/><path d="m462.77 112.71c-.06 1.04-.12 2.08-.17 3.12-.01.17-.05.22-.23.22-.67-.02-1.33-.03-2-.03-.18 0-.24-.05-.25-.24-.03-1.38-.08-2.75-.12-4.13-.02-.68-.03-1.37-.07-2.05-.01-.2.05-.25.24-.25.84.02 1.69.03 2.53.04.19 0 .24.05.22.24-.04 1.02-.1 2.05-.15 3.08z"/><path d="m465.19 98.11c-.03.04-.03.04-.04.05-.1.16-.05.45-.21.5-.25.07-.54.02-.81.01-.18-.01-.09-.13-.07-.2.18-.73.37-1.47.56-2.2.21-.82.39-1.64.52-2.47.02-.14.07-.19.22-.19.55.01 1.11.02 1.66.02.14 0 .17.07.19.18.27 1.58.65 3.13.99 4.69.04.2 0 .24-.19.23-.45-.02-.9-.03-1.35-.02-.17 0-.26-.04-.29-.22-.03-.19-.13-.23-.29-.11-.08.05-.16.09-.24.15-.35.23-.35.23-.53-.16-.03-.07-.07-.15-.12-.26zm.53-1.68c-.15.49-.37.86-.44 1.3.28.03.52-.02.76-.08.07-.02.15-.02.12-.11-.12-.35-.2-.73-.44-1.11z"/><path d="m455.65 98c-.02.01-.04.02-.04.04-.08.16-.04.45-.2.49-.25.07-.54.03-.81.01-.17-.01-.08-.16-.06-.24.19-.73.38-1.47.57-2.2.21-.81.39-1.62.52-2.44.02-.14.05-.19.2-.19.54.02 1.09.02 1.63.02.16 0 .2.06.23.21.29 1.55.62 3.1.98 4.63.04.19.03.28-.21.27-.44-.03-.88-.03-1.32-.02-.18 0-.28-.06-.31-.23-.03-.19-.13-.2-.27-.11-.06.04-.13.07-.19.11-.4.26-.4.26-.6-.18-.04-.05-.05-.13-.12-.17zm.55-1.66c-.19.38-.31.75-.43 1.12-.01.03-.02.1-.01.11.22.13.44 0 .67-.02.08 0 .22-.02.18-.18-.09-.36-.2-.7-.41-1.03z"/><path d="m472.73 98.21c-.19.58-.19.58-.76.57-.39-.01-.4-.01-.29-.4.4-1.46.78-2.93 1.02-4.42.03-.18.1-.26.31-.25.5.03 1.01.03 1.52.04.15 0 .23.02.26.2.32 1.54.64 3.07.97 4.61.05.22.02.3-.23.28-.43-.02-.86-.03-1.29-.02-.18 0-.28-.05-.31-.23-.03-.21-.14-.21-.29-.11-.13.08-.26.16-.37.25-.18.16-.26.09-.32-.1-.05-.13-.09-.28-.22-.42zm.58-1.64c-.13.21-.2.41-.27.62s-.27.5-.15.62c.16.15.46-.01.69-.05.01 0 .02-.01.03-.01.11 0 .12-.07.1-.15-.1-.34-.21-.68-.4-1.03z"/><path d="m463.93 97.68c-.07.32-.13.61-.19.9-.03.15-.17.13-.27.15-2.11.44-3.76-1.37-3.15-3.46.29-1 1.05-1.61 2.15-1.73.4-.04.8-.05 1.21 0 .15.02.24.07.24.24.01.55.02 1.11.05 1.66.01.19-.05.22-.22.2-.23-.03-.47-.03-.7.04-.6.18-.92.74-.75 1.37.15.57.67.87 1.29.73.1-.03.2-.06.34-.1z"/><path d="m471.53 94.76c.01.15.01.3.02.45 0 .16.05.34-.01.47-.08.17-.28.02-.43.05-.25.05-.42.27-.33.51.07.2.18.39.28.58.69 1.2-.26 2.02-1.19 2.01-.78-.01-.77 0-.95-.78-.05-.22-.04-.33.22-.25.05.02.11.02.17.02.19.01.39.03.49-.18.09-.2.06-.41-.1-.57-.24-.24-.49-.47-.73-.7-.33-.31-.54-.67-.56-1.13-.06-.99.59-1.64 1.7-1.7.43-.02.84.07 1.26.13.14.02.15.12.15.23 0 .29-.01.58-.01.87-.01-.01.01-.01.02-.01z"/><path d="m451.28 95.92c-.03-.76-.06-1.52-.11-2.27-.01-.2.05-.24.23-.23.61.02 1.22.03 1.83.02.21 0 .24.08.23.26-.08 1.22-.14 2.45-.23 3.67-.02.23.05.3.27.27.27-.03.54-.03.81-.08.22-.04.24.03.18.21-.03.09-.04.18-.06.27-.11.5-.11.5-.63.49-.73-.01-1.46-.03-2.19-.03-.22 0-.3-.07-.29-.28.02-.77.02-1.54.03-2.3-.03 0-.05 0-.07 0z"/><path d="m455.77 103.87c-.01-.33-.03-.88-.06-1.44-.01-.15.03-.21.19-.22.54-.04 1.08-.07 1.62.04.96.19 1.52.88 1.52 1.87 0 1.02-.52 1.68-1.49 1.89-.49.1-.99.08-1.48.03-.17-.02-.24-.08-.24-.26-.01-.57-.04-1.13-.06-1.91zm1.52.71c-.01 0-.01 0-.02 0-.01.21-.03.41-.04.62 0 .08 0 .14.12.14.32-.01.63-.35.67-.73.04-.42-.14-.72-.48-.81-.17-.04-.25 0-.24.19s0 .39-.01.59z"/><path d="m459.3 104.14c-.02-.56-.03-1.12-.06-1.69-.01-.15.03-.19.18-.19.74.02 1.48.03 2.22.03.16 0 .19.05.17.2-.04.39-.08.78-.1 1.18-.01.13-.05.19-.19.16-.14-.02-.28-.01-.42-.04-.17-.03-.27-.03-.27.2 0 .21.07.26.25.23h.08c.53-.01.52-.01.41.5-.03.15-.09.18-.23.16-.11-.01-.23 0-.34-.02-.18-.03-.23.03-.25.22-.02.25.05.34.3.3.05-.01.09-.01.14 0 .17.01.44-.13.49 0 .06.16-.08.39-.12.59-.02.1-.09.1-.17.09-.63-.01-1.26-.02-1.88-.03-.15 0-.16-.07-.16-.19-.01-.55-.03-1.12-.05-1.7z"/><path d="m466.37 105.76c-.14.11-.02.4-.3.38-.64-.03-.6.12-.42-.55.26-.98.51-1.97.68-2.98.03-.18.1-.25.29-.24.35.02.71.02 1.07.02.12 0 .19.02.21.16.16 1.15.46 2.27.72 3.4.04.19.01.24-.19.23-.32-.02-.64-.01-.95-.02-.08 0-.17.01-.19-.11-.04-.25-.17-.18-.31-.09-.37.21-.37.21-.61-.2zm.4-1.26c-.07.19-.15.36-.2.53-.04.13-.18.28-.07.38.08.06.26.01.4-.01.09-.02.24-.01.18-.19-.09-.24-.13-.49-.31-.71z"/><path d="m446.33 117.75c2.95.04 5.91.08 8.86.13.11 0 .27-.09.28.15.01.23-.08.25-.28.25-3.52-.06-7.03-.11-10.55-.16-2.41-.03-4.82-.07-7.23-.1-.23 0-.27-.08-.25-.27.01-.12.06-.14.16-.13h.14c2.97.04 5.92.08 8.87.13 0-.01 0-.01 0 0z"/><path d="m479.95 118.61c-2.94-.04-5.89-.08-8.83-.12-.21 0-.29-.06-.26-.27.01-.11.05-.15.16-.14.05.01.09 0 .14 0 5.88.08 11.75.16 17.63.25.1 0 .27-.1.3.14.02.23-.07.27-.28.27-2.96-.04-5.91-.08-8.86-.13z"/><path d="m469.12 105.47c.12-.04.24.03.36.03.3 0 .43-.19.3-.46-.1-.2-.28-.33-.44-.47-.28-.25-.51-.51-.57-.91-.08-.58.19-1.05.74-1.23.45-.14.9-.14 1.36-.05.15.03.2.11.2.26.01.37.01.75.03 1.12.01.16-.03.2-.2.2-.37-.01-.48.19-.32.52.08.17.18.33.25.5.21.55-.05 1.05-.62 1.2-.02 0-.04.01-.06.01-.76.18-.92.07-1.03-.72z"/><path d="m464.6 103.87c-.01.45 0 .9-.02 1.35-.01.21.06.27.26.24.18-.03.35-.04.53-.05.05 0 .16-.02.15.02-.03.21-.07.43-.13.63-.04.14-.18.06-.27.06-.58 0-1.16-.02-1.74-.02-.16 0-.21-.04-.21-.2-.03-1.14-.07-2.29-.12-3.43-.01-.14.05-.15.16-.15.45.01.9.02 1.35.02.17 0 .2.06.19.21-.04.44-.07.88-.1 1.32-.02 0-.04 0-.05 0z"/><path d="m460.81 118.15c-.01-.28-.02-.56-.04-.84-.01-.12.01-.2.16-.2.29 0 .58-.03.87.04.56.15.86.56.81 1.14-.05.57-.43.93-1.02.96-.77.05-.77.05-.77-.71 0-.13 0-.26.01-.39-.01 0-.01 0-.02 0zm.82.34c.05.08-.13.31.06.33.22.02.32-.19.35-.4.01-.1-.01-.19-.06-.27-.07-.1-.17-.17-.28-.14s-.05.14-.07.22c0 .07.01.15 0 .26z"/><path d="m455.9 118.08c-.01-.28-.02-.56-.03-.84-.01-.12.01-.2.16-.2.29 0 .58-.03.87.04.58.15.86.57.8 1.17-.06.55-.43.9-1.01.93-.76.04-.76.04-.76-.71 0-.13 0-.26.01-.39-.03 0-.03 0-.04 0zm.82.28c-.01.04-.01.08-.01.11.02.1-.07.27.05.29.15.03.28-.09.33-.25.06-.14.07-.29-.02-.43-.06-.1-.17-.16-.28-.14-.11.03-.06.14-.07.22 0 .06.01.13 0 .2z"/><path d="m458.5 119.19c-.6-.01-.61-.01-.63-.61-.02-.44-.02-.88-.05-1.32-.01-.13.03-.19.17-.18.36.01.73.02 1.09.02.14 0 .18.06.15.19-.02.11-.04.22-.03.33.02.25-.04.4-.33.3-.1-.03-.18 0-.18.14s.09.12.17.12c.21-.03.35 0 .25.27-.06.15-.17.08-.26.08-.13-.01-.18.02-.19.16 0 .16.09.13.18.13.04 0 .08-.01.11 0 .07.03.22-.1.21.07-.01.12.03.33-.22.31-.14-.02-.29-.01-.44-.01z"/><path d="m464.07 118.87c.01.29-.08.43-.39.39-.24-.03-.49-.02-.73-.01-.14 0-.17-.05-.18-.18-.01-.58-.02-1.16-.05-1.74-.01-.14.03-.18.17-.18.36.01.71.02 1.07.01.16 0 .2.06.17.2-.02.1-.03.2-.03.31 0 .24-.02.43-.34.32-.1-.03-.16.02-.16.13 0 .15.11.13.2.12.23-.03.29.05.22.27-.05.14-.14.09-.23.09-.11 0-.22-.04-.22.15 0 .21.14.12.23.13.08.01.16 0 .27-.01z"/><path d="m466.1 118.14c0-.17.03-.4.15-.59.15-.24.36-.37.65-.36.28.01.47.16.6.4.23.44.14 1.15-.19 1.53-.28.31-.68.3-.94-.02-.19-.24-.28-.54-.27-.96zm.56.37c.01.15 0 .38.18.39.21.01.2-.22.22-.38.01-.05.01-.09 0-.14-.02-.11-.04-.23-.19-.24-.15 0-.18.11-.2.23-.01.04 0 .09-.01.14z"/><path d="m460.19 117.06c.41.02.41.02.43.42.01.11.01.22.02.34.01.1 0 .14-.13.15-.21.01-.25.13-.16.31.02.04.04.08.07.12.13.22.17.44-.02.65-.19.22-.45.21-.7.17-.16-.03-.12-.19-.14-.3-.03-.16.11-.08.17-.08.21-.02.23-.15.15-.29-.04-.09-.14-.15-.21-.22-.31-.28-.41-.58-.29-.87.11-.27.42-.42.81-.4z"/><path d="m468.8 118.99c.19-.38.37-.73.36-1.14 0-.1.09-.09.15-.08.21.04.22-.08.21-.25 0-.09-.08-.24.05-.27.19-.04.39-.04.58.02.07.02.03.12.03.18-.01.35-.03.69-.04 1.04 0 .07-.06.18.08.19.06.01.17-.05.15.09-.01.09-.01.19-.12.23-.05.02-.13 0-.13.08.03.36-.23.24-.41.26-.13.01-.2-.04-.18-.18.02-.15-.06-.17-.18-.17-.17.01-.34.01-.55 0zm.71-.75c-.03.19-.15.28-.13.43 0 .01.08.02.1.01.12-.12.06-.25.03-.44z"/><path d="m465.38 118.9c.12 0 .18-.01.24.01.08.02.24-.11.23.07-.01.13 0 .34-.26.31-.18-.02-.35-.01-.53-.01-.23 0-.25-.1-.15-.28.13-.23.27-.45.3-.72.03-.22-.01-.38-.28-.36-.03 0-.07.01-.08 0-.07-.19.04-.38.02-.57-.01-.13.08-.16.17-.17.29-.04.59-.06.8.2.22.26.15.54.01.81-.09.24-.27.45-.47.71z"/><path d="m468.65 118.24c0 .3-.02.6-.01.9.01.24-.15.2-.28.18s-.34.11-.34-.19c.01-.33 0-.65 0-.98 0-.09.01-.16-.13-.18-.16-.02-.12-.22-.16-.35-.04-.12.09-.12.15-.15.18-.09.36-.16.53-.25.23-.11.28-.07.28.17 0 .28-.01.56-.01.84 0 .01-.01.01-.03.01z"/><path d="m476.25 113.68c.01-.39.02-.79.01-1.18-.01-.2.08-.21.24-.19.68.07 1.06.49 1.05 1.18-.01.83-.41 1.38-1.1 1.51-.17.03-.3.04-.27-.22.03-.36.02-.73.02-1.09.01-.01.03-.01.05-.01z"/><path d="m469.92 113.2c.21.47.39.91.53 1.36.05.16.01.19-.13.21-.28.03-.55.09-.83.13-.07.01-.21.04-.16-.1.15-.54.31-1.07.59-1.6z"/><path d="m481.6 113.35c.23.49.42.94.55 1.41.03.11 0 .13-.11.16-.29.08-.59.09-.88.14-.1.02-.18-.01-.14-.13.16-.52.32-1.04.58-1.58z"/><path d="m465.72 96.43c.24.38.31.76.44 1.11.03.09-.05.1-.12.11-.24.06-.49.12-.76.08.07-.44.29-.82.44-1.3z"/><path d="m456.2 96.34c.21.33.32.67.41 1.02.04.16-.09.18-.18.18-.22.01-.44.15-.67.02-.01-.01-.01-.07.01-.11.12-.37.24-.74.43-1.11z"/><path d="m473.31 96.57c.19.34.3.68.41 1.03.02.08.01.15-.1.15-.01 0-.02 0-.03.01-.24.04-.54.2-.69.05-.12-.12.08-.41.15-.62.05-.2.13-.4.26-.62z"/><path d="m457.29 104.58c0-.2.01-.39.01-.59-.01-.18.07-.23.24-.19.34.08.52.39.48.81-.04.38-.35.71-.67.73-.11 0-.12-.06-.12-.14.01-.21.03-.41.04-.62z"/><path d="m466.77 104.5c.18.23.23.47.31.71.06.18-.09.18-.18.19-.13.02-.32.07-.4.01-.11-.09.03-.25.07-.38.05-.17.12-.34.2-.53z"/><path d="m461.63 118.49c0-.11-.01-.19.01-.26.01-.08-.04-.19.07-.22.12-.03.22.04.28.14.05.08.07.17.06.27-.03.21-.13.42-.35.4-.2-.02-.02-.25-.07-.33z"/><path d="m456.72 118.36c0-.07-.01-.13 0-.2.01-.08-.04-.19.07-.22.12-.03.22.04.28.14.09.14.07.29.02.43-.06.15-.18.28-.33.25-.12-.02-.03-.19-.05-.29 0-.04.01-.08.01-.11z"/><path d="m466.66 118.51c0-.05 0-.1.01-.15.02-.11.05-.23.2-.23s.17.13.19.24c.01.05.01.09 0 .14-.02.16-.01.4-.22.38-.18 0-.17-.23-.18-.38z"/><path d="m469.51 118.24c.04.2.09.33-.02.44-.02.02-.1 0-.1-.01-.04-.15.09-.24.12-.43z"/></g><path d="m158.11 236.55v33.4h-78.8v-113.5h36.48v80.09h42.32z" fill="url(#b)"/><path d="m281.83 213.2c0 33.56-25.78 58.85-59.83 58.85s-59.83-25.29-59.83-58.85c0-33.4 25.78-58.69 59.83-58.69s59.83 25.29 59.83 58.69zm-36.48 0c0-13.62-9.89-23.35-23.34-23.35-13.46 0-23.35 9.73-23.35 23.35 0 13.78 9.89 23.35 23.35 23.35 13.45 0 23.34-9.57 23.34-23.35z" fill="url(#c)"/><path d="m368.59 227.79 30.16 19.94c-10.54 14.92-28.21 24.32-48.96 24.32-34.05 0-59.83-25.29-59.83-58.85 0-33.4 25.78-58.69 59.83-58.69 20.75 0 38.42 9.4 48.96 24.16l-30.16 19.94c-4.22-5.51-10.86-8.76-18.81-8.76-13.46 0-23.35 9.73-23.35 23.35 0 13.78 9.89 23.35 23.35 23.35 7.95 0 14.6-3.25 18.81-8.76z" fill="url(#d)"/><path d="m607.61 236.55v33.4h-78.79v-113.5h36.48v80.09h42.31z" fill="url(#e)"/><path d="m56.86 248.17h7.99v20.94h-29.73v-20.55h7.99v11h3.31v-9.64h6.88v9.64h3.57v-11.39z" fill="url(#g)"/><path d="m35.12 217.26h29.73v8.62l-15.04 9.34h15.04v9.56h-29.73v-8.62l15.04-9.34h-15.04z" fill="url(#h)"/><path d="m56.86 180.64h7.99v20.94h-29.73v-20.55h7.99v11h3.31v-9.64h6.88v9.64h3.57v-11.39z" fill="url(#i)"/><path d="m56.09 156.61h8.75v20.64h-29.72v-9.56h20.98v-11.08z" fill="url(#j)"/><path d="m459.4 198.38c.34.72.73 1.41 1.06 2.14.16-.14.24-.17.27-.23.3-.65.65-1.28.95-1.92l-1.14-4.13z" fill="#fff"/><path d="m476.51 203.57c-2.68 5.8-5.19 11.69-7.48 17.65-.21.54-.39 1.09-.6 1.63l1.18 4.29h-2.76c-2.02 5.53-3.97 11.09-5.96 16.64-.09.24-.18.47-.39 1-2.14-6.04-4.2-11.85-6.26-17.64h-2.8l1.21-4.37c-2.65-7.29-5.69-14.41-9.15-21.35-3.81-7.63-8.05-15.03-12.62-22.24-.03-.05-.07-.1-.11-.16l-30.39 90.92h39.24l4.86-17.51h32.1l4.86 17.51h39.24l-30.42-91.01c-2.46 3.82-4.74 7.76-6.95 11.74-2.35 4.26-4.76 8.5-6.8 12.9z" fill="url(#k)"/><path d="m459.4 198.38 1.14-4.15 1.14 4.13c3.3-6.96 6.91-13.76 10.83-20.39 3.57-6.04 7.36-11.93 11.58-17.52l-1.34-4h-44.42l-1.36 4.07c3.85 5.16 7.48 10.48 10.78 16.03 4.2 7.08 8.09 14.33 11.65 21.83z" fill="url(#l)"/><path d="m533.17 87.15c-1.72-10.54-5.59-20.22-11.53-29.07-6.15-9.15-13.99-16.55-23.46-22.2-10.15-6.05-21.14-9.45-32.91-10.19-8.4-.53-16.68.29-24.79 2.61-11.74 3.35-22.04 9.24-30.85 17.67-6.86 6.56-12.25 14.19-16.18 22.85-3.34 7.36-5.41 15.05-6.18 23.07-.81 8.38-.21 16.67 1.77 24.87 2.11 8.74 5.76 16.77 11.19 23.9 3.65 4.79 7.66 9.29 11.59 13.86 6.74 7.85 13.39 15.75 18.97 24.5l6.18-18.5c-2.92-3.92-5.97-7.75-9.17-11.46-4.91-5.7-9.91-11.34-14.59-17.23-3.65-4.59-6.29-9.79-8-15.46-2.53-8.41-3.31-16.95-2.01-25.64 1.46-9.72 5.12-18.54 11.06-26.41 5.37-7.12 12.01-12.74 19.93-16.77 10.16-5.17 20.96-7.19 32.32-5.98 15.16 1.61 27.76 8.26 37.79 19.67 7.12 8.11 11.53 17.57 13.34 28.24 2 11.8.46 23.14-4.55 33.95-1.95 4.2-4.66 8-7.71 11.55-6.03 7.01-12.04 14.03-17.93 21.16-1.17 1.41-2.28 2.86-3.38 4.32l6.18 18.49c1.87-2.91 3.83-5.76 5.99-8.47 6.29-7.9 12.81-15.63 19.39-23.3 4.37-5.08 8.36-10.41 11.35-16.39 3.79-7.59 5.93-15.72 6.8-24.16.68-6.52.45-13.01-.61-19.48z" fill="#fff"/><path d="m460.46 200.51c-.33-.73-.72-1.41-1.06-2.14l-6.73 24.39c.11.31.25.61.36.92.41 1.15.82 2.31 1.23 3.46h12.61c.52-1.43 1.04-2.87 1.57-4.29l-6.76-24.49c-.31.65-.65 1.27-.95 1.92-.03.06-.11.09-.27.23z" fill="#fff"/><path d="m460.51 244.78c.21-.53.3-.76.39-1 1.99-5.55 3.94-11.11 5.96-16.64h-12.61c2.07 5.79 4.12 11.61 6.26 17.64z" fill="#fff"/><path d="m472.51 177.97c-3.92 6.63-7.53 13.43-10.83 20.39l6.76 24.49c.2-.54.39-1.09.6-1.63 2.29-5.96 4.8-11.85 7.48-17.65 2.04-4.4 4.45-8.64 6.8-12.89 2.2-3.98 4.49-7.92 6.95-11.74l-6.18-18.49c-4.22 5.59-8.01 11.48-11.58 17.52z" fill="url(#m)"/><path d="m443.51 201.42c3.46 6.94 6.51 14.06 9.15 21.35l6.73-24.39c-3.56-7.5-7.44-14.75-11.65-21.82-3.31-5.55-6.93-10.88-10.78-16.03l-6.18 18.5c.03.05.07.1.11.16 4.57 7.2 8.81 14.6 12.62 22.23z" fill="url(#n)"/><path d="m460.54 144.46c-21.47-.05-37.54-17.89-36.79-37.9.79-21 17.91-36.3 37.85-35.69 20.98.64 36.56 18.12 35.71 38.27-.86 20.48-17.76 35.39-36.77 35.32zm-.02-57.91c-11.58-.04-21.03 9.4-21.09 21.07-.06 11.5 9.45 21.14 20.9 21.18 11.7.04 21.25-9.37 21.3-20.99.06-11.77-9.33-21.22-21.11-21.26z" fill="#fff"/><path d="m93.05 120.05v22.08h-57.9v-82.21h56.84v22.08h-30.42v9.16h26.66v19.02h-26.66v9.87z" fill="url(#p)"/><path d="m166.09 115.94c0 14.8-10.81 27.72-33.12 27.72-15.51 0-31.83-5.52-35.24-21.96l21.84-6.81c.47 4.23 5.87 7.4 12.1 7.4 4.58 0 7.99-1.76 7.99-4.93 0-4.11-5.05-4.34-13.27-6.34-15.03-3.64-26.07-8.93-26.07-25.84 0-16.09 14.21-26.66 32.29-26.66 14.44 0 27.6 7.16 30.53 21.61l-21.73 5.29c-.94-3.29-4.11-5.52-8.57-5.52-4.7 0-7.16 1.88-7.16 4.7 0 3.99 6.11 4.35 12.45 6.11 20.09 5.5 27.96 11.37 27.96 25.23z" fill="url(#q)"/><path d="m234.42 84.11h-19.26v58.01h-26.42v-58.01h-19.14v-24.19h64.83v24.19z" fill="url(#r)"/><path d="m324.02 101.02c0 24.31-18.67 42.63-43.34 42.63-24.66 0-43.33-18.32-43.33-42.63 0-24.19 18.67-42.51 43.33-42.51 24.67 0 43.34 18.32 43.34 42.51zm-26.42 0c0-9.87-7.16-16.91-16.91-16.91s-16.91 7.05-16.91 16.91c0 9.98 7.16 16.91 16.91 16.91 9.75.01 16.91-6.92 16.91-16.91z" fill="url(#s)"/><path d="m374.75 111.24v30.89h-26.42v-30.89l-29.6-51.32h29.01l13.86 29.71 13.86-29.71h28.89z" fill="url(#t)"/><path d="m462.59 75.21c.29.11.6.08.9.11 12.49 1.11 23.07 9.38 27.42 20.79 1.09 2.85 1.75 5.8 2.01 8.84 1.32 15.88-8.99 30.34-24.44 34.25-3.58.91-7.22 1.17-10.9.84-13.04-1.16-24-10.12-27.96-22.33-.9-2.77-1.41-5.61-1.55-8.51 0-.07.04-.15-.05-.2.02-1.16.03-2.33.05-3.49.07-.03.05-.09.06-.14.04-.44.08-.88.12-1.32.36-3.38 1.26-6.61 2.65-9.71 4.92-10.96 15.56-18.33 27.56-19.1.25-.02.52.02.76-.09 1.12.03 2.24.04 3.37.06zm-32.03 32.06c-.23 16.56 12.99 30.15 29.55 30.39 16.57.24 30.17-12.98 30.41-29.55s-12.99-30.17-29.56-30.4c-16.58-.24-30.18 12.99-30.4 29.56z" fill="#fe0101"/><path d="m430.56 107.27c.23-16.57 13.83-29.8 30.4-29.57s29.8 13.83 29.56 30.4-13.84 29.79-30.41 29.55c-16.57-.23-29.78-13.82-29.55-30.38zm29.56 29.65c16.14.23 29.41-12.65 29.65-28.78.24-16.17-12.64-29.45-28.8-29.69-16.15-.24-29.43 12.65-29.67 28.8-.24 16.16 12.66 29.44 28.82 29.67z" fill="#fef9f9"/><path d="m460.12 136.92c-16.16-.23-29.05-13.51-28.82-29.67.24-16.15 13.51-29.03 29.67-28.8 16.16.24 29.05 13.52 28.8 29.69-.24 16.13-13.51 29.01-29.65 28.78zm29.09-28.83c.23-15.84-12.4-28.84-28.24-29.08s-28.87 12.39-29.11 28.24c-.24 15.86 12.41 28.89 28.26 29.11s28.86-12.42 29.09-28.27z" fill="#fe0606"/><path d="m489.21 108.09c-.23 15.85-13.24 28.49-29.09 28.26-15.86-.23-28.5-13.25-28.26-29.11.24-15.84 13.27-28.48 29.11-28.24 15.84.25 28.46 13.26 28.24 29.09zm-48.28 13.84c-.05.11 0 .18.02.25.05.18.11.36.19.53 1.19 2.69 2.98 4.9 5.37 6.63 3.32 2.4 7.08 3.56 11.11 3.94 2.67.25 5.34.14 7.98-.34 1.82-.33 3.6-.77 5.29-1.55.75-.34 1.46-.74 1.99-1.38.6-.72.92-1.53.6-2.47-.27-.8-.88-1.28-1.63-1.6-1.05-.45-2.15-.47-3.26-.35-1.33.14-2.64.46-3.93.79-2.8.72-5.61 1.42-8.53 1.51-3.06.09-6.03-.29-8.86-1.55-2.07-.92-3.89-2.19-5.55-3.73-.25-.23-.52-.45-.79-.68zm5.6 2.37c.05.14.15.2.24.26.31.22.64.39.99.53 1.99.82 4.07 1.27 6.22 1.35 3.59.13 7.1-.35 10.49-1.55 1.05-.37 2.1-.75 3.06-1.32.26-.15.51-.31.69-.56.4-.57.24-1.06-.41-1.31-.46-.17-.94-.15-1.42-.1-1.57.17-3.1.54-4.61.95-3.32.9-6.64 1.78-10.09 1.99-1.24.08-2.47.1-3.7-.06-.47-.05-.95-.16-1.46-.18zm6.57-14.03c.03 0 .07-.01.1-.01.05.1.09.2.14.3.08.17.1.41.23.5.15.11.33-.1.5-.16.14-.05.22-.05.22.14 0 .35.02.69.02 1.04 0 .16.05.21.21.21.58 0 1.16.01 1.74.03.21.01.29-.07.3-.29.04-.94.08-1.87.14-2.81.07-1.11.15-2.23.23-3.34.01-.19-.04-.24-.23-.24-.78 0-1.56-.01-2.33-.03-.22-.01-.26.06-.25.27.05 1.02.1 2.04.12 3.06.01.25.17.59-.04.74-.2.14-.53.04-.8.04-.2 0-.22-.08-.21-.26.08-1.2.15-2.39.24-3.59.02-.24-.06-.28-.27-.28-.82 0-1.63-.01-2.45-.04-.26-.01-.33.05-.32.32.09 2.04.2 4.08.21 6.13 0 .2.09.23.26.24.65.01 1.29.01 1.94.03.23.01.28-.08.28-.29-.01-.57.01-1.14.02-1.71zm16.38 14c.52 0 .99.01 1.47.08 1 .13 1.98.36 2.8 1 1.05.81 1.55 1.87 1.34 3.22-.05.33-.16.66-.13 1.04.3-.16.47-.39.62-.64.46-.78.62-1.64.57-2.54-.03-.71-.23-1.38-.41-2.06-.22-.8-.06-1.49.48-2.12.38-.44.82-.79 1.25-1.17 1.39-1.2 2.35-2.66 2.75-4.46.06-.26.13-.54.06-.84-.14.11-.2.24-.27.36-.32.56-.64 1.12-.97 1.68-.89 1.52-2.15 2.62-3.75 3.35-.38.18-.78.31-1.21.35-.74.08-1.39-.14-1.98-.56-.91-.64-1.91-.92-3.02-.86-.18.01-.43 0-.47.16s.21.23.34.32c.2.14.42.25.61.4.76.6.93 1.52.44 2.36-.16.28-.4.55-.52.93zm1.34-17.4c.03.59.07 1.07.08 1.54.04 1.28.08 2.57.1 3.85 0 .18.04.26.24.28.75.1 1.49.13 2.24.07 1.91-.14 3.09-1.34 3.17-3.24.08-1.74-.78-2.98-2.42-3.43-1.09-.3-2.19-.18-3.3-.11-.15.01-.16.09-.15.21.03.33.04.63.04.83zm-29.65 3.01c.03-.01.06-.02.09-.02 1.04.78 2.07 1.56 3.15 2.37.04-1.02.06-1.98.12-2.93.07-1.19.15-2.37.24-3.56.01-.19-.03-.27-.23-.26-.38.01-.77 0-1.15-.01-.18-.01-.22.05-.21.22.03.41.03.81.05 1.28-.15-.14-.27-.23-.37-.33-.36-.34-.72-.69-1.07-1.04-.11-.12-.23-.17-.4-.16-.57 0-1.14 0-1.71-.02-.17 0-.22.03-.21.22.09 2.09.24 4.17.28 6.26 0 .15.05.2.19.2.32 0 .64 0 .96.01.2.01.27-.06.27-.27-.02-.66 0-1.31 0-1.96zm-4.36-4.51c-.67-.01-1.33-.01-2-.03-.23-.01-.3.04-.29.29.11 2.02.17 4.05.2 6.07 0 .26.08.32.31.32 1.05.01 2.1.02 3.15.06.31.01.49-.05.52-.39.03-.24.11-.47.18-.71.05-.16.02-.22-.16-.19-.35.05-.71.09-1.06.1-.45.02-.45.01-.44-.43 0-.09.02-.19.01-.28-.01-.19.05-.27.26-.25.31.04.62.05.92.08.12.01.16-.02.19-.13.06-.28.13-.57.2-.85.04-.15.02-.22-.16-.21-.24.01-.49 0-.73 0-.62 0-.62 0-.56-.63.01-.14.05-.2.2-.18.34.04.69.07 1.03.12.21.03.29 0 .31-.24.04-.75.11-1.5.18-2.24.02-.22-.05-.25-.24-.25-.67 0-1.34-.02-2.02-.03zm29.7 6.3c.13.26.24.5.35.73.06.15.13.15.24.06.19-.16.39-.29.61-.41.3-.15.31-.16.39.18.04.18.11.26.31.25.52-.01 1.05.01 1.57.02.58.01.58.01.45-.55-.46-1.97-.91-3.94-1.25-5.93-.03-.17-.11-.21-.27-.21-.69 0-1.39 0-2.08-.03-.26-.01-.35.07-.36.32 0 .16-.05.31-.08.47-.33 1.82-.81 3.61-1.29 5.4-.12.46-.12.46.36.46.25 0 .55.09.75-.02.22-.11.17-.47.3-.74zm11.68.18c.17.21.23.46.34.68.07.15.13.2.28.07.19-.15.4-.28.6-.41.18-.12.32-.13.34.15.02.22.14.31.38.31.61-.01 1.22 0 1.83.02.24.01.28-.05.23-.28-.47-2.07-.97-4.13-1.32-6.23-.03-.16-.1-.19-.24-.19-.55 0-1.11-.02-1.66-.02-.24 0-.54-.11-.71.04-.16.13-.1.44-.15.66 0 .01-.01.02-.01.03-.33 1.79-.79 3.56-1.28 5.32-.16.59-.15.59.45.6.65.01.65.01.85-.61.03-.05.05-.09.07-.14zm-28.26-.93c-.21.06-.39.11-.57.15-.61.13-1.25-.19-1.5-.74-.42-.94.15-1.97 1.17-2.1.24-.03.49-.04.73.02.19.04.22-.01.21-.18-.03-.78-.06-1.56-.08-2.33 0-.15-.07-.19-.2-.22-.46-.09-.93-.08-1.4-.05-1.88.1-3.15 1.31-3.24 3.11-.15 2.88 2.18 4.19 4.35 3.7.14-.03.26-.06.29-.25.07-.35.15-.7.24-1.11zm33.11.48c.08.36.16.69.21 1.03.04.23.17.31.38.34.36.04.71.05 1.07 0 .8-.09 1.39-.63 1.51-1.36.07-.43-.07-.81-.27-1.18-.13-.25-.3-.47-.39-.75-.13-.41.12-.74.54-.74.09 0 .19 0 .28.02.16.05.19-.01.19-.16-.03-.78-.06-1.56-.08-2.33 0-.15-.05-.21-.2-.24-.64-.14-1.28-.21-1.93-.12-.81.12-1.52.43-1.81 1.26-.3.84-.1 1.61.5 2.26.24.25.5.48.76.71.15.14.3.28.41.46.13.22.16.45.03.67-.12.21-.34.22-.55.21s-.42-.05-.65-.08zm-19.54-2.91c.05-.83.09-1.67.14-2.5.01-.2-.04-.25-.24-.25-.81 0-1.61-.02-2.42-.03-.35 0-.35 0-.34.36.04.81.1 1.63.12 2.44.04 1.2.05 2.4.07 3.6 0 .14-.01.25.19.26 1.19.01 2.38.04 3.57.06.13 0 .18-.04.21-.16.06-.32.13-.64.21-.96.05-.17 0-.19-.16-.17-.44.05-.87.12-1.31.12-.16 0-.23-.03-.21-.22.07-.85.12-1.7.17-2.55zm-3.39.54c.06-1.03.11-2.06.18-3.09.01-.19-.04-.24-.22-.24-.84 0-1.69-.02-2.53-.04-.2-.01-.25.05-.24.25.03.68.05 1.37.07 2.05.04 1.38.08 2.75.12 4.13 0 .19.07.24.25.24.67 0 1.33.01 2 .03.17.01.22-.05.23-.22.02-1.04.08-2.08.14-3.11zm2.42-14.6c.05.11.09.18.13.26.18.39.18.39.53.16.08-.05.16-.09.24-.15.16-.11.26-.08.29.11.03.18.12.22.29.22.45 0 .9 0 1.35.02.19.01.23-.03.19-.23-.33-1.56-.72-3.12-.99-4.69-.02-.11-.05-.18-.19-.18-.55 0-1.11-.01-1.66-.02-.14 0-.19.05-.22.19-.13.83-.32 1.65-.52 2.47-.19.73-.38 1.47-.56 2.2-.02.07-.11.2.07.2.27.01.56.06.81-.01.16-.04.1-.34.21-.5 0 0 .01-.01.03-.05zm-9.54-.11c.07.04.08.12.11.18.2.44.2.44.6.18.06-.04.13-.07.19-.11.14-.1.24-.08.27.11.03.17.13.23.31.23.44-.01.88-.01 1.32.02.25.02.26-.08.21-.27-.36-1.54-.69-3.08-.98-4.63-.03-.14-.08-.21-.23-.21-.54 0-1.09-.01-1.63-.02-.15 0-.18.05-.2.19-.13.82-.31 1.63-.52 2.44-.19.73-.38 1.46-.57 2.2-.02.08-.11.22.06.24.27.02.56.06.81-.01.16-.04.12-.33.2-.49.02-.03.04-.04.05-.05zm17.08.21c.13.14.18.29.22.42.07.19.14.26.32.1.11-.1.24-.17.37-.25.15-.1.26-.1.29.11.03.18.13.23.31.23.43-.01.86-.01 1.29.02.25.01.28-.06.23-.28-.33-1.53-.66-3.07-.97-4.61-.04-.18-.11-.2-.26-.2-.51 0-1.01-.01-1.52-.04-.21-.01-.28.07-.31.25-.24 1.5-.62 2.96-1.02 4.42-.11.39-.1.39.29.4.57.02.57.02.76-.57zm-8.8-.53c-.14.04-.24.07-.34.1-.61.14-1.14-.15-1.29-.73-.16-.63.15-1.19.75-1.37.23-.07.46-.07.7-.04.17.02.23-.01.22-.2-.03-.55-.04-1.1-.05-1.66 0-.17-.09-.22-.24-.24-.4-.05-.8-.05-1.21 0-1.1.12-1.86.72-2.15 1.73-.6 2.09 1.05 3.9 3.15 3.46.1-.02.24 0 .27-.15.06-.29.12-.58.19-.9zm7.6-2.91c-.01 0-.03 0-.04 0 0-.29.01-.58.01-.87 0-.11 0-.21-.15-.23-.42-.06-.83-.15-1.26-.13-1.11.06-1.76.71-1.7 1.7.03.46.23.82.56 1.13.25.23.5.46.73.7.16.16.19.37.1.57-.09.21-.29.2-.49.18-.06 0-.11-.01-.17-.02-.27-.08-.27.03-.22.25.18.78.17.76.95.78.93.02 1.88-.81 1.19-2.01-.11-.19-.21-.38-.28-.58-.09-.24.08-.46.33-.51.15-.03.35.12.43-.05.06-.13.01-.31.01-.47.01-.15 0-.3 0-.44zm-20.25 1.15h.07c-.01.77-.02 1.54-.03 2.3 0 .22.07.29.29.28.73 0 1.46.02 2.19.03.52.01.52.01.63-.49.02-.09.03-.19.06-.27.06-.18.05-.25-.18-.21-.27.05-.54.05-.81.08-.22.03-.28-.04-.27-.27.08-1.22.15-2.45.23-3.67.01-.19-.02-.26-.23-.26-.61.01-1.22-.01-1.83-.02-.18-.01-.24.03-.23.23.05.75.07 1.51.11 2.27zm4.49 7.95c.03.78.05 1.34.06 1.91 0 .18.07.24.24.26.5.05.99.08 1.48-.03.97-.21 1.49-.87 1.49-1.89 0-.99-.56-1.68-1.52-1.87-.54-.11-1.08-.08-1.62-.04-.16.01-.2.07-.19.22.03.55.04 1.11.06 1.44zm3.53.28c.02.57.04 1.14.05 1.71 0 .12.01.19.16.19.63 0 1.26.02 1.88.03.08 0 .15.01.17-.09.05-.2.18-.43.12-.59-.05-.13-.32.01-.49 0-.05 0-.09 0-.14 0-.25.05-.32-.04-.3-.3.02-.18.07-.25.25-.22.11.02.23.01.34.02.13.01.19-.02.23-.16.11-.51.12-.51-.41-.5-.03 0-.06 0-.08 0-.19.03-.26-.02-.25-.23 0-.23.1-.23.27-.2.14.03.28.01.42.04.14.02.18-.03.19-.16.03-.39.06-.78.1-1.18.02-.14-.02-.2-.17-.2-.74 0-1.48-.01-2.22-.03-.15 0-.19.04-.18.19.03.55.04 1.11.06 1.68zm7.07 1.61c.24.41.24.41.59.2.14-.09.28-.16.31.09.02.12.11.11.19.11.32 0 .64 0 .95.02.19.01.23-.04.19-.23-.25-1.13-.55-2.25-.72-3.4-.02-.13-.09-.16-.21-.16-.36 0-.71 0-1.07-.02-.19-.01-.26.06-.29.24-.17 1.01-.42 1.99-.68 2.98-.18.67-.21.52.42.55.3.02.18-.27.32-.38zm-20.04 11.99c0-.01 0-.01 0 0-2.95-.04-5.91-.09-8.86-.13-.05 0-.09 0-.14 0-.1-.01-.15.02-.16.13-.02.2.02.27.25.27 2.41.02 4.82.06 7.23.1 3.52.05 7.03.1 10.55.16.2 0 .29-.02.28-.25-.01-.24-.18-.15-.28-.15-2.96-.05-5.91-.09-8.87-.13zm33.62.86c2.95.05 5.91.09 8.86.14.22 0 .3-.04.28-.27s-.2-.13-.3-.14c-5.88-.09-11.75-.17-17.63-.25-.05 0-.09 0-.14 0-.11-.01-.14.03-.16.14-.03.21.04.27.26.27 2.94.02 5.89.07 8.83.11zm-10.83-13.14c.11.79.27.9 1.05.73.02 0 .04-.01.06-.01.56-.15.83-.66.62-1.2-.07-.17-.17-.33-.25-.5-.16-.34-.04-.54.32-.52.17.01.21-.04.2-.2-.02-.37-.03-.75-.03-1.12 0-.14-.05-.23-.2-.26-.46-.09-.91-.1-1.36.05-.55.18-.82.65-.74 1.23.05.39.29.66.57.91.16.14.34.27.44.47.13.27 0 .46-.3.46-.14-.01-.26-.08-.38-.04zm-4.52-1.6h.05c.03-.44.06-.88.1-1.32.01-.15-.02-.21-.19-.21-.45 0-.9-.01-1.35-.02-.11 0-.17.01-.16.15.05 1.14.08 2.28.12 3.43 0 .16.05.2.21.2.58 0 1.16.02 1.74.02.09 0 .23.08.27-.06.06-.21.1-.42.13-.63.01-.04-.1-.03-.15-.02-.18.02-.35.03-.53.05-.19.03-.27-.03-.26-.24.01-.45.01-.9.02-1.35zm-3.79 14.28h.01c0 .13-.01.26-.01.39 0 .75 0 .75.77.71.59-.03.96-.39 1.02-.96.05-.58-.25-1-.81-1.14-.29-.07-.58-.04-.87-.04-.14 0-.17.08-.16.2.03.28.04.56.05.84zm-4.91-.07h.02c0 .13-.01.26-.01.39.01.75.01.75.76.71.58-.03.95-.38 1.01-.93.06-.6-.22-1.02-.8-1.17-.29-.07-.58-.04-.87-.04-.14 0-.16.08-.16.2.03.28.04.56.05.84zm2.6 1.11c.15 0 .3 0 .45.01.25.02.21-.2.22-.31.02-.17-.14-.03-.21-.07-.03-.01-.07 0-.11 0-.09 0-.19.03-.18-.13 0-.14.06-.17.19-.16.09 0 .2.07.26-.08.1-.27-.04-.29-.25-.27-.08.01-.17.02-.17-.12 0-.13.08-.17.18-.14.3.09.35-.06.33-.3-.01-.11.01-.22.03-.33.02-.13-.01-.19-.15-.19-.36 0-.73 0-1.09-.02-.14 0-.17.05-.17.18.02.44.03.88.05 1.32.01.6.01.6.62.61zm5.57-.32c-.11 0-.19.02-.27.01-.09-.01-.23.08-.23-.13 0-.19.12-.15.22-.15.08 0 .18.06.23-.09.07-.22.01-.3-.22-.27-.08.01-.2.03-.2-.12 0-.11.07-.16.16-.13.33.11.34-.09.34-.32 0-.1.02-.21.03-.31.03-.14-.02-.2-.17-.2-.36 0-.71 0-1.07-.01-.14 0-.18.04-.17.18.02.58.04 1.16.05 1.74 0 .13.04.19.18.18.24 0 .49-.02.73.01.31.04.4-.1.39-.39zm2.03-.73c-.01.42.08.72.27.94.27.32.66.33.94.02.34-.37.43-1.08.19-1.53-.13-.24-.32-.39-.6-.4-.29-.01-.5.12-.65.36-.12.21-.15.43-.15.61zm-5.91-1.08c-.39-.02-.7.13-.81.39-.12.29-.02.59.29.87.08.07.17.13.21.22.07.15.06.27-.15.29-.06 0-.2-.08-.17.08.02.11-.02.27.14.3.25.04.51.05.7-.17.18-.21.14-.43.02-.65-.02-.04-.04-.08-.07-.12-.09-.18-.05-.3.16-.31.13 0 .14-.05.13-.15-.01-.11-.01-.22-.02-.34-.02-.39-.02-.39-.43-.41zm8.61 1.93c.21 0 .38.01.55.01.12 0 .2.02.18.17-.02.14.04.19.18.18.18-.02.44.11.41-.26-.01-.07.08-.06.13-.08.11-.04.11-.14.12-.23.02-.14-.09-.08-.15-.09-.14-.02-.09-.12-.08-.19.01-.35.03-.69.04-1.04 0-.06.04-.16-.03-.18-.19-.06-.39-.06-.58-.02-.13.03-.06.18-.05.27.01.16 0 .28-.21.25-.06-.01-.15-.02-.15.08.02.4-.17.75-.36 1.13zm-3.42-.09c.2-.26.37-.47.49-.71.13-.27.2-.55-.01-.81s-.51-.24-.8-.2c-.09.01-.19.04-.17.17.02.19-.1.38-.02.57 0 .01.05 0 .08 0 .27-.01.31.15.28.36-.03.27-.17.49-.3.72-.1.18-.08.28.15.28.18 0 .36-.01.53.01.26.03.25-.18.26-.31.01-.18-.15-.05-.23-.07-.07-.02-.14-.01-.26-.01zm3.27-.66h.04c0-.28.01-.56.01-.84 0-.24-.05-.28-.28-.17-.18.08-.36.16-.53.25-.07.03-.19.03-.15.15s0 .32.16.35c.15.02.13.09.13.18 0 .33.01.66 0 .98-.01.29.21.17.34.19s.29.05.28-.18c-.02-.31 0-.61 0-.91z" fill="#fefdfd"/><path d="m440.93 121.93c.27.23.54.45.79.68 1.65 1.53 3.48 2.81 5.55 3.73 2.83 1.25 5.8 1.64 8.86 1.55 2.92-.09 5.72-.79 8.53-1.51 1.3-.33 2.6-.65 3.93-.79 1.11-.12 2.21-.09 3.26.35.75.32 1.36.8 1.63 1.6.32.94 0 1.75-.6 2.47-.54.64-1.25 1.04-1.99 1.38-1.69.77-3.47 1.22-5.29 1.55-2.64.48-5.31.59-7.98.34-4.03-.38-7.79-1.54-11.11-3.94-2.38-1.73-4.18-3.93-5.37-6.63-.08-.17-.13-.35-.19-.53-.02-.07-.07-.14-.02-.25z" fill="#fe0101"/><path d="m446.53 124.3c.51.02.98.13 1.46.19 1.23.17 2.47.14 3.7.06 3.45-.22 6.77-1.1 10.09-1.99 1.52-.41 3.04-.79 4.61-.95.48-.05.95-.07 1.42.1.65.24.81.73.41 1.31-.18.25-.43.41-.69.56-.97.57-2.01.95-3.06 1.32-3.4 1.2-6.9 1.68-10.49 1.55-2.15-.08-4.23-.53-6.22-1.35-.35-.14-.68-.32-.99-.53-.09-.07-.18-.13-.24-.27z" fill="#fe0202"/><path d="m453.1 110.27c-.01.57-.02 1.14-.02 1.71 0 .21-.05.3-.28.29-.65-.03-1.29-.03-1.94-.03-.16 0-.25-.03-.26-.24-.01-2.04-.12-4.08-.21-6.13-.01-.26.06-.33.32-.32.81.03 1.63.04 2.45.04.21 0 .29.04.27.28-.09 1.2-.15 2.39-.24 3.59-.01.17.01.25.21.26.27 0 .6.1.8-.04.2-.15.04-.49.04-.74-.03-1.02-.07-2.04-.12-3.06-.01-.21.03-.27.25-.27.78.03 1.56.03 2.33.03.18 0 .24.05.23.24-.08 1.11-.17 2.22-.23 3.34-.06.94-.11 1.87-.14 2.81-.01.22-.09.29-.3.29-.58-.02-1.16-.02-1.74-.03-.16 0-.21-.05-.21-.21 0-.35-.02-.69-.02-1.04 0-.19-.07-.19-.22-.14-.17.06-.35.27-.5.16-.13-.09-.16-.33-.23-.5-.04-.1-.09-.2-.14-.3-.04.01-.07.01-.1.01z" fill="#fe0303"/><path d="m469.48 124.27c.12-.38.35-.64.53-.94.49-.84.32-1.76-.44-2.36-.19-.15-.41-.26-.61-.4-.13-.09-.38-.16-.34-.32s.3-.15.47-.16c1.1-.05 2.11.22 3.02.86.59.42 1.24.64 1.98.56.42-.04.82-.18 1.21-.35 1.6-.73 2.87-1.82 3.75-3.35.32-.56.64-1.12.97-1.68.07-.12.12-.25.27-.36.07.3 0 .57-.06.84-.41 1.8-1.36 3.26-2.75 4.46-.43.37-.88.73-1.25 1.17-.54.63-.7 1.32-.48 2.12.19.68.38 1.35.41 2.06.04.9-.12 1.75-.57 2.54-.15.25-.32.48-.62.64-.03-.37.07-.7.13-1.04.21-1.35-.29-2.41-1.34-3.22-.82-.63-1.79-.87-2.8-1-.49-.06-.96-.07-1.48-.07z" fill="#0b8f1a"/><path d="m470.82 106.87c-.01-.2-.01-.51-.03-.81-.01-.12.01-.2.15-.21 1.1-.08 2.21-.2 3.3.11 1.63.45 2.49 1.69 2.42 3.43-.08 1.9-1.26 3.1-3.17 3.24-.75.06-1.5.02-2.24-.07-.2-.03-.23-.1-.24-.28-.03-1.28-.06-2.57-.1-3.85-.02-.49-.05-.97-.09-1.56zm2.77 3.13c-.02 0-.04 0-.06 0-.01.37.01.73-.02 1.09-.02.26.1.25.27.22.69-.13 1.09-.68 1.1-1.51.01-.69-.37-1.11-1.05-1.18-.15-.02-.24 0-.24.19.02.41 0 .8 0 1.19z" fill="#fe0202"/><path d="m441.17 109.88c-.01.65-.03 1.3-.02 1.96 0 .21-.07.28-.27.27-.32-.02-.64-.02-.96-.01-.15 0-.19-.05-.19-.2-.04-2.09-.18-4.17-.28-6.26-.01-.18.05-.22.21-.22.57.01 1.14.02 1.71.02.16 0 .28.05.4.16.35.35.71.7 1.07 1.04.11.1.22.19.37.33-.02-.47-.02-.88-.05-1.28-.01-.17.03-.23.21-.22.38.02.77.03 1.15.01.21-.01.25.07.23.26-.09 1.19-.17 2.37-.24 3.56-.05.95-.08 1.91-.12 2.93-1.08-.81-2.12-1.59-3.15-2.37-.01 0-.04.01-.07.02z" fill="#fe0202"/><path d="m436.81 105.37c.67.01 1.35.02 2.02.02.19 0 .26.03.24.25-.08.75-.14 1.49-.18 2.24-.01.24-.1.27-.31.24-.34-.05-.69-.07-1.03-.12-.15-.02-.18.03-.2.18-.06.63-.07.63.56.63.24 0 .49.01.73 0 .18-.01.2.06.16.21-.07.28-.14.56-.2.85-.02.12-.06.15-.19.13-.31-.04-.62-.05-.92-.08-.2-.02-.27.06-.26.25.01.09-.01.19-.01.28-.02.44-.02.45.44.43.35-.02.71-.06 1.06-.1.18-.02.21.03.16.19-.07.23-.15.47-.18.71-.04.34-.22.4-.52.39-1.05-.03-2.1-.05-3.15-.06-.23 0-.31-.06-.31-.32-.03-2.02-.08-4.05-.2-6.07-.01-.24.06-.29.29-.29.67.04 1.34.03 2 .04z" fill="#fe0303"/><path d="m466.51 111.67c-.13.28-.08.63-.29.75-.19.11-.49.02-.75.02-.48-.01-.48-.01-.36-.46.48-1.79.96-3.58 1.29-5.4.03-.16.08-.31.08-.47.01-.25.1-.33.36-.32.69.03 1.39.03 2.08.03.15 0 .24.04.27.21.34 1.99.78 3.96 1.25 5.93.13.56.13.56-.45.55-.52-.01-1.05-.03-1.57-.02-.2 0-.27-.07-.31-.25-.08-.34-.09-.34-.39-.18-.22.11-.42.25-.61.41-.11.1-.18.09-.24-.06-.11-.25-.23-.48-.36-.74zm.75-2.15c-.27.53-.43 1.06-.6 1.59-.04.14.09.11.16.1.28-.04.55-.09.83-.13.15-.02.18-.05.13-.21-.13-.45-.31-.88-.52-1.35z" fill="#fe0303"/><path d="m478.19 111.85c-.02.05-.05.09-.06.14-.2.62-.2.62-.85.61-.61-.01-.62-.01-.45-.6.48-1.76.95-3.52 1.28-5.32 0-.01.01-.02.01-.03.05-.23-.01-.53.15-.66.17-.14.47-.04.71-.04.55 0 1.11.02 1.66.02.14 0 .21.02.24.19.35 2.09.85 4.16 1.32 6.23.05.23.01.29-.23.28-.61-.02-1.22-.03-1.83-.02-.24 0-.36-.09-.38-.31-.03-.28-.16-.27-.34-.15-.2.13-.41.26-.6.41-.15.12-.21.08-.28-.07-.11-.22-.18-.47-.35-.68zm.75-2.18c-.27.53-.42 1.06-.58 1.58-.04.12.04.15.14.13.29-.05.59-.06.88-.14.11-.03.14-.05.11-.16-.13-.47-.31-.92-.55-1.41z" fill="#fe0303"/><path d="m449.93 110.92c-.08.4-.17.76-.23 1.12-.03.18-.15.22-.29.25-2.17.48-4.5-.83-4.35-3.7.09-1.81 1.36-3.02 3.24-3.11.47-.02.94-.04 1.4.05.13.03.19.07.2.22.02.78.05 1.56.08 2.33.01.17-.02.23-.21.18-.24-.05-.49-.05-.73-.02-1.02.13-1.59 1.16-1.17 2.1.24.55.89.87 1.5.74.17-.04.35-.1.56-.16z" fill="#fe0202"/><path d="m483.04 111.4c.23.03.44.07.65.09.21.01.43 0 .55-.21.13-.22.1-.45-.03-.67-.11-.18-.25-.32-.41-.46-.25-.24-.52-.46-.76-.71-.6-.65-.81-1.42-.5-2.26.3-.83 1-1.14 1.81-1.26.65-.1 1.29-.02 1.93.12.15.03.2.1.2.24.02.78.05 1.56.08 2.33.01.15-.02.21-.19.16-.09-.03-.19-.02-.28-.02-.43 0-.67.33-.54.74.08.27.25.5.39.75.2.37.34.75.27 1.18-.12.74-.71 1.27-1.51 1.36-.35.04-.71.03-1.07 0-.21-.02-.34-.11-.38-.34-.05-.35-.14-.68-.21-1.04z" fill="#fe0202"/><path d="m463.5 108.49c-.05.85-.09 1.7-.16 2.55-.01.19.05.22.21.22.44 0 .88-.07 1.31-.12.15-.02.2 0 .16.17-.08.32-.15.64-.21.96-.02.13-.08.17-.21.16-1.19-.03-2.38-.05-3.57-.06-.21 0-.19-.12-.19-.26-.02-1.2-.04-2.4-.07-3.6-.02-.81-.08-1.63-.12-2.44-.02-.37-.02-.37.34-.36.81.01 1.61.03 2.42.03.2 0 .25.05.24.25-.06.83-.1 1.67-.15 2.5z" fill="#fe0303"/><path d="m460.11 109.03c-.06 1.04-.12 2.08-.17 3.12-.01.17-.05.22-.23.22-.67-.02-1.33-.03-2-.03-.18 0-.24-.05-.25-.24-.03-1.38-.08-2.75-.12-4.13-.02-.68-.03-1.37-.07-2.05-.01-.2.05-.25.24-.25.84.02 1.69.03 2.53.04.19 0 .24.05.22.24-.04 1.02-.1 2.05-.15 3.08z" fill="#fe0303"/><path d="m462.53 94.43c-.03.04-.03.04-.04.05-.1.16-.05.45-.21.5-.25.07-.54.02-.81.01-.18-.01-.09-.13-.07-.2.18-.73.37-1.47.56-2.2.21-.82.39-1.64.52-2.47.02-.14.07-.19.22-.19.55.01 1.11.02 1.66.02.14 0 .17.07.19.18.27 1.58.65 3.13.99 4.69.04.2 0 .24-.19.23-.45-.02-.9-.03-1.35-.02-.17 0-.26-.04-.29-.22-.03-.19-.13-.23-.29-.11-.08.05-.16.09-.24.15-.35.23-.35.23-.53-.16-.03-.07-.07-.15-.12-.26zm.53-1.68c-.15.49-.37.86-.44 1.3.28.03.52-.02.76-.08.07-.02.15-.02.12-.11-.12-.35-.2-.73-.44-1.11z" fill="#fe0202"/><path d="m452.99 94.32c-.02.01-.04.02-.04.04-.08.16-.04.45-.2.49-.25.07-.54.03-.81.01-.17-.01-.08-.16-.06-.24.19-.73.38-1.47.57-2.2.21-.81.39-1.62.52-2.44.02-.14.05-.19.2-.19.54.02 1.09.02 1.63.02.16 0 .2.06.23.21.29 1.55.62 3.1.98 4.63.04.19.03.28-.21.27-.44-.03-.88-.03-1.32-.02-.18 0-.28-.06-.31-.23-.03-.19-.13-.2-.27-.11-.06.04-.13.07-.19.11-.4.26-.4.26-.6-.18-.04-.05-.05-.13-.12-.17zm.55-1.66c-.19.38-.31.75-.43 1.12-.01.03-.02.1-.01.11.22.13.44 0 .67-.02.08 0 .22-.02.18-.18-.09-.36-.2-.7-.41-1.03z" fill="#fe0202"/><path d="m470.07 94.53c-.19.58-.19.58-.76.57-.39-.01-.4-.01-.29-.4.4-1.46.78-2.93 1.02-4.42.03-.18.1-.26.31-.25.5.03 1.01.03 1.52.04.15 0 .23.02.26.2.32 1.54.64 3.07.97 4.61.05.22.02.3-.23.28-.43-.02-.86-.03-1.29-.02-.18 0-.28-.05-.31-.23-.03-.21-.14-.21-.29-.11-.13.08-.26.16-.37.25-.18.16-.26.09-.32-.1-.05-.13-.09-.28-.22-.42zm.57-1.64c-.13.21-.2.41-.27.62s-.27.5-.15.62c.16.15.46-.01.69-.05.01 0 .02-.01.03-.01.11 0 .12-.07.1-.15-.09-.34-.21-.68-.4-1.03z" fill="#fe0202"/><path d="m461.27 94c-.07.32-.13.61-.19.9-.03.15-.17.13-.27.15-2.11.44-3.76-1.37-3.15-3.46.29-1 1.05-1.61 2.15-1.73.4-.04.8-.05 1.21 0 .15.02.24.07.24.24.01.55.02 1.11.05 1.66.01.19-.05.22-.22.2-.23-.03-.47-.03-.7.04-.6.18-.92.74-.75 1.37.15.57.67.87 1.29.73.1-.03.2-.06.34-.1z" fill="#fe0202"/><path d="m468.87 91.09c.01.15.01.3.02.45 0 .16.05.34-.01.47-.08.17-.28.02-.43.05-.25.05-.42.27-.33.51.07.2.18.39.28.58.69 1.2-.26 2.02-1.19 2.01-.78-.01-.77 0-.95-.78-.05-.22-.04-.33.22-.25.05.02.11.02.17.02.19.01.39.03.49-.18.09-.2.06-.41-.1-.57-.24-.24-.49-.47-.73-.7-.33-.31-.54-.67-.56-1.13-.06-.99.59-1.64 1.7-1.7.43-.02.84.07 1.26.13.14.02.15.12.15.23 0 .29-.01.58-.01.87-.01-.02.01-.01.02-.01z" fill="#fe0202"/><path d="m448.62 92.24c-.03-.76-.06-1.52-.11-2.27-.01-.2.05-.24.23-.23.61.02 1.22.03 1.83.02.21 0 .24.08.23.26-.08 1.22-.14 2.45-.23 3.67-.02.23.05.3.27.27.27-.03.54-.03.81-.08.22-.04.24.03.18.21-.03.09-.04.18-.06.27-.11.5-.11.5-.63.49-.73-.01-1.46-.03-2.19-.03-.22 0-.3-.07-.29-.28.02-.77.02-1.54.03-2.3-.03 0-.05 0-.07 0z" fill="#fe0303"/><path d="m453.11 100.19c-.01-.33-.03-.88-.06-1.44-.01-.15.03-.21.19-.22.54-.04 1.08-.07 1.62.04.96.19 1.52.88 1.52 1.87 0 1.02-.52 1.68-1.49 1.89-.49.1-.99.08-1.48.03-.17-.02-.24-.08-.24-.26-.01-.57-.04-1.13-.06-1.91zm1.52.71c-.01 0-.01 0-.02 0-.01.21-.03.41-.04.62 0 .08 0 .14.12.14.32-.01.63-.35.67-.73.04-.42-.14-.72-.48-.81-.17-.04-.25 0-.24.19s0 .39-.01.59z" fill="#fe0303"/><path d="m456.64 100.47c-.02-.56-.03-1.12-.06-1.69-.01-.15.03-.19.18-.19.74.02 1.48.03 2.22.03.16 0 .19.05.17.2-.04.39-.08.78-.1 1.18-.01.13-.05.19-.19.16-.14-.02-.28-.01-.42-.04-.17-.03-.27-.03-.27.2 0 .21.07.26.25.23h.08c.53-.01.52-.01.41.5-.03.15-.09.18-.23.16-.11-.01-.23 0-.34-.02-.18-.03-.23.03-.25.22-.02.25.05.34.3.3.05-.01.09-.01.14 0 .17.01.44-.13.49 0 .06.16-.08.39-.12.59-.02.1-.09.1-.17.09-.63-.01-1.26-.02-1.88-.03-.15 0-.16-.07-.16-.19-.01-.56-.03-1.13-.05-1.7z" fill="#fe0303"/><path d="m463.71 102.08c-.14.11-.02.4-.3.38-.64-.03-.6.12-.42-.55.26-.98.51-1.97.68-2.98.03-.18.1-.25.29-.24.35.02.71.02 1.07.02.12 0 .19.02.21.16.16 1.15.46 2.27.72 3.4.04.19.01.24-.19.23-.32-.02-.64-.01-.95-.02-.08 0-.17.01-.19-.11-.04-.25-.17-.18-.31-.09-.37.21-.37.21-.61-.2zm.4-1.26c-.07.19-.15.36-.2.53-.04.13-.18.28-.07.38.08.06.26.01.4-.01.09-.02.24-.01.18-.19-.09-.24-.13-.49-.31-.71z" fill="#fe0303"/><path d="m443.67 114.07c2.95.04 5.91.08 8.86.13.11 0 .27-.09.28.15.01.23-.08.25-.28.25-3.52-.06-7.03-.11-10.55-.16-2.41-.03-4.82-.07-7.23-.1-.23 0-.27-.08-.25-.27.01-.12.06-.14.16-.13h.14c2.97.04 5.92.08 8.87.13 0-.01 0-.01 0 0z" fill="#fe0404"/><path d="m477.29 114.93c-2.94-.04-5.89-.08-8.83-.12-.21 0-.29-.06-.26-.27.01-.11.05-.15.16-.14.05.01.09 0 .14 0 5.88.08 11.75.16 17.63.25.1 0 .27-.1.3.14.02.23-.07.27-.28.27-2.96-.04-5.91-.08-8.86-.13z" fill="#fe0404"/><path d="m466.46 101.79c.12-.04.24.03.36.03.3 0 .43-.19.3-.46-.1-.2-.28-.33-.44-.47-.28-.25-.51-.51-.57-.91-.08-.58.19-1.05.74-1.23.45-.14.9-.14 1.36-.05.15.03.2.11.2.26.01.37.01.75.03 1.12.01.16-.03.2-.2.2-.37-.01-.48.19-.32.52.08.17.18.33.25.5.21.55-.05 1.05-.62 1.2-.02 0-.04.01-.06.01-.76.18-.92.07-1.03-.72z" fill="#fe0303"/><path d="m461.94 100.19c-.01.45 0 .9-.02 1.35-.01.21.06.27.26.24.18-.03.35-.04.53-.05.05 0 .16-.02.15.02-.03.21-.07.43-.13.63-.04.14-.18.06-.27.06-.58 0-1.16-.02-1.74-.02-.16 0-.21-.04-.21-.2-.03-1.14-.07-2.29-.12-3.43-.01-.14.05-.15.16-.15.45.01.9.02 1.35.02.17 0 .2.06.19.21-.04.44-.07.88-.1 1.32-.02 0-.04 0-.05 0z" fill="#fe0303"/><path d="m458.15 114.47c-.01-.28-.02-.56-.04-.84-.01-.12.01-.2.16-.2.29 0 .58-.03.87.04.56.15.86.56.81 1.14-.05.57-.43.93-1.02.96-.77.05-.77.05-.77-.71 0-.13 0-.26.01-.39-.01 0-.02 0-.02 0zm.82.34c.05.08-.13.31.06.33.22.02.32-.19.35-.4.01-.1-.01-.19-.06-.27-.07-.1-.17-.17-.28-.14s-.05.14-.07.22c0 .07.01.15 0 .26z" fill="#fe0404"/><path d="m453.24 114.4c-.01-.28-.02-.56-.03-.84-.01-.12.01-.2.16-.2.29 0 .58-.03.87.04.58.15.86.57.8 1.17-.06.55-.43.9-1.01.93-.76.04-.76.04-.76-.71 0-.13 0-.26.01-.39-.03 0-.03 0-.04 0zm.82.28c-.01.04-.01.08-.01.11.02.1-.07.27.05.29.15.03.28-.09.33-.25.06-.14.07-.29-.02-.43-.06-.1-.17-.16-.28-.14-.11.03-.06.14-.07.22z" fill="#fe0404"/><path d="m455.84 115.51c-.6-.01-.61-.01-.63-.61-.02-.44-.02-.88-.05-1.32-.01-.13.03-.19.17-.18.36.01.73.02 1.09.02.14 0 .18.06.15.19-.02.11-.04.22-.03.33.02.25-.04.4-.33.3-.1-.03-.18 0-.18.14s.09.12.17.12c.21-.03.35 0 .25.27-.06.15-.17.08-.26.08-.13-.01-.18.02-.19.16 0 .16.09.13.18.13.04 0 .08-.01.11 0 .07.03.22-.1.21.07-.01.12.03.33-.22.31-.14-.02-.29-.01-.44-.01z" fill="#fe0a0a"/><path d="m461.41 115.19c.01.29-.08.43-.39.39-.24-.03-.49-.02-.73-.01-.14 0-.17-.05-.18-.18-.01-.58-.02-1.16-.05-1.74-.01-.14.03-.18.17-.18.36.01.71.02 1.07.01.16 0 .2.06.17.2-.02.1-.03.2-.03.31 0 .24-.02.43-.34.32-.1-.03-.16.02-.16.13 0 .15.11.13.2.12.23-.03.29.05.22.27-.05.14-.14.09-.23.09-.11 0-.22-.04-.22.15 0 .21.14.12.23.13.08.01.16 0 .27-.01z" fill="#fe0a0a"/><path d="m463.44 114.46c0-.17.03-.4.15-.59.15-.24.36-.37.65-.36.28.01.47.16.6.4.23.44.14 1.15-.19 1.53-.28.31-.68.3-.94-.02-.19-.24-.28-.54-.27-.96zm.56.37c.01.15 0 .38.18.39.21.01.2-.22.22-.38.01-.05.01-.09 0-.14-.02-.11-.04-.23-.19-.24-.15 0-.18.11-.2.23-.01.04-.01.09-.01.14z" fill="#fe0606"/><path d="m457.53 113.38c.41.02.41.02.43.42.01.11.01.22.02.34.01.1 0 .14-.13.15-.21.01-.25.13-.16.31.02.04.04.08.07.12.13.22.17.44-.02.65-.19.22-.45.21-.7.17-.16-.03-.12-.19-.14-.3-.03-.16.11-.08.17-.08.21-.02.23-.15.15-.29-.04-.09-.14-.15-.21-.22-.31-.28-.41-.58-.29-.87.11-.27.42-.42.81-.4z" fill="#fe0606"/><path d="m466.14 115.31c.19-.38.37-.73.36-1.14 0-.1.09-.09.15-.08.21.04.22-.08.21-.25 0-.09-.08-.24.05-.27.19-.04.39-.04.58.02.07.02.03.12.03.18-.01.35-.03.69-.04 1.04 0 .07-.06.18.08.19.06.01.17-.05.15.09-.01.09-.01.19-.12.23-.05.02-.13 0-.13.08.03.36-.23.24-.41.26-.13.01-.2-.04-.18-.18.02-.15-.06-.17-.18-.17-.17.01-.34.01-.55 0zm.71-.75c-.03.19-.15.28-.13.43 0 .01.08.02.1.01.12-.11.06-.25.03-.44z" fill="#fe0a0a"/><path d="m462.72 115.22c.12 0 .18-.01.24.01.08.02.24-.11.23.07-.01.13 0 .34-.26.31-.18-.02-.35-.01-.53-.01-.23 0-.25-.1-.15-.28.13-.23.27-.45.3-.72.03-.22-.01-.38-.28-.36-.03 0-.07.01-.08 0-.07-.19.04-.38.02-.57-.01-.13.08-.16.17-.17.29-.04.59-.06.8.2.22.26.15.54.01.81-.09.24-.27.45-.47.71z" fill="#fe0a0a"/><path d="m465.99 114.56c0 .3-.02.6-.01.9.01.24-.15.2-.28.18s-.34.11-.34-.19c.01-.33 0-.65 0-.98 0-.09.01-.16-.13-.18-.16-.02-.12-.22-.16-.35-.04-.12.09-.12.15-.15.18-.09.36-.16.53-.25.23-.11.28-.07.28.17 0 .28-.01.56-.01.84 0 .01-.01.01-.03.01z" fill="#fe0a0a"/><path d="m473.59 110c.01-.39.02-.79.01-1.18-.01-.2.08-.21.24-.19.68.07 1.06.49 1.05 1.18-.01.83-.41 1.38-1.1 1.51-.17.03-.3.04-.27-.22.03-.36.02-.73.02-1.09.01-.01.03-.01.05-.01z" fill="#fef9f9"/><path d="m467.26 109.52c.21.47.39.91.53 1.36.05.16.01.19-.13.21-.28.03-.55.09-.83.13-.07.01-.21.04-.16-.1.15-.54.31-1.07.59-1.6z" fill="#fef7f7"/><path d="m478.94 109.67c.23.49.42.94.55 1.41.03.11 0 .13-.11.16-.29.08-.59.09-.88.14-.1.02-.18-.01-.14-.13.16-.52.32-1.04.58-1.58z" fill="#fef7f7"/><path d="m463.06 92.75c.24.38.31.76.44 1.11.03.09-.05.1-.12.11-.24.06-.49.12-.76.08.07-.44.29-.81.44-1.3z" fill="#fef7f7"/><path d="m453.54 92.66c.21.33.32.67.41 1.02.04.16-.09.18-.18.18-.22.01-.44.15-.67.02-.01-.01-.01-.07.01-.11.12-.37.24-.74.43-1.11z" fill="#fef7f7"/><path d="m470.64 92.89c.19.34.3.68.41 1.03.02.08.01.15-.1.15-.01 0-.02 0-.03.01-.24.04-.54.2-.69.05-.12-.12.08-.41.15-.62.06-.2.14-.4.26-.62z" fill="#fef7f7"/><path d="m454.63 100.9c0-.2.01-.39.01-.59-.01-.18.07-.23.24-.19.34.08.52.39.48.81-.04.38-.35.71-.67.73-.11 0-.12-.06-.12-.14.01-.21.03-.41.04-.62z" fill="#fef7f7"/><path d="m464.11 100.82c.18.23.23.47.31.71.06.18-.09.18-.18.19-.13.02-.32.07-.4.01-.11-.09.03-.25.07-.38.05-.17.12-.34.2-.53z" fill="#fef7f7"/><path d="m458.97 114.81c0-.11-.01-.19.01-.26.01-.08-.04-.19.07-.22.12-.03.22.04.28.14.05.08.07.17.06.27-.03.21-.13.42-.35.4-.2-.02-.02-.25-.07-.33z" fill="#fef7f7"/><path d="m454.06 114.68c0-.07-.01-.13 0-.2.01-.08-.04-.19.07-.22.12-.03.22.04.28.14.09.14.07.29.02.43-.06.15-.18.28-.33.25-.12-.02-.03-.19-.05-.29 0-.04.01-.08.01-.11z" fill="#fef7f7"/><path d="m464 114.83c0-.05 0-.1.01-.15.02-.11.05-.23.2-.23s.17.13.19.24c.01.05.01.09 0 .14-.02.16-.01.4-.22.38-.18 0-.17-.23-.18-.38z" fill="#fef7f7"/><path d="m466.85 114.56c.04.2.09.33-.02.44-.02.02-.1 0-.1-.01-.04-.15.09-.24.12-.43z" fill="#fef7f7"/></svg>