<svg viewBox="0 0 170.78 171" xmlns="http://www.w3.org/2000/svg"><path d="m85.42 4.25c-44.19-.39-82.69 37.33-81.14 81.53-.8 44.14 36.83 80.7 80.24 81 45.21.28 82.11-36.83 82-80.83-.06-45.58-35.79-81.3-81.1-81.7zm-26.42 83.17c0 .91 0 1.81.05 2.71 0-.9 0-1.8-.05-2.71-.78-1.16-.83-2.06 0-2.61-.82.55-.77 1.45 0 2.61z" fill="#e30613"/><g fill="#fff"><path d="m88.63 32.53c-.44-1.82-2.42-3.2-4.8-3.2s-4.36 1.38-4.8 3.2a21.73 21.73 0 0 0 -20.92 21.72v8.14a48.24 48.24 0 0 1 25.72-7 48.24 48.24 0 0 1 25.72 7v-8.14a21.73 21.73 0 0 0 -20.92-21.72z"/><path d="m109.37 62.36c-1.87-14.54-12.59-25.69-25.54-25.69s-23.67 11.15-25.54 25.69c-1.7 1.1-2.91 4.08-2.91 7.61 0 4.44 1.93 8 4.32 8h.09c3.78 11.21 13.12 19.15 24 19.15s20.25-7.94 24-19.15h.1c2.39 0 4.32-3.61 4.32-8 .07-3.53-1.14-6.51-2.84-7.61zm-39.08 5.52a3.91 3.91 0 1 1 3.91 3.9 3.91 3.91 0 0 1 -3.91-3.9zm13.44 19.6c-3.86 0-7-1.4-7-3.13s3.13 0 7 0 7-1.73 7 0-3.14 3.13-7 3.13zm9.51-15.7a3.91 3.91 0 1 1 3.91-3.9 3.91 3.91 0 0 1 -3.91 3.9zm-9.41 31.75a27.94 27.94 0 0 1 -16.83-5.74l16.19 19.86 15.49-18.51a27.61 27.61 0 0 1 -14.85 4.39z"/><path d="m122.56 106.1a66.81 66.81 0 0 1 -6.72-1.56l-13.47-3.87-19.28 23.07-18.76-23-13.33 3.84a66.76 66.76 0 0 1 -6.58 1.52 10.65 10.65 0 0 0 -8.8 10.49v6.17a5 5 0 0 0 2.71 4.44 98.87 98.87 0 0 0 45.17 10.57 98.86 98.86 0 0 0 45.16-10.57 5 5 0 0 0 2.71-4.44v-6.17a10.66 10.66 0 0 0 -8.81-10.49zm-6.24 19.19h-15v-7.64h15z"/></g><path d="m131.17 65.05a17.32 17.32 0 0 1 9.68 2.49c1.6 1 2.11 2.31 1.42 3.49-.79 1.36-2.12 1.63-3.82.78-7.21-3.62-14.34-2.11-19.12 4a14.83 14.83 0 0 0 18.67 22.19c5.95-3 9-9.43 7.73-16.29-.33-1.77.44-3.15 1.92-3.44 1.33-.26 2.44.69 2.84 2.46 2.57 11.08-5.39 22.16-16.75 23.67a20 20 0 0 1 -22.23-17.4c-1.35-12.61 9.08-22.49 19.66-21.95z" fill="#fcfcfc"/><path d="m147.23 74a3.91 3.91 0 0 1 -.77 1.81c-4.46 5.62-8.83 11.19-13.26 16.82-1.06 1.34-2.66 1.42-4 .12-2.38-2.23-4.68-4.55-7-6.85a2.28 2.28 0 0 1 -.16-3.44 2.51 2.51 0 0 1 3.64 0c1.46 1.33 2.86 2.72 4.22 4.14.74.77 1.21.77 1.89-.09q5.33-6.84 10.74-13.61c.75-.94 1.61-1.75 3-1.29a2.52 2.52 0 0 1 1.7 2.39z" fill="#fcfcfc"/></svg>