<svg viewBox="0 0 188.73 188.97" xmlns="http://www.w3.org/2000/svg"><path d="m94.39 13.23c-44.19-.39-82.68 37.33-81.13 81.54-.81 44.13 36.82 80.69 80.23 81 45.21.29 82.11-36.83 82-80.82-.06-45.6-35.79-81.32-81.1-81.72zm-26.39 83.18c-.77-1.17-.83-2.07 0-2.61-.85.54-.79 1.44 0 2.61z" fill="#e30613"/><g fill="#fcfcfc"><path d="m57.26 99.82v38.48c0 3.87 2 5.95 5.86 5.95h55c3.78 0 5.75-2 5.78-5.78 0-1.33-.07-2.66 0-4a2.76 2.76 0 0 1 2.7-2.71 2.55 2.55 0 0 1 2.82 2.3c.33 3.61.53 7.27-1.46 10.57a10.32 10.32 0 0 1 -9.18 5.26c-18.9.07-37.79.1-56.68 0-5.24 0-10.69-3.91-10.6-12.29q.18-17.76.23-35.53c0-13.73.2-27.47-.08-41.2a11.11 11.11 0 0 1 11.6-11.52c2.16.08 2.75-.75 2.35-2.65-.27-1.24.1-1.53 1.39-1.47 3.76.15 7.52.05 11.28.17 1.39 0 1.71-.82 2.19-1.79 3-6.11 9.11-8.24 15.28-5.34a10.19 10.19 0 0 1 5.09 5.59 2.11 2.11 0 0 0 2.34 1.53c3.56-.1 7.11-.06 10.66-.16 1.38 0 2.18.34 2 1.87-.25 1.71.44 2.19 2.18 2.26 7.48.26 11.64 4.67 11.65 12.12v17.57c0 2.42-1.06 3.82-2.85 3.81s-2.81-1.37-2.87-3.86v-17.78c0-4.44-2-6.31-6.44-6.21-1.22 0-1.8.34-1.72 1.66s0 2.65 0 4-.5 1.93-2 1.92c-5.64-.07-11.29 0-16.94 0h-29.07c-1.67 0-2.49-.36-2.24-2.18a16 16 0 0 0 0-2.5c0-2.92 0-2.92-2.83-2.85-3.42.07-5.52 2.18-5.53 5.7q.07 19.51.09 39.06zm33.31-42.77h15.05c4.73 0 4.69 0 4.51-4.68 0-1.17-.41-1.58-1.58-1.56-3.2 0-6.41-.12-9.61.06-2.15.12-2.85-.45-2.8-2.71a5.5 5.5 0 0 0 -7.84-5.16c-2.55 1.15-3.43 3.35-3.29 6 .07 1.46-.41 2-1.89 1.9-2.64-.11-5.29 0-7.94 0-4.15 0-4.05 0-4.13 4.22 0 1.77.62 2.05 2.17 2 5.78-.12 11.57-.07 17.35-.07z"/><path d="m126.8 84.7a19.69 19.69 0 0 1 11 2.83c1.81 1.09 2.38 2.6 1.6 3.94-.89 1.54-2.4 1.85-4.33.88-8.14-4.09-16.21-2.39-21.61 4.56a16.78 16.78 0 0 0 21.07 25c6.73-3.44 10.16-10.67 8.74-18.43-.37-2 .49-3.57 2.17-3.9 1.51-.29 2.76.79 3.22 2.78 2.91 12.54-6.11 25.07-19 26.79a22.65 22.65 0 0 1 -25.11-19.64c-1.55-14.24 10.28-25.42 22.25-24.81z"/><path d="m145 94.86a4.32 4.32 0 0 1 -.87 2c-5 6.32-10 12.67-15 19-1.2 1.52-3 1.61-4.56.14-2.69-2.52-5.29-5.15-7.91-7.75a2.58 2.58 0 0 1 -.18-3.9 2.84 2.84 0 0 1 4.12 0c1.64 1.5 3.23 3.08 4.77 4.69.83.86 1.37.87 2.13-.11q6-7.74 12.15-15.39c.85-1.07 1.82-2 3.38-1.46a2.83 2.83 0 0 1 1.97 2.78zm-58.45 1.24h-13.8c-2.14 0-3.29-.95-3.29-2.62 0-1.84 1.11-2.83 3.35-2.83h28a3 3 0 0 1 3.24 2.8 3.07 3.07 0 0 1 -3.31 2.8h-14.21zm.13-14.25h-13.8c-2.12 0-3.42-1.12-3.42-2.81s1.19-2.64 3.34-2.65h28c1.84 0 3.41 1.31 3.21 2.8a2.8 2.8 0 0 1 -3.13 2.67c-4.71-.03-9.46-.01-14.2-.01zm-4.59 23.05h8.77c2.19 0 3.24.89 3.31 2.62.08 1.9-.93 3-3.15 3-6.12.07-12.24.05-18.37 0-1.68 0-3-.78-3.17-2.63s1.11-3 3.22-3c3.13-.04 6.3.01 9.39.01z"/></g></svg>