<svg viewBox="0 0 172.94 173.16" xmlns="http://www.w3.org/2000/svg"><path d="m86.5 5.33c-44.19-.39-82.69 37.33-81.14 81.53-.8 44.14 36.83 80.7 80.24 81 45.21.28 82.11-36.83 82-80.82-.06-45.59-35.79-81.31-81.1-81.71zm-26.41 83.17c-.78-1.16-.83-2.06 0-2.61-.83.55-.78 1.45 0 2.61z" fill="#e30613"/><g fill="#fff"><path d="m89.25 31h-6.81a9.1 9.1 0 1 0 1.73 3h5.08a1.51 1.51 0 1 0 0-3zm12.06 81.27a3.69 3.69 0 0 1 -1.75.43h-9.18a5.38 5.38 0 0 1 -1.14-.12c4.76 0 9.17-.19 12.07-.31zm-38.37-32.59-.12 1.43a1.93 1.93 0 0 1 0-.24 5.78 5.78 0 0 1 .12-1.19zm-10.19-11.19h-17a6 6 0 0 0 -5.95 6v16.15a6 6 0 0 0 5.95 6h17a6 6 0 0 0 6-6v-16.19a6 6 0 0 0 -6-5.96zm1.57 23h-20.08v-18h7.41v8.57l2.63-2.7 2.63 2.7v-8.49h7.41z"/><path d="m146.3 111c-4.67-11.2-19.24-10.14-19.24-10.14l-13.06-30.56h4.19s3.09-.32 3-6.66-3.49-6.26-3.49-6.26-1 0-4.2-.07-3.8 1.42-5.86 3.64-6 2.61-6 2.61a2.51 2.51 0 0 0 -2.3-1.9c-2.06-.31-9.19-1.19-9.19-1.19s-4.44-5-7.21-8.24a6.24 6.24 0 0 0 -2.17-1.62c-2.75-1.24-6.42-.67-10-.67-4.67 0-5.65 6.34-5.65 6.34l-2.14 23.4-.12 1.43a5.3 5.3 0 0 0 5.3 5.06h16.91v21.23a5.29 5.29 0 0 0 1.55 3.75 5.36 5.36 0 0 0 2.62 1.43c-9.94 0-14.39-2-14.39-6.79s3.41-6.42 3.41-6.42a2.38 2.38 0 0 0 2.61-2.21s.12-2.62.12-4.64-2.26-2.25-2.26-2.25h-19.65l-3.64.23c-1.51 1.35-14 7.13-14 7.13-5.94 2.69-7.45 10.46-7.77 14.18s2.78 3.88 2.78 3.88h27.15c2.14 0 2.69 2.7 2.69 2.7v2.85a1.62 1.62 0 0 0 1.82 1.67h47.3c7.29-9.51 21.47-7.22 24.16-7.22 2.3 0 8.96.64 6.73-4.69zm-37.41-13c.22 1.57.16 3.7.33 7.52s-3.08 6.57-4.82 6.57c-.58 0-1.65 0-3.09.11a3.69 3.69 0 0 1 -1.75.43h-9.18a5.38 5.38 0 0 1 -1.14-.12c4.8 0 9.17-.19 12.07-.31a3.88 3.88 0 0 0 .89-.66 3.73 3.73 0 0 0 -2.64-6.36h-3.88v-22c0-7.48-6.42-7.72-6.42-7.72a2.42 2.42 0 0 0 -.39 0h-10.38l1.23-13.51 5.93 6.77s11.95 1.71 13.19 1.74c2.3 0 2.41-1.91 3.42-2.14s2.74-.32 2.74-.32 3.7 13.48 4.38 16c.45 1.7-2.53 3.09-2.59 6.06-.07 1.94 1.87 6.44 2.1 8.01z"/><path d="m101.31 112.27a3.69 3.69 0 0 1 -1.75.43h-9.18a5.38 5.38 0 0 1 -1.14-.12c4.76 0 9.17-.19 12.07-.31zm-46.46 7.07a5.09 5.09 0 1 1 -9.4 0h-7.79a12.78 12.78 0 0 0 -.15 2 12.64 12.64 0 0 0 25.28 0 12.78 12.78 0 0 0 -.15-2zm75.39 14.66a12.64 12.64 0 0 0 12.64-12.64 12.77 12.77 0 0 0 -.16-2h-7.79a5 5 0 0 1 .4 2 5.09 5.09 0 0 1 -10.17.27 10.28 10.28 0 0 0 -6.56 4.67 12.63 12.63 0 0 0 11.64 7.7z"/></g></svg>