<svg viewBox="0 0 173.42 173.64" xmlns="http://www.w3.org/2000/svg"><path d="m86.74 5.57c-44.19-.39-82.69 37.33-81.14 81.53-.8 44.14 36.83 80.7 80.24 81 45.21.28 82.11-36.83 82-80.82-.06-45.59-35.79-81.28-81.1-81.71zm-26.41 83.17c0 .91 0 1.81.05 2.71 0-.9 0-1.8-.05-2.71-.78-1.16-.83-2.06 0-2.61-.83.55-.78 1.45 0 2.61z" fill="#e30613"/><g fill="#fff"><path d="m102.31 99.91-.81 1.27 3.2 2c3.31 2.07 6.63 4.16 10 6.22a3.69 3.69 0 0 1 1.2 5.72 3.58 3.58 0 0 1 -5.3 1.14c-2.72-1.66-5.4-3.39-8.1-5.08-1.9-1.2-3.81-2.38-5.76-3.59l-.83 1.25 3 1.94 9.1 5.68a3 3 0 0 1 1.26 2.2c.29 1.81-1.2 4.78-3.6 4.93a3.71 3.71 0 0 1 -2-.48c-3.17-1.91-6.27-3.93-9.41-5.86-1.06-.65-2.2-1.17-3.31-1.76 1.33-3.24 1.11-5.32-.87-7.22s-4.06-2-7.49-.42c.25-2.82-.73-5-3.36-6.21s-4.9-.21-7 1.71v-1.29a5.55 5.55 0 0 0 -7.93-4.9 65.47 65.47 0 0 0 -5.66 3.64l-2 1.32c-3.24-3.25-5.86-7.19-10.44-9l16.63-26.49c1.55 1 3.09 1.9 4.6 2.88a2.83 2.83 0 0 0 2 .51c2.43-.27 4.85-.57 7.28-.81 2.74-.26 5.48-.52 8.23-.66a9.85 9.85 0 0 1 2.86.51 27.84 27.84 0 0 1 -9.4 3.52 10 10 0 0 0 -5.89 3.66 12.3 12.3 0 0 1 -2.68 2.29c-1.18.79-2.48 1.41-3.71 2.13a6.41 6.41 0 0 0 -3.35 4.34 3 3 0 0 0 1.23 3.25 7.68 7.68 0 0 0 4.58 1.34 27.49 27.49 0 0 0 13.35-3 46.2 46.2 0 0 0 4.28-2.43 4.11 4.11 0 0 1 4.69 0c1.79 1.06 3.54 2.18 5.3 3.28l11.12 7 13.44 8.44a3.15 3.15 0 0 1 1.07 4.72 3.56 3.56 0 0 1 -3.59 2 4.85 4.85 0 0 1 -1.85-.75c-2.79-1.73-5.56-3.5-8.34-5.24-1.87-1.32-3.79-2.49-5.74-3.7z"/><path d="m117.32 66.59c5.59 8.85 11.12 17.63 16.68 26.41a3.6 3.6 0 0 1 -.52.3c-2.75 1-4.62 3.19-6.59 5.22-1.3 1.33-2.52 2.73-3.67 4l-8.89-5.6-10.33-6.51q-6-3.73-12-7.41a5.9 5.9 0 0 0 -5.73-.61 8.32 8.32 0 0 0 -1.18.7 27.81 27.81 0 0 1 -17.2 4.91 7.9 7.9 0 0 1 -2.73-.82 1.65 1.65 0 0 1 -.83-2.1 4.3 4.3 0 0 1 1.8-2.55c1.63-1 3.29-1.94 4.91-2.94a10.3 10.3 0 0 0 3-2.72 6.93 6.93 0 0 1 4.41-2.7 39.09 39.09 0 0 0 10.66-3.8 16.94 16.94 0 0 1 10.48-1.59c3.56.52 7.15.82 10.72 1.27a4.69 4.69 0 0 0 3.25-1.05c1.23-.84 2.49-1.61 3.76-2.41z"/><path d="m129.59 52.42a3.58 3.58 0 0 1 1 .76c3.14 4.9 6.24 9.82 9.35 14.75l9.36 14.82c.81 1.29 1.61 2.59 2.4 3.88a1.33 1.33 0 0 1 -.44 2.1c-2.74 1.71-5.51 3.39-8.26 5.08l-3.46 2.19a1.4 1.4 0 0 1 -2.2-.49q-5.25-8.34-10.5-16.69c-2.55-4-5.13-8.07-7.69-12.1q-1.43-2.23-2.83-4.48c-.6-.95-.38-1.62.6-2.21 2.71-1.63 5.4-3.29 8.09-4.95 1.24-.75 2.47-1.53 3.71-2.28a5.21 5.21 0 0 1 .87-.38z"/><path d="m64.14 61.35a5.28 5.28 0 0 1 -.37.91c-1.5 2.37-3 4.73-4.5 7.09-2.18 3.45-4.34 6.92-6.52 10.37s-4.42 7-6.63 10.45c-1.1 1.74-2.18 3.48-3.27 5.22-.73 1.19-1.32 1.32-2.48.57l-11-7.1c-1.3-.84-1.45-1.36-.63-2.66 2.41-3.84 4.85-7.67 7.27-11.51q4-6.37 8-12.76l5.65-8.93a1.29 1.29 0 0 1 1.84-.39c4 2.57 8 5.14 12 7.75.3.19.44.64.64.99zm-26.83 22.23a3.86 3.86 0 0 0 -3.88 3.86 3.86 3.86 0 1 0 3.88-3.86z"/><path d="m90.28 112.21a4.15 4.15 0 0 1 -1.74 3.49q-5.76 4-11.57 8a4.15 4.15 0 0 1 -6.17-1.14 4 4 0 0 1 .94-5.22c1.56-1.17 3.21-2.23 4.81-3.35 2.37-1.63 4.71-3.29 7.1-4.9a4.17 4.17 0 0 1 6.63 3.15z"/><path d="m65.44 118.94a4.14 4.14 0 0 1 -4.06-2.68 4 4 0 0 1 1.26-4.51c1.48-1.16 3.07-2.17 4.62-3.25q3.63-2.52 7.27-5a4.3 4.3 0 0 1 4.9 0 4 4 0 0 1 1.34 4.74 5.41 5.41 0 0 1 -1.7 2.09c-3.63 2.61-7.33 5.13-11 7.65a4 4 0 0 1 -2.63.96z"/><path d="m60 110.82a4 4 0 0 1 -4.08-3 4.25 4.25 0 0 1 1.91-4.68c2.16-1.39 4.27-2.83 6.4-4.26a4 4 0 0 1 5.25.45 4.2 4.2 0 0 1 .69 4.94 2.86 2.86 0 0 1 -.75.87c-2.29 1.62-4.6 3.2-6.88 4.83a4.18 4.18 0 0 1 -2.54.85z"/><path d="m81.68 124a3.19 3.19 0 0 1 1.47-2.7c1.69-1.21 3.39-2.39 5.14-3.52a3.62 3.62 0 0 1 5 1.14 3.7 3.7 0 0 1 -1.1 5.08c-1.59 1-3.15 2.15-4.72 3.23a3.7 3.7 0 0 1 -5.79-3.23z"/><path d="m91.45 126.3c2.64-1.39 4.33-3.24 3.85-6.5.5.29.89.48 1.26.72.8.49 1.57 1 2.38 1.51a3.73 3.73 0 0 1 1.38 5.43c-1.33 2.18-3.11 2.56-5.25 1.15-1.14-.76-2.31-1.48-3.62-2.31z"/><path d="m37.31 84.81a2.72 2.72 0 0 1 2.62 2.65 2.76 2.76 0 0 1 -2.68 2.61 2.82 2.82 0 0 1 -2.63-2.6 2.75 2.75 0 0 1 2.69-2.66z"/></g></svg>