<svg viewBox="0 0 179.42 179.65" xmlns="http://www.w3.org/2000/svg"><path d="m89.74 8.57c-44.19-.39-82.69 37.34-81.14 81.54-.8 44.14 36.83 80.7 80.24 81 45.21.29 82.11-36.83 82-80.82-.06-45.59-35.79-81.29-81.1-81.72zm-26.41 83.18c0 .9 0 1.81.05 2.71 0-.9 0-1.81-.05-2.71-.78-1.17-.83-2.06 0-2.61-.83.55-.78 1.44 0 2.61z" fill="#e30613"/><path d="m141.13 71.4a17.35 17.35 0 0 1 9.68 2.5c1.6 1 2.11 2.3 1.42 3.49-.8 1.36-2.12 1.63-3.83.77-7.2-3.61-14.33-2.11-19.11 4a14.84 14.84 0 0 0 18.63 22.13 14.82 14.82 0 0 0 7.72-16.29c-.33-1.78.44-3.15 1.92-3.45 1.33-.26 2.44.7 2.85 2.46 2.57 11.09-5.4 22.16-16.75 23.68a20 20 0 0 1 -22.2-17.36c-1.35-12.58 9.09-22.47 19.67-21.93z" fill="#fcfcfc"/><path d="m157.18 80.38a3.73 3.73 0 0 1 -.77 1.81c-4.41 5.59-8.82 11.21-13.25 16.81-1.06 1.34-2.66 1.42-4 .13-2.38-2.24-4.67-4.56-7-6.85a2.28 2.28 0 0 1 -.16-3.45 2.51 2.51 0 0 1 3.64 0c1.45 1.33 2.85 2.72 4.22 4.15.73.76 1.21.77 1.88-.1 3.55-4.56 7.15-9.08 10.74-13.61.75-.94 1.61-1.74 3-1.29a2.5 2.5 0 0 1 1.7 2.4z" fill="#fcfcfc"/><path d="m85.21 52.24h-17.86a6.27 6.27 0 0 0 -6.27 6.27v17.05a6.27 6.27 0 0 0 6.27 6.27h17.86a6.27 6.27 0 0 0 6.27-6.27v-17.05a6.27 6.27 0 0 0 -6.27-6.27zm1.65 24.25h-21.16v-18.91h7.81v9l2.77-2.85 2.77 2.85v-9h7.81zm38.88-2.58a3.76 3.76 0 0 1 .94 2.49v23l-3.38 32.9a3.8 3.8 0 0 1 -3.78 3.41h-4.52a3.8 3.8 0 0 1 -3.78-3.51l-2.84-36.74c.25-.06 4.16-1.11 5.32-2.16a10.31 10.31 0 0 0 2.68-3.67c.49-1.28 3.19-10.14 3.27-10.42l-8.33 11.31-3 .66c-4.57 1-13 2.92-14.22 3.21-1.68.4-4.75.66-5.56-2.46a3.74 3.74 0 0 1 3.08-5c2-.4 14.29-3 14.29-3l2.41-4.17 4.29-7.42a3.64 3.64 0 0 1 3.14-1.81h5.47a3.27 3.27 0 0 1 2.48 1.13zm-91.37 0a3.76 3.76 0 0 0 -.94 2.49v23l3.39 32.9a3.79 3.79 0 0 0 3.77 3.41h4.48a3.8 3.8 0 0 0 3.78-3.51l2.84-36.74c-.25-.06-4.16-1.11-5.32-2.16a10.31 10.31 0 0 1 -2.68-3.67c-.49-1.28-3.18-10.14-3.27-10.42l8.33 11.31 2.95.66c4.57 1 13 2.92 14.22 3.21 1.69.4 4.75.66 5.56-2.46a3.74 3.74 0 0 0 -3.08-5c-2-.4-14.29-3-14.29-3l-2.41-4.17-4.3-7.39a3.62 3.62 0 0 0 -3.14-1.81h-5.47a3.27 3.27 0 0 0 -2.48 1.13zm92.31-16.42a9.55 9.55 0 1 1 -9.54-9.49 9.54 9.54 0 0 1 9.54 9.49zm-70.52-6.4h-7.16a9.54 9.54 0 1 0 2.46 6.4 9.66 9.66 0 0 0 -.46-3.11h5.2a1.65 1.65 0 0 0 0-3.29z" fill="#fff"/></svg>